G04 Generated by Ultiboard 13.0 *
%FSLAX25Y25*%
%MOIN*%

%ADD10C,0.00001*%
%ADD11C,0.01000*%
%ADD12C,0.05337*%
%ADD13C,0.05000*%
%ADD14R,0.07874X0.07874*%
%ADD15C,0.07874*%
%ADD16R,0.06900X0.06900*%
%ADD17C,0.06900*%
%ADD18C,0.05906*%
%ADD19C,0.06334*%
%ADD20C,0.07834*%
%ADD21C,0.03937*%
%ADD22C,0.07699*%


G04 ColorRGB 0000FF for the following layer *
%LNCopper Bottom*%
%LPD*%
G54D10*
G36*
X56507Y92498D02*
X56507Y92498D01*
X455068Y92498D01*
X455068Y290270D01*
X56507Y290270D01*
X56507Y92498D01*
D02*
G37*
%LPC*%
G36*
X128978Y186149D02*
X128978Y186149D01*
X128978Y177998D01*
X130754Y176222D01*
X140253Y176222D01*
G75*
D01*
G02X141008Y176076I3J-2009*
G01*
G74*
D01*
G02X141501Y175790I751J1863*
G01*
G75*
D01*
G02X141347Y178108I3184J1376*
G01*
X141347Y178108D01*
X134350Y178108D01*
G75*
D01*
G02X134291Y178109I5J2010*
G01*
G74*
D01*
G02X132929Y178697I59J2008*
G01*
X132929Y178697D01*
X131453Y180173D01*
G75*
D01*
G02X130864Y181600I1420J1421*
G01*
X130864Y181600D01*
X130864Y234740D01*
G75*
D01*
G02X131453Y236165I2010J3*
G01*
X131453Y236165D01*
X132929Y237642D01*
G75*
D01*
G02X134354Y238230I1421J-1422*
G01*
X134354Y238230D01*
X158616Y238230D01*
X160392Y240006D01*
X160392Y265744D01*
G75*
D01*
G02X160981Y267169I2010J3*
G01*
X160981Y267169D01*
X163933Y270122D01*
G74*
D01*
G02X163991Y270177I1411J1430*
G01*
G74*
D01*
G02X163933Y270232I1353J1485*
G01*
X163933Y270232D01*
X160981Y273185D01*
G74*
D01*
G02X160393Y274556I1420J1421*
G01*
G75*
D01*
G02X150973Y278502I-4095J3442*
G01*
X150973Y278502D01*
X130754Y278502D01*
X128978Y276727D01*
X128978Y274606D01*
G75*
D01*
G02X126969Y272597I-2009J0*
G01*
X126969Y272597D01*
X126325Y272597D01*
X125439Y271711D01*
G74*
D01*
G02X125434Y271707I1258J1567*
G01*
X125434Y271707D01*
X123963Y270235D01*
G74*
D01*
G02X123292Y269790I1424J1419*
G01*
G75*
D01*
G02X122536Y269644I-752J1864*
G01*
X122536Y269644D01*
X93545Y269644D01*
X93545Y198667D01*
X95321Y196892D01*
X106296Y196892D01*
G75*
D01*
G02X107034Y196753I4J-2010*
G01*
G74*
D01*
G02X107723Y196301I735J1871*
G01*
X107723Y196301D01*
X110671Y193353D01*
G74*
D01*
G02X111262Y191929I1419J1424*
G01*
X111262Y191929D01*
X111262Y139612D01*
X113037Y137836D01*
X118107Y137836D01*
G75*
D01*
G02X118845Y137697I4J-2009*
G01*
G74*
D01*
G02X119534Y137245I734J1870*
G01*
X119534Y137245D01*
X122482Y134297D01*
G74*
D01*
G02X123073Y132874I1418J1423*
G01*
X123073Y132874D01*
X123073Y125310D01*
G75*
D01*
G02X119053Y124545I-1072J-5310*
G01*
X119053Y124545D01*
X119053Y132042D01*
X117278Y133817D01*
X115844Y133817D01*
G75*
D01*
G02X110112Y135077I-3844J-3817*
G01*
X110112Y135077D01*
X107831Y137358D01*
G75*
D01*
G02X107242Y138785I1421J1422*
G01*
X107242Y138785D01*
X107242Y191097D01*
X105467Y192872D01*
X94488Y192872D01*
G75*
D01*
G02X94373Y192876I12J2010*
G01*
G74*
D01*
G02X93067Y193461I114J2006*
G01*
X93067Y193461D01*
X90114Y196414D01*
G75*
D01*
G02X89526Y197840I1421J1420*
G01*
X89526Y197840D01*
X89526Y269644D01*
X85630Y269644D01*
G75*
D01*
G02X85204Y269690I2J2010*
G01*
G74*
D01*
G02X84209Y270232I425J1964*
G01*
X84209Y270232D01*
X81773Y272668D01*
G75*
D01*
G02X85494Y274631I-434J5331*
G01*
X85494Y274631D01*
X86462Y273663D01*
X115687Y273663D01*
G75*
D01*
G02X120712Y283003I3129J4338*
G01*
X120712Y283003D01*
X122595Y284886D01*
G74*
D01*
G02X123901Y285471I1420J1421*
G01*
G75*
D01*
G02X124016Y285474I110J-2006*
G01*
X124016Y285474D01*
X146805Y285474D01*
X147981Y286650D01*
X149169Y287838D01*
G74*
D01*
G02X150476Y288424I1422J1421*
G01*
G75*
D01*
G02X150591Y288427I110J-2007*
G01*
X150591Y288427D01*
X157969Y288427D01*
G75*
D01*
G02X158725Y288281I4J-2010*
G01*
G74*
D01*
G02X159396Y287836I753J1864*
G01*
X159396Y287836D01*
X160639Y286593D01*
X163298Y285263D01*
G74*
D01*
G02X164411Y283465I895J1798*
G01*
X164411Y283465D01*
X164411Y275439D01*
X166187Y273663D01*
X190647Y273663D01*
G75*
D01*
G02X196912Y273663I3133J4337*
G01*
X196912Y273663D01*
X228128Y273663D01*
G75*
D01*
G02X233252Y273035I3132J4336*
G01*
X233252Y273035D01*
X234588Y271699D01*
X239843Y267758D01*
X342645Y267758D01*
G75*
D01*
G02X342645Y263738I2826J-2010*
G01*
X342645Y263738D01*
X239173Y263738D01*
X239173Y263738D01*
G75*
D01*
G02X237967Y264140I0J2010*
G01*
X237967Y264140D01*
X233139Y267761D01*
G75*
D01*
G02X226977Y266691I-2824J-2012*
G01*
X226977Y266691D01*
X166187Y266691D01*
X164411Y264916D01*
X164411Y239173D01*
G75*
D01*
G02X163820Y237750I-2009J0*
G01*
X163820Y237750D01*
X161348Y235277D01*
X165480Y235277D01*
G75*
D01*
G02X165480Y231258I2826J-2009*
G01*
X165480Y231258D01*
X164176Y231258D01*
G74*
D01*
G02X164411Y230315I1774J943*
G01*
X164411Y230315D01*
X164411Y230189D01*
G75*
D01*
G02X159064Y228305I-2010J-2826*
G01*
X159064Y228305D01*
X142565Y228305D01*
X140789Y226530D01*
X140789Y223356D01*
X143264Y225831D01*
G75*
D01*
G02X144688Y226419I1421J-1422*
G01*
X144688Y226419D01*
X144811Y226419D01*
G75*
D01*
G02X145130Y222013I2826J-2010*
G01*
X145130Y222013D01*
X143742Y220624D01*
X143742Y213431D01*
X145517Y211655D01*
X152711Y211655D01*
X155075Y214019D01*
G74*
D01*
G02X156381Y214605I1421J1420*
G01*
G75*
D01*
G02X156496Y214608I110J-2007*
G01*
X156496Y214608D01*
X165351Y214608D01*
G75*
D01*
G02X166051Y214484I5J-2010*
G01*
G74*
D01*
G02X166778Y214017I697J1885*
G01*
X166778Y214017D01*
X172092Y208703D01*
X197831Y208703D01*
G75*
D01*
G02X198569Y208564I4J-2010*
G01*
G74*
D01*
G02X199258Y208112I734J1870*
G01*
X199258Y208112D01*
X202206Y205164D01*
G74*
D01*
G02X202797Y203740I1419J1424*
G01*
X202797Y203740D01*
X202797Y203124D01*
G75*
D01*
G02X198954Y199964I202J-4162*
G01*
G75*
D01*
G02X198778Y200787I1833J822*
G01*
X198778Y200787D01*
X198778Y202908D01*
X197002Y204683D01*
X171260Y204683D01*
G75*
D01*
G02X171043Y204695I2J2010*
G01*
G74*
D01*
G02X169839Y205272I217J1997*
G01*
X169839Y205272D01*
X164522Y210589D01*
X157328Y210589D01*
X155442Y208703D01*
X159575Y208703D01*
G75*
D01*
G02X159575Y204683I2826J-2010*
G01*
X159575Y204683D01*
X154376Y204683D01*
X152987Y203295D01*
G75*
D01*
G02X148581Y203614I-2396J-2507*
G01*
X148581Y203614D01*
X148581Y203735D01*
G75*
D01*
G02X149169Y205161I2010J5*
G01*
X149169Y205161D01*
X151644Y207636D01*
X144685Y207636D01*
G75*
D01*
G02X144570Y207639I-5J2010*
G01*
G74*
D01*
G02X143264Y208225I116J2007*
G01*
X143264Y208225D01*
X140789Y210699D01*
X140789Y189809D01*
X142565Y188033D01*
X176780Y188033D01*
G75*
D01*
G02X182128Y186149I3338J942*
G01*
X182128Y186149D01*
X182128Y186024D01*
G75*
D01*
G02X181893Y185081I-2010J0*
G01*
X181893Y185081D01*
X206819Y185081D01*
G75*
D01*
G02X212983Y182128I2827J-2009*
G01*
X212983Y182128D01*
X217671Y182128D01*
X219447Y183903D01*
X219447Y191924D01*
G75*
D01*
G02X220036Y193350I2010J4*
G01*
X220036Y193350D01*
X222988Y196303D01*
G74*
D01*
G02X224295Y196888I1420J1421*
G01*
G75*
D01*
G02X224409Y196892I127J-2005*
G01*
X224409Y196892D01*
X224478Y196892D01*
X224478Y197482D01*
X225353Y197482D01*
X225353Y200439D01*
X224478Y200439D01*
X224478Y202858D01*
G74*
D01*
G02X225353Y202402I1475J3897*
G01*
X225353Y202402D01*
X225353Y203735D01*
G75*
D01*
G02X225941Y205161I2009J6*
G01*
X225941Y205161D01*
X228416Y207636D01*
X217561Y207636D01*
X217561Y200787D01*
G75*
D01*
G02X217128Y199541I-2010J0*
G01*
G75*
D01*
G02X213542Y203094I-4127J-580*
G01*
X213542Y203094D01*
X213542Y217671D01*
X211766Y219447D01*
X154376Y219447D01*
X152987Y218058D01*
G75*
D01*
G02X148581Y218378I-2397J-2505*
G01*
X148581Y218378D01*
X148581Y218499D01*
G75*
D01*
G02X149169Y219925I2010J5*
G01*
X149169Y219925D01*
X152122Y222878D01*
G74*
D01*
G02X153428Y223463I1420J1421*
G01*
G75*
D01*
G02X153543Y223466I110J-2006*
G01*
X153543Y223466D01*
X212595Y223466D01*
G75*
D01*
G02X213333Y223327I4J-2009*
G01*
G74*
D01*
G02X214022Y222875I734J1870*
G01*
X214022Y222875D01*
X216970Y219927D01*
G74*
D01*
G02X217561Y218504I1418J1423*
G01*
X217561Y218504D01*
X217561Y211655D01*
X247337Y211655D01*
G75*
D01*
G02X247043Y212550I1213J894*
G01*
X247043Y212550D01*
X247043Y219450D01*
G75*
D01*
G02X248550Y220957I1507J0*
G01*
X248550Y220957D01*
X255450Y220957D01*
G74*
D01*
G02X256957Y219450I0J1507*
G01*
X256957Y219450D01*
X256957Y212550D01*
G75*
D01*
G02X256663Y211655I-1507J-1*
G01*
X256663Y211655D01*
X283461Y211655D01*
G75*
D01*
G02X284199Y211516I4J-2009*
G01*
G74*
D01*
G02X284888Y211064I734J1869*
G01*
X284888Y211064D01*
X287250Y208703D01*
X294443Y208703D01*
X296219Y210478D01*
X296219Y219975D01*
G75*
D01*
G02X296807Y221401I2009J6*
G01*
X296807Y221401D01*
X298284Y222878D01*
G74*
D01*
G02X299646Y223465I1420J1421*
G01*
G75*
D01*
G02X299705Y223466I64J-2007*
G01*
X299705Y223466D01*
X308560Y223466D01*
G75*
D01*
G02X309315Y223320I3J-2009*
G01*
G74*
D01*
G02X309986Y222875I752J1863*
G01*
X309986Y222875D01*
X311458Y221404D01*
G74*
D01*
G02X312049Y219980I1419J1424*
G01*
X312049Y219980D01*
X312049Y195714D01*
X313825Y193939D01*
X380906Y193939D01*
G74*
D01*
G02X382513Y193135I1J2010*
G01*
G75*
D01*
G02X387094Y188033I527J-4135*
G01*
X387094Y188033D01*
X389761Y188033D01*
G75*
D01*
G02X390498Y187894I3J-2009*
G01*
G74*
D01*
G02X391187Y187442I734J1869*
G01*
X391187Y187442D01*
X394135Y184494D01*
G74*
D01*
G02X394726Y183071I1417J1423*
G01*
X394726Y183071D01*
X394726Y175045D01*
X396502Y173270D01*
X408423Y173270D01*
X408423Y177165D01*
G74*
D01*
G02X408837Y178387I2010J0*
G01*
G75*
D01*
G02X412443Y174864I4124J614*
G01*
X412443Y174864D01*
X412443Y173136D01*
G75*
D01*
G02X408800Y169250I518J-4136*
G01*
X408800Y169250D01*
X395669Y169250D01*
G75*
D01*
G02X395554Y169253I-5J2010*
G01*
G74*
D01*
G02X394248Y169839I116J2007*
G01*
X394248Y169839D01*
X391295Y172792D01*
G75*
D01*
G02X390707Y174218I1422J1421*
G01*
X390707Y174218D01*
X390707Y182238D01*
X388974Y183971D01*
X388974Y183971D01*
X388931Y184014D01*
X383858Y184014D01*
G75*
D01*
G02X383600Y184031I3J2010*
G01*
G74*
D01*
G02X382437Y184603I258J1992*
G01*
X382437Y184603D01*
X382101Y184938D01*
G75*
D01*
G02X378974Y189919I938J4061*
G01*
X378974Y189919D01*
X312992Y189919D01*
G75*
D01*
G02X312877Y189923I12J2010*
G01*
G74*
D01*
G02X311571Y190508I114J2006*
G01*
X311571Y190508D01*
X309096Y192983D01*
X309096Y151423D01*
X310872Y149647D01*
X314046Y149647D01*
X311571Y152122D01*
G75*
D01*
G02X310982Y153548I1420J1421*
G01*
X310982Y153548D01*
X310982Y183197D01*
G75*
D01*
G02X315002Y183197I2010J2826*
G01*
X315002Y183197D01*
X315002Y154376D01*
X316777Y152600D01*
X331353Y152600D01*
X332050Y153297D01*
G75*
D01*
G02X333536Y158506I-1340J3199*
G01*
X333536Y158506D01*
X346946Y158506D01*
G75*
D01*
G02X347701Y158360I3J-2010*
G01*
G74*
D01*
G02X348372Y157915I752J1863*
G01*
X348372Y157915D01*
X349844Y156443D01*
G74*
D01*
G02X350435Y155020I1418J1423*
G01*
X350435Y155020D01*
X350435Y148470D01*
X352210Y146695D01*
X391237Y146695D01*
G75*
D01*
G02X391992Y146549I3J-2010*
G01*
G74*
D01*
G02X392664Y146104I751J1863*
G01*
X392664Y146104D01*
X394135Y144632D01*
G74*
D01*
G02X394726Y143209I1417J1423*
G01*
X394726Y143209D01*
X394726Y107132D01*
X396502Y105356D01*
X410807Y105356D01*
G75*
D01*
G02X417160Y108541I4154J-357*
G01*
X417160Y108541D01*
X414869Y110833D01*
G75*
D01*
G02X414533Y119146I92J4167*
G01*
X414533Y119146D01*
X414918Y119531D01*
G74*
D01*
G02X415928Y120077I1421J1421*
G01*
G75*
D01*
G02X416339Y120120I413J-1966*
G01*
X416339Y120120D01*
X416983Y120120D01*
X417282Y120419D01*
X417282Y121537D01*
G75*
D01*
G02X417282Y128463I-2319J3463*
G01*
X417282Y128463D01*
X417282Y131537D01*
G75*
D01*
G02X411712Y137612I-2325J3459*
G01*
X411712Y137612D01*
X409012Y140311D01*
G75*
D01*
G02X408423Y141735I1420J1421*
G01*
X408423Y141735D01*
X408423Y150585D01*
G75*
D01*
G02X409012Y152012I2010J5*
G01*
X409012Y152012D01*
X411965Y154964D01*
G74*
D01*
G02X413271Y155550I1421J1420*
G01*
G75*
D01*
G02X413386Y155553I110J-2007*
G01*
X413386Y155553D01*
X414439Y155553D01*
X414439Y157522D01*
X416858Y157522D01*
G74*
D01*
G02X415305Y155553I3897J1476*
G01*
X415305Y155553D01*
X415506Y155553D01*
X417282Y157329D01*
X417282Y159444D01*
G75*
D01*
G02X417870Y160870I2009J6*
G01*
X417870Y160870D01*
X420823Y163823D01*
G74*
D01*
G02X422129Y164408I1420J1421*
G01*
G75*
D01*
G02X422244Y164411I110J-2006*
G01*
X422244Y164411D01*
X430270Y164411D01*
X432050Y166191D01*
G74*
D01*
G02X432101Y166525I2004J135*
G01*
G75*
D01*
G02X432101Y169475I3898J1475*
G01*
G75*
D01*
G02X432045Y169949I1953J471*
G01*
X432045Y169949D01*
X432045Y170427D01*
X431445Y171027D01*
X426729Y175744D01*
G75*
D01*
G02X426140Y177170I1420J1421*
G01*
X426140Y177170D01*
X426140Y180244D01*
G75*
D01*
G02X430159Y180244I2010J2826*
G01*
X430159Y180244D01*
X430159Y177998D01*
X431446Y176712D01*
X432687Y175470D01*
G74*
D01*
G02X432102Y176522I3312J2530*
G01*
X432102Y176522D01*
X434522Y176522D01*
X434522Y174102D01*
G74*
D01*
G02X433470Y174687I1478J3897*
G01*
X433470Y174687D01*
X435474Y172683D01*
G74*
D01*
G02X435849Y172166I1418J1423*
G01*
G75*
D01*
G02X435416Y163873I146J-4165*
G01*
X435416Y163873D01*
X432526Y160983D01*
G74*
D01*
G02X431837Y160531I1424J1419*
G01*
G75*
D01*
G02X431099Y160392I-734J1871*
G01*
X431099Y160392D01*
X423077Y160392D01*
X421301Y158616D01*
X421301Y156496D01*
G75*
D01*
G02X420710Y155073I-2010J1*
G01*
X420710Y155073D01*
X417762Y152125D01*
G74*
D01*
G02X417073Y151673I1423J1417*
G01*
G75*
D01*
G02X416335Y151534I-734J1869*
G01*
X416335Y151534D01*
X414218Y151534D01*
X412443Y149758D01*
X412443Y142565D01*
X415961Y139047D01*
G74*
D01*
G02X417282Y138463I999J4046*
G01*
X417282Y138463D01*
X417282Y141347D01*
G75*
D01*
G02X419166Y146695I-942J3338*
G01*
X419166Y146695D01*
X419291Y146695D01*
G74*
D01*
G02X421301Y144685I0J2010*
G01*
X421301Y144685D01*
X421301Y119587D01*
G75*
D01*
G02X420710Y118163I-2010J0*
G01*
X420710Y118163D01*
X419238Y116692D01*
G74*
D01*
G02X418884Y116408I1425J1414*
G01*
G75*
D01*
G02X418533Y112852I-3923J-1408*
G01*
X418533Y112852D01*
X420710Y110675D01*
G74*
D01*
G02X421301Y109252I1418J1423*
G01*
X421301Y109252D01*
X421301Y106684D01*
G75*
D01*
G02X419417Y101337I942J-3337*
G01*
X419417Y101337D01*
X419291Y101337D01*
G75*
D01*
G02X417825Y101972I0J2009*
G01*
G75*
D01*
G02X412971Y101337I-2864J3026*
G01*
X412971Y101337D01*
X395669Y101337D01*
G75*
D01*
G02X395554Y101340I-5J2009*
G01*
G74*
D01*
G02X394248Y101925I114J2006*
G01*
X394248Y101925D01*
X391295Y104878D01*
G75*
D01*
G02X390707Y106304I1422J1421*
G01*
X390707Y106304D01*
X390707Y119164D01*
X388821Y117278D01*
X388821Y116772D01*
G75*
D01*
G02X388821Y116755I-2010J-8*
G01*
G75*
D01*
G02X385102Y119168I-3781J-1756*
G01*
G74*
D01*
G02X385390Y119531I1707J1059*
G01*
X385390Y119531D01*
X387478Y121619D01*
G75*
D01*
G02X382915Y121413I-2439J3380*
G01*
X382915Y121413D01*
X382915Y121063D01*
G75*
D01*
G02X382324Y119640I-2009J0*
G01*
X382324Y119640D01*
X377010Y114325D01*
X377010Y100268D01*
G75*
D01*
G02X372990Y100268I-2010J-2826*
G01*
X372990Y100268D01*
X372990Y115152D01*
G75*
D01*
G02X373579Y116579I2010J5*
G01*
X373579Y116579D01*
X378896Y121895D01*
X378896Y124011D01*
G75*
D01*
G02X379484Y125437I2010J5*
G01*
X379484Y125437D01*
X380469Y126421D01*
G74*
D01*
G02X381261Y126909I1421J1420*
G01*
G74*
D01*
G02X381347Y126935I624J1910*
G01*
G75*
D01*
G02X387754Y128163I3692J-1934*
G01*
X387754Y128163D01*
X387754Y131837D01*
G75*
D01*
G02X381265Y136770I-2716J3161*
G01*
X381265Y136770D01*
X341466Y136770D01*
X343938Y134297D01*
G74*
D01*
G02X344529Y132874I1417J1423*
G01*
X344529Y132874D01*
X344529Y130754D01*
X346305Y128978D01*
X346443Y128978D01*
G74*
D01*
G02X345636Y130345I3557J3021*
G01*
X345636Y130345D01*
X348345Y130345D01*
X348345Y128978D01*
X351655Y128978D01*
X351655Y130345D01*
X354364Y130345D01*
G74*
D01*
G02X353557Y128978I4364J1654*
G01*
X353557Y128978D01*
X369220Y128978D01*
G75*
D01*
G02X369220Y124959I2826J-2009*
G01*
X369220Y124959D01*
X353609Y124959D01*
G75*
D01*
G02X346391Y124959I-3609J-2957*
G01*
X346391Y124959D01*
X345472Y124959D01*
G75*
D01*
G02X345358Y124962I-4J2010*
G01*
G74*
D01*
G02X344051Y125547I114J2007*
G01*
X344051Y125547D01*
X341099Y128500D01*
G75*
D01*
G02X340510Y129926I1420J1421*
G01*
X340510Y129926D01*
X340510Y132042D01*
X338734Y133817D01*
X329232Y133817D01*
G75*
D01*
G02X329173Y133818I5J2010*
G01*
G74*
D01*
G02X327811Y134406I59J2008*
G01*
X327811Y134406D01*
X326335Y135882D01*
G75*
D01*
G02X325746Y137308I1420J1421*
G01*
X325746Y137308D01*
X325746Y137947D01*
X323971Y139723D01*
X302657Y139723D01*
G75*
D01*
G02X302598Y139723I-29J2009*
G01*
G74*
D01*
G02X301236Y140311I59J2008*
G01*
X301236Y140311D01*
X299760Y141788D01*
G75*
D01*
G02X299171Y143214I1420J1421*
G01*
X299171Y143214D01*
X299171Y149758D01*
X297396Y151534D01*
X259199Y151534D01*
X258899Y151234D01*
X258899Y146161D01*
G75*
D01*
G02X258308Y144738I-2009J0*
G01*
X258308Y144738D01*
X256837Y143266D01*
G74*
D01*
G02X256166Y142821I1424J1419*
G01*
G75*
D01*
G02X255410Y142675I-752J1864*
G01*
X255410Y142675D01*
X225242Y142675D01*
X222880Y140314D01*
G74*
D01*
G02X222191Y139862I1423J1417*
G01*
G75*
D01*
G02X221453Y139723I-734J1869*
G01*
X221453Y139723D01*
X215551Y139723D01*
G75*
D01*
G02X215436Y139726I-5J2009*
G01*
G74*
D01*
G02X214130Y140311I114J2006*
G01*
X214130Y140311D01*
X211177Y143264D01*
G75*
D01*
G02X210589Y144690I1421J1420*
G01*
X210589Y144690D01*
X210589Y151234D01*
X210290Y151534D01*
X143209Y151534D01*
G75*
D01*
G02X143149Y151535I3J2009*
G01*
G74*
D01*
G02X141788Y152122I59J2007*
G01*
X141788Y152122D01*
X140311Y153599D01*
G75*
D01*
G02X139723Y155025I1421J1420*
G01*
X139723Y155025D01*
X139723Y171904D01*
X139423Y172203D01*
X129921Y172203D01*
G75*
D01*
G02X129806Y172206I-5J2010*
G01*
G74*
D01*
G02X128500Y172792I116J2007*
G01*
X128500Y172792D01*
X125547Y175744D01*
G75*
D01*
G02X124959Y177170I1421J1420*
G01*
X124959Y177170D01*
X124959Y186149D01*
G75*
D01*
G02X128978Y186149I2010J2826*
G01*
D02*
G37*
G36*
X431102Y193939D02*
G74*
D01*
G02X432526Y193348I0J2010*
G01*
X432526Y193348D01*
X434142Y191732D01*
G75*
D01*
G02X431846Y188344I1858J-3731*
G01*
X431846Y188344D01*
X431447Y188743D01*
X431446Y188744D01*
X430270Y189919D01*
X425200Y189919D01*
G75*
D01*
G02X423776Y190508I-2J2010*
G01*
X423776Y190508D01*
X420823Y193461D01*
G75*
D01*
G02X420234Y194886I1420J1421*
G01*
X420234Y194886D01*
X420234Y268696D01*
G75*
D01*
G02X420823Y270122I2010J4*
G01*
X420823Y270122D01*
X423187Y272486D01*
X423187Y275148D01*
G74*
D01*
G02X420558Y272998I4526J2851*
G01*
X420558Y272998D01*
X420558Y275486D01*
G75*
D01*
G02X416764Y275486I-1897J2513*
G01*
X416764Y275486D01*
X416764Y272998D01*
G74*
D01*
G02X413659Y276103I1897J5002*
G01*
X413659Y276103D01*
X416147Y276103D01*
G75*
D01*
G02X416147Y279897I2513J1897*
G01*
X416147Y279897D01*
X413659Y279897D01*
G74*
D01*
G02X414577Y281455I5001J1897*
G01*
X414577Y281455D01*
X414218Y281455D01*
X411856Y279093D01*
G74*
D01*
G02X410433Y278502I1423J1418*
G01*
X410433Y278502D01*
X386507Y278502D01*
G75*
D01*
G02X384040Y282521I-5325J-502*
G01*
X384040Y282521D01*
X409601Y282521D01*
X411965Y284886D01*
G75*
D01*
G02X413389Y285474I1420J-1421*
G01*
X413389Y285474D01*
X423720Y285474D01*
G74*
D01*
G02X425144Y284883I1J2009*
G01*
X425144Y284883D01*
X426616Y283412D01*
G74*
D01*
G02X427207Y281988I1419J1424*
G01*
X427207Y281988D01*
X427207Y271654D01*
G75*
D01*
G02X426616Y270230I-2010J0*
G01*
X426616Y270230D01*
X424254Y267868D01*
X424254Y195714D01*
X426029Y193939D01*
X431102Y193939D01*
D02*
G37*
G36*
X311550Y278459D02*
G75*
D01*
G02X311550Y278459I-5330J-459*
G01*
D02*
G37*
G36*
X274070Y278459D02*
G75*
D01*
G02X274070Y278459I-5330J-459*
G01*
D02*
G37*
G36*
X349031Y278459D02*
G75*
D01*
G02X349031Y278459I-5330J-459*
G01*
D02*
G37*
G36*
X336957Y212424D02*
G75*
D01*
G02X336957Y212424I1043J-1432*
G01*
D02*
G37*
G36*
X339827Y215053D02*
X339827Y215053D01*
X338000Y213225D01*
X336173Y215053D01*
G75*
D01*
G02X339827Y215053I1827J-4061*
G01*
D02*
G37*
G36*
X339827Y206932D02*
G75*
D01*
G02X336173Y206932I-1827J4060*
G01*
X336173Y206932D01*
X338000Y208759D01*
X339827Y206932D01*
D02*
G37*
G36*
X318063Y158556D02*
G75*
D01*
G02X316556Y160063I0J1507*
G01*
X316556Y160063D01*
X316556Y167937D01*
G75*
D01*
G02X318063Y169444I1507J0*
G01*
X318063Y169444D01*
X325937Y169444D01*
G74*
D01*
G02X327444Y167937I0J1507*
G01*
X327444Y167937D01*
X327444Y160063D01*
G75*
D01*
G02X325937Y158556I-1507J0*
G01*
X325937Y158556D01*
X318063Y158556D01*
D02*
G37*
G36*
X432102Y179478D02*
G74*
D01*
G02X434522Y181898I3897J1477*
G01*
X434522Y181898D01*
X434522Y179478D01*
X432102Y179478D01*
D02*
G37*
G36*
X437478Y181898D02*
G74*
D01*
G02X439898Y179478I1477J3897*
G01*
X439898Y179478D01*
X437478Y179478D01*
X437478Y181898D01*
D02*
G37*
G36*
X439898Y176522D02*
G74*
D01*
G02X437478Y174102I3897J1477*
G01*
X437478Y174102D01*
X437478Y176522D01*
X439898Y176522D01*
D02*
G37*
G36*
X434031Y178000D02*
G75*
D01*
G02X434031Y178000I1969J0*
G01*
D02*
G37*
G36*
X221522Y195063D02*
G74*
D01*
G02X219102Y197482I1477J3898*
G01*
X219102Y197482D01*
X221522Y197482D01*
X221522Y195063D01*
D02*
G37*
G36*
X221031Y198961D02*
G75*
D01*
G02X221031Y198961I1969J0*
G01*
D02*
G37*
G36*
X188831Y198961D02*
G75*
D01*
G02X188831Y198961I4169J0*
G01*
D02*
G37*
G36*
X219102Y200439D02*
G74*
D01*
G02X221522Y202858I3897J1479*
G01*
X221522Y202858D01*
X221522Y200439D01*
X219102Y200439D01*
D02*
G37*
G36*
X178831Y198961D02*
G75*
D01*
G02X178831Y198961I4169J0*
G01*
D02*
G37*
G36*
X168831Y198961D02*
G75*
D01*
G02X168831Y198961I4169J0*
G01*
D02*
G37*
G36*
X158831Y198961D02*
G75*
D01*
G02X158831Y198961I4169J0*
G01*
D02*
G37*
G36*
X128978Y209520D02*
G75*
D01*
G02X123631Y207636I-2010J-2826*
G01*
X123631Y207636D01*
X101226Y207636D01*
X99838Y206247D01*
G75*
D01*
G02X95431Y206567I-2397J-2506*
G01*
X95431Y206567D01*
X95431Y206688D01*
G75*
D01*
G02X96020Y208114I2010J4*
G01*
X96020Y208114D01*
X98973Y211067D01*
G74*
D01*
G02X100279Y211652I1420J1421*
G01*
G75*
D01*
G02X100394Y211655I110J-2006*
G01*
X100394Y211655D01*
X126969Y211655D01*
G74*
D01*
G02X128978Y209646I0J2009*
G01*
X128978Y209646D01*
X128978Y209520D01*
D02*
G37*
G36*
X283339Y124959D02*
G75*
D01*
G02X283339Y128978I-2826J2010*
G01*
X283339Y128978D01*
X310036Y128978D01*
G75*
D01*
G02X310774Y128839I4J-2009*
G01*
G74*
D01*
G02X311463Y128387I734J1870*
G01*
X311463Y128387D01*
X314411Y125439D01*
G74*
D01*
G02X315002Y124016I1418J1423*
G01*
X315002Y124016D01*
X315002Y117984D01*
G75*
D01*
G02X310982Y117984I-2010J-2826*
G01*
X310982Y117984D01*
X310982Y123183D01*
X309207Y124959D01*
X283339Y124959D01*
D02*
G37*
G36*
X348250Y132000D02*
G75*
D01*
G02X348250Y132000I1750J0*
G01*
D02*
G37*
G36*
X345636Y133655D02*
G74*
D01*
G02X348345Y136364I4364J1655*
G01*
X348345Y136364D01*
X348345Y133655D01*
X345636Y133655D01*
D02*
G37*
G36*
X351655Y136364D02*
G74*
D01*
G02X354364Y133655I1655J4364*
G01*
X354364Y133655D01*
X351655Y133655D01*
X351655Y136364D01*
D02*
G37*
G36*
X388937Y103522D02*
G74*
D01*
G02X386518Y101102I3898J1477*
G01*
X386518Y101102D01*
X386518Y103522D01*
X388937Y103522D01*
D02*
G37*
G36*
X381142Y106478D02*
G74*
D01*
G02X383561Y108898I3897J1476*
G01*
X383561Y108898D01*
X383561Y106478D01*
X381142Y106478D01*
D02*
G37*
G36*
X383561Y101102D02*
G74*
D01*
G02X381142Y103522I1479J3897*
G01*
X381142Y103522D01*
X383561Y103522D01*
X383561Y101102D01*
D02*
G37*
G36*
X383071Y105000D02*
G75*
D01*
G02X383071Y105000I1968J0*
G01*
D02*
G37*
G36*
X386518Y108898D02*
G74*
D01*
G02X388937Y106478I1479J3898*
G01*
X388937Y106478D01*
X386518Y106478D01*
X386518Y108898D01*
D02*
G37*
G36*
X333940Y212820D02*
X333940Y212820D01*
X335767Y210992D01*
X333940Y209165D01*
G75*
D01*
G02X333940Y212820I4060J1828*
G01*
D02*
G37*
G36*
X316916Y205928D02*
G74*
D01*
G02X320072Y209084I5084J1928*
G01*
X320072Y209084D01*
X320072Y205928D01*
X316916Y205928D01*
D02*
G37*
G36*
X327084Y202072D02*
G74*
D01*
G02X323928Y198916I5084J1928*
G01*
X323928Y198916D01*
X323928Y202072D01*
X327084Y202072D01*
D02*
G37*
G36*
X320072Y198916D02*
G74*
D01*
G02X316916Y202072I1928J5084*
G01*
X316916Y202072D01*
X320072Y202072D01*
X320072Y198916D01*
D02*
G37*
G36*
X319638Y204000D02*
G75*
D01*
G02X319638Y204000I2362J0*
G01*
D02*
G37*
G36*
X323928Y209084D02*
G74*
D01*
G02X327084Y205928I1928J5084*
G01*
X327084Y205928D01*
X323928Y205928D01*
X323928Y209084D01*
D02*
G37*
G36*
X378995Y177992D02*
X378995Y177992D01*
X370557Y177992D01*
G75*
D01*
G02X370557Y182011I0J2009*
G01*
X370557Y182011D01*
X380157Y182011D01*
G75*
D01*
G02X378995Y177992I2881J-3010*
G01*
D02*
G37*
G36*
X379142Y170478D02*
G74*
D01*
G02X381561Y172898I3897J1476*
G01*
X381561Y172898D01*
X381561Y170478D01*
X379142Y170478D01*
D02*
G37*
G36*
X386937Y167522D02*
G74*
D01*
G02X384518Y165102I3898J1477*
G01*
X384518Y165102D01*
X384518Y167522D01*
X386937Y167522D01*
D02*
G37*
G36*
X381561Y165102D02*
G74*
D01*
G02X379142Y167522I1479J3897*
G01*
X379142Y167522D01*
X381561Y167522D01*
X381561Y165102D01*
D02*
G37*
G36*
X384518Y172898D02*
G74*
D01*
G02X386937Y170478I1479J3898*
G01*
X386937Y170478D01*
X384518Y170478D01*
X384518Y172898D01*
D02*
G37*
G36*
X381071Y169000D02*
G75*
D01*
G02X381071Y169000I1968J0*
G01*
D02*
G37*
G36*
X414439Y162898D02*
G74*
D01*
G02X416858Y160478I1479J3897*
G01*
X416858Y160478D01*
X414439Y160478D01*
X414439Y162898D01*
D02*
G37*
G36*
X409063Y160478D02*
G74*
D01*
G02X411482Y162898I3898J1477*
G01*
X411482Y162898D01*
X411482Y160478D01*
X409063Y160478D01*
D02*
G37*
G36*
X411482Y155102D02*
G74*
D01*
G02X409063Y157522I1479J3898*
G01*
X409063Y157522D01*
X411482Y157522D01*
X411482Y155102D01*
D02*
G37*
G36*
X410992Y159000D02*
G75*
D01*
G02X410992Y159000I1969J0*
G01*
D02*
G37*
G36*
X384518Y162898D02*
G74*
D01*
G02X386937Y160478I1479J3898*
G01*
X386937Y160478D01*
X384518Y160478D01*
X384518Y162898D01*
D02*
G37*
G36*
X386937Y157522D02*
G74*
D01*
G02X384518Y155102I3898J1477*
G01*
X384518Y155102D01*
X384518Y157522D01*
X386937Y157522D01*
D02*
G37*
G36*
X381561Y155102D02*
G74*
D01*
G02X379142Y157522I1479J3897*
G01*
X379142Y157522D01*
X381561Y157522D01*
X381561Y155102D01*
D02*
G37*
G36*
X381071Y159000D02*
G75*
D01*
G02X381071Y159000I1968J0*
G01*
D02*
G37*
G36*
X379142Y160478D02*
G74*
D01*
G02X381561Y162898I3897J1476*
G01*
X381561Y162898D01*
X381561Y160478D01*
X379142Y160478D01*
D02*
G37*
G36*
X106583Y110000D02*
G75*
D01*
G02X106583Y110000I5417J0*
G01*
D02*
G37*
G36*
X408792Y189000D02*
G75*
D01*
G02X408792Y189000I4169J0*
G01*
D02*
G37*
G36*
X342060Y212820D02*
G75*
D01*
G02X342060Y209165I-4060J-1827*
G01*
X342060Y209165D01*
X340233Y210992D01*
X342060Y212820D01*
D02*
G37*
%LPD*%
G36*
X269644Y188851D02*
X269644Y188851D01*
X269644Y196488D01*
G75*
D01*
G02X273663Y194845I3356J2472*
G01*
X273663Y194845D01*
X273663Y188851D01*
G75*
D01*
G02X274838Y184649I-2009J-2827*
G01*
G74*
D01*
G02X275968Y185077I1244J1579*
G01*
G75*
D01*
G02X276083Y185081I127J-2005*
G01*
X276083Y185081D01*
X280638Y185081D01*
G75*
D01*
G02X280638Y181061I2826J-2010*
G01*
X280638Y181061D01*
X276915Y181061D01*
X276218Y180364D01*
G75*
D01*
G02X274732Y175156I1340J-3198*
G01*
X274732Y175156D01*
X231147Y175156D01*
X229372Y173380D01*
X229372Y171092D01*
G74*
D01*
G02X231522Y172937I3628J2052*
G01*
X231522Y172937D01*
X231522Y170518D01*
X229372Y170518D01*
X229372Y167561D01*
X231522Y167561D01*
X231522Y165142D01*
G74*
D01*
G02X229372Y166987I1477J3896*
G01*
X229372Y166987D01*
X229372Y163878D01*
G75*
D01*
G02X228781Y162455I-2010J1*
G01*
X228781Y162455D01*
X227309Y160983D01*
G74*
D01*
G02X226638Y160538I1423J1418*
G01*
G75*
D01*
G02X225883Y160392I-752J1863*
G01*
X225883Y160392D01*
X188976Y160392D01*
G75*
D01*
G02X188861Y160395I-5J2010*
G01*
G74*
D01*
G02X187555Y160981I116J2007*
G01*
X187555Y160981D01*
X185191Y163345D01*
X183071Y163345D01*
G75*
D01*
G02X182333Y163485I-1J2009*
G01*
G74*
D01*
G02X181650Y163933I737J1869*
G01*
X181650Y163933D01*
X181579Y164004D01*
G74*
D01*
G02X180991Y165387I1421J1421*
G01*
G75*
D01*
G02X186754Y167227I2009J3652*
G01*
X186758Y167225D01*
G74*
D01*
G02X187447Y166773I734J1870*
G01*
X187447Y166773D01*
X189809Y164411D01*
X225053Y164411D01*
X225353Y164710D01*
X225353Y165598D01*
G75*
D01*
G02X222400Y173164I-2351J3442*
G01*
X222400Y173164D01*
X222400Y175156D01*
X172092Y175156D01*
X167032Y170096D01*
G75*
D01*
G02X164246Y173017I-4032J-1056*
G01*
G74*
D01*
G02X164297Y173045I992J1746*
G01*
X164297Y173045D01*
X169839Y178586D01*
G74*
D01*
G02X171043Y179163I1421J1420*
G01*
G75*
D01*
G02X171260Y179175I219J-1997*
G01*
X171260Y179175D01*
X207871Y179175D01*
G75*
D01*
G02X207636Y180118I1774J943*
G01*
X207636Y180118D01*
X207636Y180244D01*
G74*
D01*
G02X206819Y181061I2009J2826*
G01*
X206819Y181061D01*
X146460Y181061D01*
G74*
D01*
G02X146695Y180118I1774J943*
G01*
X146695Y180118D01*
X146695Y179992D01*
G75*
D01*
G02X146695Y174338I-2009J-2827*
G01*
X146695Y174338D01*
X146695Y160281D01*
X147981Y158995D01*
X148470Y158506D01*
X302654Y158506D01*
G75*
D01*
G02X303410Y158360I4J-2010*
G01*
G74*
D01*
G02X304081Y157915I753J1864*
G01*
X304081Y157915D01*
X305077Y156919D01*
X305077Y211060D01*
G75*
D01*
G02X300238Y213977I-321J4940*
G01*
X300238Y213977D01*
X300238Y209646D01*
G75*
D01*
G02X299647Y208222I-2010J0*
G01*
X299647Y208222D01*
X297137Y205713D01*
G74*
D01*
G02X297504Y205604I386J1973*
G01*
G74*
D01*
G02X298175Y205159I752J1863*
G01*
X298175Y205159D01*
X299647Y203687D01*
G74*
D01*
G02X300238Y202264I1418J1423*
G01*
X300238Y202264D01*
X300238Y201172D01*
G75*
D01*
G02X298354Y195825I941J-3337*
G01*
X298354Y195825D01*
X298228Y195825D01*
G75*
D01*
G02X296535Y196752I0J2010*
G01*
G75*
D01*
G02X289885Y201730I-3534J2210*
G01*
X289885Y201730D01*
X286115Y201730D01*
G75*
D01*
G02X279956Y201809I-3116J-2767*
G01*
G74*
D01*
G02X279091Y202319I555J1931*
G01*
X279091Y202319D01*
X276727Y204683D01*
X272486Y204683D01*
X267171Y199369D01*
G74*
D01*
G02X267150Y199348I1430J1409*
G01*
G75*
D01*
G02X264649Y202789I-4150J-387*
G01*
G75*
D01*
G02X264827Y202797I179J-2001*
G01*
X264827Y202797D01*
X264916Y202797D01*
X269755Y207636D01*
X246978Y207636D01*
X249450Y205164D01*
G74*
D01*
G02X250041Y203740I1419J1424*
G01*
X250041Y203740D01*
X250041Y201897D01*
G75*
D01*
G02X250041Y196024I2958J-2936*
G01*
X250041Y196024D01*
X250041Y183903D01*
X251817Y182128D01*
X272297Y182128D01*
X272995Y182825D01*
G75*
D01*
G02X269644Y188851I-1347J3196*
G01*
D02*
G37*
%LPC*%
G36*
X242469Y173174D02*
G75*
D01*
G02X242469Y173174I531J-4135*
G01*
D02*
G37*
G36*
X288831Y169039D02*
G75*
D01*
G02X288831Y169039I4169J0*
G01*
D02*
G37*
G36*
X278831Y169039D02*
G75*
D01*
G02X278831Y169039I4169J0*
G01*
D02*
G37*
G36*
X268831Y169039D02*
G75*
D01*
G02X268831Y169039I4169J0*
G01*
D02*
G37*
G36*
X258831Y169039D02*
G75*
D01*
G02X258831Y169039I4169J0*
G01*
D02*
G37*
G36*
X248831Y169039D02*
G75*
D01*
G02X248831Y169039I4169J0*
G01*
D02*
G37*
G36*
X188831Y169039D02*
G75*
D01*
G02X188831Y169039I4169J0*
G01*
D02*
G37*
G36*
X231031Y169039D02*
G75*
D01*
G02X231031Y169039I1969J0*
G01*
D02*
G37*
G36*
X168831Y169039D02*
G75*
D01*
G02X168831Y169039I4169J0*
G01*
D02*
G37*
G36*
X236898Y167561D02*
G74*
D01*
G02X234478Y165142I3897J1479*
G01*
X234478Y165142D01*
X234478Y167561D01*
X236898Y167561D01*
D02*
G37*
G36*
X234478Y172937D02*
G74*
D01*
G02X236898Y170518I1477J3898*
G01*
X236898Y170518D01*
X234478Y170518D01*
X234478Y172937D01*
D02*
G37*
G36*
X208831Y169039D02*
G75*
D01*
G02X208831Y169039I4169J0*
G01*
D02*
G37*
G36*
X198831Y169039D02*
G75*
D01*
G02X198831Y169039I4169J0*
G01*
D02*
G37*
%LPD*%
G36*
X255469Y153488D02*
X255469Y153488D01*
X256467Y154486D01*
X213021Y154486D01*
X214017Y153490D01*
G74*
D01*
G02X214608Y152067I1418J1423*
G01*
X214608Y152067D01*
X214608Y145517D01*
X216384Y143742D01*
X220624Y143742D01*
X222510Y145628D01*
X221331Y145628D01*
G75*
D01*
G02X221331Y149647I-2826J2010*
G01*
X221331Y149647D01*
X228849Y149647D01*
G75*
D01*
G02X235086Y146695I3984J352*
G01*
X235086Y146695D01*
X249747Y146695D01*
G75*
D01*
G02X254974Y152675I2259J3300*
G01*
G74*
D01*
G02X255469Y153488I1915J609*
G01*
D02*
G37*
G36*
X246022Y183076D02*
X246022Y183076D01*
X246022Y196089D01*
G74*
D01*
G02X244952Y195277I3022J2872*
G01*
G74*
D01*
G02X244419Y194332I1951J478*
G01*
X244419Y194332D01*
X244136Y194049D01*
X244136Y191929D01*
G75*
D01*
G02X243545Y190506I-2010J1*
G01*
X243545Y190506D01*
X242469Y189430D01*
X240597Y187558D01*
G74*
D01*
G02X239908Y187106I1423J1418*
G01*
G75*
D01*
G02X239170Y186967I-734J1870*
G01*
X239170Y186967D01*
X228195Y186967D01*
X226419Y185191D01*
X226419Y176112D01*
X228894Y178586D01*
G74*
D01*
G02X230200Y179172I1421J1420*
G01*
G75*
D01*
G02X230315Y179175I110J-2007*
G01*
X230315Y179175D01*
X249085Y179175D01*
X246610Y181650D01*
G75*
D01*
G02X246022Y183076I1421J1420*
G01*
D02*
G37*
G36*
X246022Y201832D02*
X246022Y201832D01*
X246022Y202908D01*
X244246Y204683D01*
X231147Y204683D01*
X229372Y202908D01*
X229372Y201013D01*
G74*
D01*
G02X231522Y202858I3628J2052*
G01*
X231522Y202858D01*
X231522Y200439D01*
X229372Y200439D01*
X229372Y197482D01*
X231522Y197482D01*
X231522Y195063D01*
G74*
D01*
G02X229372Y196908I1478J3897*
G01*
X229372Y196908D01*
X229372Y196358D01*
G75*
D01*
G02X228781Y194935I-2010J1*
G01*
X228781Y194935D01*
X227309Y193463D01*
G74*
D01*
G02X226638Y193018I1423J1418*
G01*
G75*
D01*
G02X225883Y192872I-752J1863*
G01*
X225883Y192872D01*
X225242Y192872D01*
X223466Y191097D01*
X223466Y187923D01*
X225941Y190397D01*
G74*
D01*
G02X227247Y190983I1421J1420*
G01*
G75*
D01*
G02X227362Y190986I110J-2007*
G01*
X227362Y190986D01*
X238341Y190986D01*
X240116Y192762D01*
X240116Y194878D01*
G75*
D01*
G02X240322Y195767I2010J3*
G01*
G75*
D01*
G02X246022Y201832I2681J3191*
G01*
D02*
G37*
%LPC*%
G36*
X231031Y198961D02*
G75*
D01*
G02X231031Y198961I1969J0*
G01*
D02*
G37*
G36*
X236898Y197482D02*
G74*
D01*
G02X234478Y195063I3898J1479*
G01*
X234478Y195063D01*
X234478Y197482D01*
X236898Y197482D01*
D02*
G37*
G36*
X234478Y202858D02*
G74*
D01*
G02X236898Y200439I1476J3897*
G01*
X236898Y200439D01*
X234478Y200439D01*
X234478Y202858D01*
D02*
G37*
%LPD*%
G36*
X332718Y143209D02*
X332718Y143209D01*
X332718Y142565D01*
X334494Y140789D01*
X345050Y140789D01*
X344051Y141788D01*
G75*
D01*
G02X343463Y143214I1421J1420*
G01*
X343463Y143214D01*
X343463Y149758D01*
X341687Y151534D01*
X340709Y151534D01*
G75*
D01*
G02X334188Y145698I-2713J-3530*
G01*
G74*
D01*
G02X333883Y145640I527J1940*
G01*
G75*
D01*
G02X333660Y145628I-219J1998*
G01*
X333660Y145628D01*
X331131Y145628D01*
X332127Y144632D01*
G74*
D01*
G02X332718Y143209I1417J1423*
G01*
D02*
G37*
G36*
X153440Y282521D02*
G75*
D01*
G02X160392Y281445I2860J-4520*
G01*
X160392Y281445D01*
X160392Y282223D01*
X158550Y283143D01*
G74*
D01*
G02X158027Y283521I901J1797*
G01*
X158027Y283521D01*
X157140Y284408D01*
X151423Y284408D01*
X149537Y282521D01*
X153440Y282521D01*
D02*
G37*
G36*
X123663Y280270D02*
G75*
D01*
G02X123554Y275510I-4843J-2270*
G01*
X123554Y275510D01*
X124071Y276027D01*
G74*
D01*
G02X124959Y276544I1421J1420*
G01*
X124959Y276544D01*
X124959Y277554D01*
G75*
D01*
G02X125547Y278980I2009J6*
G01*
X125547Y278980D01*
X128022Y281455D01*
X124848Y281455D01*
X123663Y280270D01*
D02*
G37*
G36*
X329175Y140203D02*
X329175Y140203D01*
X326702Y142675D01*
X328400Y142675D01*
X328699Y142376D01*
X328699Y141737D01*
G75*
D01*
G03X329288Y140311I2010J-4*
G01*
X329288Y140311D01*
X331762Y137836D01*
X330065Y137836D01*
X329766Y138136D01*
X329766Y138780D01*
G74*
D01*
G03X329175Y140203I2010J1*
G01*
D02*
G37*
G36*
X279458Y207636D02*
X279458Y207636D01*
X282632Y207636D01*
X284518Y205750D01*
X281344Y205750D01*
X279458Y207636D01*
D02*
G37*
G36*
X421176Y279897D02*
X421176Y279897D01*
X423187Y279897D01*
X423187Y276103D01*
X421176Y276103D01*
G75*
D01*
G03X421176Y279897I-2515J1897*
G01*
D02*
G37*
G36*
X390707Y142376D02*
X390707Y142376D01*
X390408Y142675D01*
X388710Y142675D01*
X390707Y140679D01*
X390707Y142376D01*
D02*
G37*
G36*
X302124Y154187D02*
X302124Y154187D01*
X302124Y152490D01*
X300127Y154486D01*
X301825Y154486D01*
X302124Y154187D01*
D02*
G37*
G36*
X344419Y154486D02*
X344419Y154486D01*
X346416Y152490D01*
X346416Y154187D01*
X346116Y154486D01*
X344419Y154486D01*
D02*
G37*
G36*
X222400Y179175D02*
X222400Y179175D01*
X222400Y181172D01*
X220403Y179175D01*
X222400Y179175D01*
D02*
G37*
G36*
X144041Y155553D02*
X144041Y155553D01*
X143742Y155852D01*
X143742Y157550D01*
X145739Y155553D01*
X144041Y155553D01*
D02*
G37*
G36*
X137836Y187077D02*
X137836Y187077D01*
X139833Y185081D01*
X138136Y185081D01*
X137836Y185380D01*
X137836Y187077D01*
D02*
G37*
G36*
X138136Y231258D02*
X138136Y231258D01*
X139833Y231258D01*
X137836Y229261D01*
X137836Y230959D01*
X138136Y231258D01*
D02*
G37*
G36*
X306443Y146695D02*
X306443Y146695D01*
X306144Y146994D01*
X306144Y148692D01*
X308140Y146695D01*
X306443Y146695D01*
D02*
G37*
G36*
X347781Y143742D02*
X347781Y143742D01*
X349479Y143742D01*
X347482Y145739D01*
X347482Y144041D01*
X347781Y143742D01*
D02*
G37*
G36*
X420558Y280514D02*
G75*
D01*
G03X416764Y280514I-1897J-2513*
G01*
X416764Y280514D01*
X416764Y281455D01*
X420558Y281455D01*
X420558Y280514D01*
D02*
G37*
G36*
X386599Y138866D02*
G74*
D01*
G02X387049Y138652I1562J3864*
G01*
X387049Y138652D01*
X385979Y139723D01*
X385757Y139723D01*
X386458Y139022D01*
G74*
D01*
G02X386599Y138866I1419J1424*
G01*
D02*
G37*
G36*
X300238Y218023D02*
X300238Y218023D01*
X300238Y219148D01*
X300537Y219447D01*
X301203Y219447D01*
G74*
D01*
G03X300238Y218023I3553J3447*
G01*
D02*
G37*
G36*
X254880Y147224D02*
X254880Y147224D01*
X254880Y146994D01*
X254581Y146695D01*
X254253Y146695D01*
G74*
D01*
G03X254880Y147224I2252J3305*
G01*
D02*
G37*
G36*
X303191Y144262D02*
X303191Y144262D01*
X303711Y143742D01*
X303490Y143742D01*
X303191Y144041D01*
X303191Y144262D01*
D02*
G37*
G36*
X135183Y182128D02*
X135183Y182128D01*
X134884Y182427D01*
X134884Y182648D01*
X135404Y182128D01*
X135183Y182128D01*
D02*
G37*
G36*
X134884Y233690D02*
X134884Y233690D01*
X134884Y233912D01*
X135183Y234211D01*
X135404Y234211D01*
X134884Y233690D01*
D02*
G37*
G36*
X422746Y281455D02*
G74*
D01*
G02X423187Y280852I4087J3452*
G01*
X423187Y280852D01*
X423187Y281156D01*
X422888Y281455D01*
X422746Y281455D01*
D02*
G37*
G54D11*
X128978Y186149D02*
X128978Y177998D01*
X130754Y176222D01*
X140253Y176222D01*
G75*
D01*
G02X141008Y176076I3J-2009*
G01*
G74*
D01*
G02X141501Y175790I751J1863*
G01*
G75*
D01*
G02X141347Y178108I3184J1376*
G01*
X134350Y178108D01*
G75*
D01*
G02X134291Y178109I5J2010*
G01*
G74*
D01*
G02X132929Y178697I59J2008*
G01*
X131453Y180173D01*
G75*
D01*
G02X130864Y181600I1420J1421*
G01*
X130864Y234740D01*
G75*
D01*
G02X131453Y236165I2010J3*
G01*
X132929Y237642D01*
G75*
D01*
G02X134354Y238230I1421J-1422*
G01*
X158616Y238230D01*
X160392Y240006D01*
X160392Y265744D01*
G75*
D01*
G02X160981Y267169I2010J3*
G01*
X163933Y270122D01*
G74*
D01*
G02X163991Y270177I1411J1430*
G01*
G74*
D01*
G02X163933Y270232I1353J1485*
G01*
X160981Y273185D01*
G74*
D01*
G02X160393Y274556I1420J1421*
G01*
G75*
D01*
G02X150973Y278502I-4095J3442*
G01*
X130754Y278502D01*
X128978Y276727D01*
X128978Y274606D01*
G75*
D01*
G02X126969Y272597I-2009J0*
G01*
X126325Y272597D01*
X125439Y271711D01*
G74*
D01*
G02X125434Y271707I1258J1567*
G01*
X123963Y270235D01*
G74*
D01*
G02X123292Y269790I1424J1419*
G01*
G75*
D01*
G02X122536Y269644I-752J1864*
G01*
X93545Y269644D01*
X93545Y198667D01*
X95321Y196892D01*
X106296Y196892D01*
G75*
D01*
G02X107034Y196753I4J-2010*
G01*
G74*
D01*
G02X107723Y196301I735J1871*
G01*
X110671Y193353D01*
G74*
D01*
G02X111262Y191929I1419J1424*
G01*
X111262Y139612D01*
X113037Y137836D01*
X118107Y137836D01*
G75*
D01*
G02X118845Y137697I4J-2009*
G01*
G74*
D01*
G02X119534Y137245I734J1870*
G01*
X122482Y134297D01*
G74*
D01*
G02X123073Y132874I1418J1423*
G01*
X123073Y125310D01*
G75*
D01*
G02X119053Y124545I-1072J-5310*
G01*
X119053Y132042D01*
X117278Y133817D01*
X115844Y133817D01*
G75*
D01*
G02X110112Y135077I-3844J-3817*
G01*
X107831Y137358D01*
G75*
D01*
G02X107242Y138785I1421J1422*
G01*
X107242Y191097D01*
X105467Y192872D01*
X94488Y192872D01*
G75*
D01*
G02X94373Y192876I12J2010*
G01*
G74*
D01*
G02X93067Y193461I114J2006*
G01*
X90114Y196414D01*
G75*
D01*
G02X89526Y197840I1421J1420*
G01*
X89526Y269644D01*
X85630Y269644D01*
G75*
D01*
G02X85204Y269690I2J2010*
G01*
G74*
D01*
G02X84209Y270232I425J1964*
G01*
X81773Y272668D01*
G75*
D01*
G02X85494Y274631I-434J5331*
G01*
X86462Y273663D01*
X115687Y273663D01*
G75*
D01*
G02X120712Y283003I3129J4338*
G01*
X122595Y284886D01*
G74*
D01*
G02X123901Y285471I1420J1421*
G01*
G75*
D01*
G02X124016Y285474I110J-2006*
G01*
X146805Y285474D01*
X147981Y286650D01*
X149169Y287838D01*
G74*
D01*
G02X150476Y288424I1422J1421*
G01*
G75*
D01*
G02X150591Y288427I110J-2007*
G01*
X157969Y288427D01*
G75*
D01*
G02X158725Y288281I4J-2010*
G01*
G74*
D01*
G02X159396Y287836I753J1864*
G01*
X160639Y286593D01*
X163298Y285263D01*
G74*
D01*
G02X164411Y283465I895J1798*
G01*
X164411Y275439D01*
X166187Y273663D01*
X190647Y273663D01*
G75*
D01*
G02X196912Y273663I3133J4337*
G01*
X228128Y273663D01*
G75*
D01*
G02X233252Y273035I3132J4336*
G01*
X234588Y271699D01*
X239843Y267758D01*
X342645Y267758D01*
G75*
D01*
G02X342645Y263738I2826J-2010*
G01*
X239173Y263738D01*
G75*
D01*
G02X237967Y264140I0J2010*
G01*
X233139Y267761D01*
G75*
D01*
G02X226977Y266691I-2824J-2012*
G01*
X166187Y266691D01*
X164411Y264916D01*
X164411Y239173D01*
G75*
D01*
G02X163820Y237750I-2009J0*
G01*
X161348Y235277D01*
X165480Y235277D01*
G75*
D01*
G02X165480Y231258I2826J-2009*
G01*
X164176Y231258D01*
G74*
D01*
G02X164411Y230315I1774J943*
G01*
X164411Y230189D01*
G75*
D01*
G02X159064Y228305I-2010J-2826*
G01*
X142565Y228305D01*
X140789Y226530D01*
X140789Y223356D01*
X143264Y225831D01*
G75*
D01*
G02X144688Y226419I1421J-1422*
G01*
X144811Y226419D01*
G75*
D01*
G02X145130Y222013I2826J-2010*
G01*
X143742Y220624D01*
X143742Y213431D01*
X145517Y211655D01*
X152711Y211655D01*
X155075Y214019D01*
G74*
D01*
G02X156381Y214605I1421J1420*
G01*
G75*
D01*
G02X156496Y214608I110J-2007*
G01*
X165351Y214608D01*
G75*
D01*
G02X166051Y214484I5J-2010*
G01*
G74*
D01*
G02X166778Y214017I697J1885*
G01*
X172092Y208703D01*
X197831Y208703D01*
G75*
D01*
G02X198569Y208564I4J-2010*
G01*
G74*
D01*
G02X199258Y208112I734J1870*
G01*
X202206Y205164D01*
G74*
D01*
G02X202797Y203740I1419J1424*
G01*
X202797Y203124D01*
G75*
D01*
G02X198954Y199964I202J-4162*
G01*
G75*
D01*
G02X198778Y200787I1833J822*
G01*
X198778Y202908D01*
X197002Y204683D01*
X171260Y204683D01*
G75*
D01*
G02X171043Y204695I2J2010*
G01*
G74*
D01*
G02X169839Y205272I217J1997*
G01*
X164522Y210589D01*
X157328Y210589D01*
X155442Y208703D01*
X159575Y208703D01*
G75*
D01*
G02X159575Y204683I2826J-2010*
G01*
X154376Y204683D01*
X152987Y203295D01*
G75*
D01*
G02X148581Y203614I-2396J-2507*
G01*
X148581Y203735D01*
G75*
D01*
G02X149169Y205161I2010J5*
G01*
X151644Y207636D01*
X144685Y207636D01*
G75*
D01*
G02X144570Y207639I-5J2010*
G01*
G74*
D01*
G02X143264Y208225I116J2007*
G01*
X140789Y210699D01*
X140789Y189809D01*
X142565Y188033D01*
X176780Y188033D01*
G75*
D01*
G02X182128Y186149I3338J942*
G01*
X182128Y186024D01*
G75*
D01*
G02X181893Y185081I-2010J0*
G01*
X206819Y185081D01*
G75*
D01*
G02X212983Y182128I2827J-2009*
G01*
X217671Y182128D01*
X219447Y183903D01*
X219447Y191924D01*
G75*
D01*
G02X220036Y193350I2010J4*
G01*
X222988Y196303D01*
G74*
D01*
G02X224295Y196888I1420J1421*
G01*
G75*
D01*
G02X224409Y196892I127J-2005*
G01*
X224478Y196892D01*
X224478Y197482D01*
X225353Y197482D01*
X225353Y200439D01*
X224478Y200439D01*
X224478Y202858D01*
G74*
D01*
G02X225353Y202402I1475J3897*
G01*
X225353Y203735D01*
G75*
D01*
G02X225941Y205161I2009J6*
G01*
X228416Y207636D01*
X217561Y207636D01*
X217561Y200787D01*
G75*
D01*
G02X217128Y199541I-2010J0*
G01*
G75*
D01*
G02X213542Y203094I-4127J-580*
G01*
X213542Y217671D01*
X211766Y219447D01*
X154376Y219447D01*
X152987Y218058D01*
G75*
D01*
G02X148581Y218378I-2397J-2505*
G01*
X148581Y218499D01*
G75*
D01*
G02X149169Y219925I2010J5*
G01*
X152122Y222878D01*
G74*
D01*
G02X153428Y223463I1420J1421*
G01*
G75*
D01*
G02X153543Y223466I110J-2006*
G01*
X212595Y223466D01*
G75*
D01*
G02X213333Y223327I4J-2009*
G01*
G74*
D01*
G02X214022Y222875I734J1870*
G01*
X216970Y219927D01*
G74*
D01*
G02X217561Y218504I1418J1423*
G01*
X217561Y211655D01*
X247337Y211655D01*
G75*
D01*
G02X247043Y212550I1213J894*
G01*
X247043Y219450D01*
G75*
D01*
G02X248550Y220957I1507J0*
G01*
X255450Y220957D01*
G74*
D01*
G02X256957Y219450I0J1507*
G01*
X256957Y212550D01*
G75*
D01*
G02X256663Y211655I-1507J-1*
G01*
X283461Y211655D01*
G75*
D01*
G02X284199Y211516I4J-2009*
G01*
G74*
D01*
G02X284888Y211064I734J1869*
G01*
X287250Y208703D01*
X294443Y208703D01*
X296219Y210478D01*
X296219Y219975D01*
G75*
D01*
G02X296807Y221401I2009J6*
G01*
X298284Y222878D01*
G74*
D01*
G02X299646Y223465I1420J1421*
G01*
G75*
D01*
G02X299705Y223466I64J-2007*
G01*
X308560Y223466D01*
G75*
D01*
G02X309315Y223320I3J-2009*
G01*
G74*
D01*
G02X309986Y222875I752J1863*
G01*
X311458Y221404D01*
G74*
D01*
G02X312049Y219980I1419J1424*
G01*
X312049Y195714D01*
X313825Y193939D01*
X380906Y193939D01*
G74*
D01*
G02X382513Y193135I1J2010*
G01*
G75*
D01*
G02X387094Y188033I527J-4135*
G01*
X389761Y188033D01*
G75*
D01*
G02X390498Y187894I3J-2009*
G01*
G74*
D01*
G02X391187Y187442I734J1869*
G01*
X394135Y184494D01*
G74*
D01*
G02X394726Y183071I1417J1423*
G01*
X394726Y175045D01*
X396502Y173270D01*
X408423Y173270D01*
X408423Y177165D01*
G74*
D01*
G02X408837Y178387I2010J0*
G01*
G75*
D01*
G02X412443Y174864I4124J614*
G01*
X412443Y173136D01*
G75*
D01*
G02X408800Y169250I518J-4136*
G01*
X395669Y169250D01*
G75*
D01*
G02X395554Y169253I-5J2010*
G01*
G74*
D01*
G02X394248Y169839I116J2007*
G01*
X391295Y172792D01*
G75*
D01*
G02X390707Y174218I1422J1421*
G01*
X390707Y182238D01*
X388974Y183971D01*
X388974Y183971D01*
X388931Y184014D01*
X383858Y184014D01*
G75*
D01*
G02X383600Y184031I3J2010*
G01*
G74*
D01*
G02X382437Y184603I258J1992*
G01*
X382101Y184938D01*
G75*
D01*
G02X378974Y189919I938J4061*
G01*
X312992Y189919D01*
G75*
D01*
G02X312877Y189923I12J2010*
G01*
G74*
D01*
G02X311571Y190508I114J2006*
G01*
X309096Y192983D01*
X309096Y151423D01*
X310872Y149647D01*
X314046Y149647D01*
X311571Y152122D01*
G75*
D01*
G02X310982Y153548I1420J1421*
G01*
X310982Y183197D01*
G75*
D01*
G02X315002Y183197I2010J2826*
G01*
X315002Y154376D01*
X316777Y152600D01*
X331353Y152600D01*
X332050Y153297D01*
G75*
D01*
G02X333536Y158506I-1340J3199*
G01*
X346946Y158506D01*
G75*
D01*
G02X347701Y158360I3J-2010*
G01*
G74*
D01*
G02X348372Y157915I752J1863*
G01*
X349844Y156443D01*
G74*
D01*
G02X350435Y155020I1418J1423*
G01*
X350435Y148470D01*
X352210Y146695D01*
X391237Y146695D01*
G75*
D01*
G02X391992Y146549I3J-2010*
G01*
G74*
D01*
G02X392664Y146104I751J1863*
G01*
X394135Y144632D01*
G74*
D01*
G02X394726Y143209I1417J1423*
G01*
X394726Y107132D01*
X396502Y105356D01*
X410807Y105356D01*
G75*
D01*
G02X417160Y108541I4154J-357*
G01*
X414869Y110833D01*
G75*
D01*
G02X414533Y119146I92J4167*
G01*
X414918Y119531D01*
G74*
D01*
G02X415928Y120077I1421J1421*
G01*
G75*
D01*
G02X416339Y120120I413J-1966*
G01*
X416983Y120120D01*
X417282Y120419D01*
X417282Y121537D01*
G75*
D01*
G02X417282Y128463I-2319J3463*
G01*
X417282Y131537D01*
G75*
D01*
G02X411712Y137612I-2325J3459*
G01*
X409012Y140311D01*
G75*
D01*
G02X408423Y141735I1420J1421*
G01*
X408423Y150585D01*
G75*
D01*
G02X409012Y152012I2010J5*
G01*
X411965Y154964D01*
G74*
D01*
G02X413271Y155550I1421J1420*
G01*
G75*
D01*
G02X413386Y155553I110J-2007*
G01*
X414439Y155553D01*
X414439Y157522D01*
X416858Y157522D01*
G74*
D01*
G02X415305Y155553I3897J1476*
G01*
X415506Y155553D01*
X417282Y157329D01*
X417282Y159444D01*
G75*
D01*
G02X417870Y160870I2009J6*
G01*
X420823Y163823D01*
G74*
D01*
G02X422129Y164408I1420J1421*
G01*
G75*
D01*
G02X422244Y164411I110J-2006*
G01*
X430270Y164411D01*
X432050Y166191D01*
G74*
D01*
G02X432101Y166525I2004J135*
G01*
G75*
D01*
G02X432101Y169475I3898J1475*
G01*
G75*
D01*
G02X432045Y169949I1953J471*
G01*
X432045Y170427D01*
X431445Y171027D01*
X426729Y175744D01*
G75*
D01*
G02X426140Y177170I1420J1421*
G01*
X426140Y180244D01*
G75*
D01*
G02X430159Y180244I2010J2826*
G01*
X430159Y177998D01*
X431446Y176712D01*
X432687Y175470D01*
G74*
D01*
G02X432102Y176522I3312J2530*
G01*
X434522Y176522D01*
X434522Y174102D01*
G74*
D01*
G02X433470Y174687I1478J3897*
G01*
X435474Y172683D01*
G74*
D01*
G02X435849Y172166I1418J1423*
G01*
G75*
D01*
G02X435416Y163873I146J-4165*
G01*
X432526Y160983D01*
G74*
D01*
G02X431837Y160531I1424J1419*
G01*
G75*
D01*
G02X431099Y160392I-734J1871*
G01*
X423077Y160392D01*
X421301Y158616D01*
X421301Y156496D01*
G75*
D01*
G02X420710Y155073I-2010J1*
G01*
X417762Y152125D01*
G74*
D01*
G02X417073Y151673I1423J1417*
G01*
G75*
D01*
G02X416335Y151534I-734J1869*
G01*
X414218Y151534D01*
X412443Y149758D01*
X412443Y142565D01*
X415961Y139047D01*
G74*
D01*
G02X417282Y138463I999J4046*
G01*
X417282Y141347D01*
G75*
D01*
G02X419166Y146695I-942J3338*
G01*
X419291Y146695D01*
G74*
D01*
G02X421301Y144685I0J2010*
G01*
X421301Y119587D01*
G75*
D01*
G02X420710Y118163I-2010J0*
G01*
X419238Y116692D01*
G74*
D01*
G02X418884Y116408I1425J1414*
G01*
G75*
D01*
G02X418533Y112852I-3923J-1408*
G01*
X420710Y110675D01*
G74*
D01*
G02X421301Y109252I1418J1423*
G01*
X421301Y106684D01*
G75*
D01*
G02X419417Y101337I942J-3337*
G01*
X419291Y101337D01*
G75*
D01*
G02X417825Y101972I0J2009*
G01*
G75*
D01*
G02X412971Y101337I-2864J3026*
G01*
X395669Y101337D01*
G75*
D01*
G02X395554Y101340I-5J2009*
G01*
G74*
D01*
G02X394248Y101925I114J2006*
G01*
X391295Y104878D01*
G75*
D01*
G02X390707Y106304I1422J1421*
G01*
X390707Y119164D01*
X388821Y117278D01*
X388821Y116772D01*
G75*
D01*
G02X388821Y116755I-2010J-8*
G01*
G75*
D01*
G02X385102Y119168I-3781J-1756*
G01*
G74*
D01*
G02X385390Y119531I1707J1059*
G01*
X387478Y121619D01*
G75*
D01*
G02X382915Y121413I-2439J3380*
G01*
X382915Y121063D01*
G75*
D01*
G02X382324Y119640I-2009J0*
G01*
X377010Y114325D01*
X377010Y100268D01*
G75*
D01*
G02X372990Y100268I-2010J-2826*
G01*
X372990Y115152D01*
G75*
D01*
G02X373579Y116579I2010J5*
G01*
X378896Y121895D01*
X378896Y124011D01*
G75*
D01*
G02X379484Y125437I2010J5*
G01*
X380469Y126421D01*
G74*
D01*
G02X381261Y126909I1421J1420*
G01*
G74*
D01*
G02X381347Y126935I624J1910*
G01*
G75*
D01*
G02X387754Y128163I3692J-1934*
G01*
X387754Y131837D01*
G75*
D01*
G02X381265Y136770I-2716J3161*
G01*
X341466Y136770D01*
X343938Y134297D01*
G74*
D01*
G02X344529Y132874I1417J1423*
G01*
X344529Y130754D01*
X346305Y128978D01*
X346443Y128978D01*
G74*
D01*
G02X345636Y130345I3557J3021*
G01*
X348345Y130345D01*
X348345Y128978D01*
X351655Y128978D01*
X351655Y130345D01*
X354364Y130345D01*
G74*
D01*
G02X353557Y128978I4364J1654*
G01*
X369220Y128978D01*
G75*
D01*
G02X369220Y124959I2826J-2009*
G01*
X353609Y124959D01*
G75*
D01*
G02X346391Y124959I-3609J-2957*
G01*
X345472Y124959D01*
G75*
D01*
G02X345358Y124962I-4J2010*
G01*
G74*
D01*
G02X344051Y125547I114J2007*
G01*
X341099Y128500D01*
G75*
D01*
G02X340510Y129926I1420J1421*
G01*
X340510Y132042D01*
X338734Y133817D01*
X329232Y133817D01*
G75*
D01*
G02X329173Y133818I5J2010*
G01*
G74*
D01*
G02X327811Y134406I59J2008*
G01*
X326335Y135882D01*
G75*
D01*
G02X325746Y137308I1420J1421*
G01*
X325746Y137947D01*
X323971Y139723D01*
X302657Y139723D01*
G75*
D01*
G02X302598Y139723I-29J2009*
G01*
G74*
D01*
G02X301236Y140311I59J2008*
G01*
X299760Y141788D01*
G75*
D01*
G02X299171Y143214I1420J1421*
G01*
X299171Y149758D01*
X297396Y151534D01*
X259199Y151534D01*
X258899Y151234D01*
X258899Y146161D01*
G75*
D01*
G02X258308Y144738I-2009J0*
G01*
X256837Y143266D01*
G74*
D01*
G02X256166Y142821I1424J1419*
G01*
G75*
D01*
G02X255410Y142675I-752J1864*
G01*
X225242Y142675D01*
X222880Y140314D01*
G74*
D01*
G02X222191Y139862I1423J1417*
G01*
G75*
D01*
G02X221453Y139723I-734J1869*
G01*
X215551Y139723D01*
G75*
D01*
G02X215436Y139726I-5J2009*
G01*
G74*
D01*
G02X214130Y140311I114J2006*
G01*
X211177Y143264D01*
G75*
D01*
G02X210589Y144690I1421J1420*
G01*
X210589Y151234D01*
X210290Y151534D01*
X143209Y151534D01*
G75*
D01*
G02X143149Y151535I3J2009*
G01*
G74*
D01*
G02X141788Y152122I59J2007*
G01*
X140311Y153599D01*
G75*
D01*
G02X139723Y155025I1421J1420*
G01*
X139723Y171904D01*
X139423Y172203D01*
X129921Y172203D01*
G75*
D01*
G02X129806Y172206I-5J2010*
G01*
G74*
D01*
G02X128500Y172792I116J2007*
G01*
X125547Y175744D01*
G75*
D01*
G02X124959Y177170I1421J1420*
G01*
X124959Y186149D01*
G75*
D01*
G02X128978Y186149I2010J2826*
G01*
X431102Y193939D02*
G74*
D01*
G02X432526Y193348I0J2010*
G01*
X434142Y191732D01*
G75*
D01*
G02X431846Y188344I1858J-3731*
G01*
X431447Y188743D01*
X431446Y188744D01*
X430270Y189919D01*
X425200Y189919D01*
G75*
D01*
G02X423776Y190508I-2J2010*
G01*
X420823Y193461D01*
G75*
D01*
G02X420234Y194886I1420J1421*
G01*
X420234Y268696D01*
G75*
D01*
G02X420823Y270122I2010J4*
G01*
X423187Y272486D01*
X423187Y275148D01*
G74*
D01*
G02X420558Y272998I4526J2851*
G01*
X420558Y275486D01*
G75*
D01*
G02X416764Y275486I-1897J2513*
G01*
X416764Y272998D01*
G74*
D01*
G02X413659Y276103I1897J5002*
G01*
X416147Y276103D01*
G75*
D01*
G02X416147Y279897I2513J1897*
G01*
X413659Y279897D01*
G74*
D01*
G02X414577Y281455I5001J1897*
G01*
X414218Y281455D01*
X411856Y279093D01*
G74*
D01*
G02X410433Y278502I1423J1418*
G01*
X386507Y278502D01*
G75*
D01*
G02X384040Y282521I-5325J-502*
G01*
X409601Y282521D01*
X411965Y284886D01*
G75*
D01*
G02X413389Y285474I1420J-1421*
G01*
X423720Y285474D01*
G74*
D01*
G02X425144Y284883I1J2009*
G01*
X426616Y283412D01*
G74*
D01*
G02X427207Y281988I1419J1424*
G01*
X427207Y271654D01*
G75*
D01*
G02X426616Y270230I-2010J0*
G01*
X424254Y267868D01*
X424254Y195714D01*
X426029Y193939D01*
X431102Y193939D01*
X311550Y278459D02*
G75*
D01*
G02X311550Y278459I-5330J-459*
G01*
X274070Y278459D02*
G75*
D01*
G02X274070Y278459I-5330J-459*
G01*
X349031Y278459D02*
G75*
D01*
G02X349031Y278459I-5330J-459*
G01*
X336957Y212424D02*
G75*
D01*
G02X336957Y212424I1043J-1432*
G01*
X339827Y215053D02*
X338000Y213225D01*
X336173Y215053D01*
G75*
D01*
G02X339827Y215053I1827J-4061*
G01*
X339827Y206932D02*
G75*
D01*
G02X336173Y206932I-1827J4060*
G01*
X338000Y208759D01*
X339827Y206932D01*
X318063Y158556D02*
G75*
D01*
G02X316556Y160063I0J1507*
G01*
X316556Y167937D01*
G75*
D01*
G02X318063Y169444I1507J0*
G01*
X325937Y169444D01*
G74*
D01*
G02X327444Y167937I0J1507*
G01*
X327444Y160063D01*
G75*
D01*
G02X325937Y158556I-1507J0*
G01*
X318063Y158556D01*
X432102Y179478D02*
G74*
D01*
G02X434522Y181898I3897J1477*
G01*
X434522Y179478D01*
X432102Y179478D01*
X437478Y181898D02*
G74*
D01*
G02X439898Y179478I1477J3897*
G01*
X437478Y179478D01*
X437478Y181898D01*
X439898Y176522D02*
G74*
D01*
G02X437478Y174102I3897J1477*
G01*
X437478Y176522D01*
X439898Y176522D01*
X434031Y178000D02*
G75*
D01*
G02X434031Y178000I1969J0*
G01*
X221522Y195063D02*
G74*
D01*
G02X219102Y197482I1477J3898*
G01*
X221522Y197482D01*
X221522Y195063D01*
X221031Y198961D02*
G75*
D01*
G02X221031Y198961I1969J0*
G01*
X188831Y198961D02*
G75*
D01*
G02X188831Y198961I4169J0*
G01*
X219102Y200439D02*
G74*
D01*
G02X221522Y202858I3897J1479*
G01*
X221522Y200439D01*
X219102Y200439D01*
X178831Y198961D02*
G75*
D01*
G02X178831Y198961I4169J0*
G01*
X168831Y198961D02*
G75*
D01*
G02X168831Y198961I4169J0*
G01*
X158831Y198961D02*
G75*
D01*
G02X158831Y198961I4169J0*
G01*
X128978Y209520D02*
G75*
D01*
G02X123631Y207636I-2010J-2826*
G01*
X101226Y207636D01*
X99838Y206247D01*
G75*
D01*
G02X95431Y206567I-2397J-2506*
G01*
X95431Y206688D01*
G75*
D01*
G02X96020Y208114I2010J4*
G01*
X98973Y211067D01*
G74*
D01*
G02X100279Y211652I1420J1421*
G01*
G75*
D01*
G02X100394Y211655I110J-2006*
G01*
X126969Y211655D01*
G74*
D01*
G02X128978Y209646I0J2009*
G01*
X128978Y209520D01*
X283339Y124959D02*
G75*
D01*
G02X283339Y128978I-2826J2010*
G01*
X310036Y128978D01*
G75*
D01*
G02X310774Y128839I4J-2009*
G01*
G74*
D01*
G02X311463Y128387I734J1870*
G01*
X314411Y125439D01*
G74*
D01*
G02X315002Y124016I1418J1423*
G01*
X315002Y117984D01*
G75*
D01*
G02X310982Y117984I-2010J-2826*
G01*
X310982Y123183D01*
X309207Y124959D01*
X283339Y124959D01*
X348250Y132000D02*
G75*
D01*
G02X348250Y132000I1750J0*
G01*
X345636Y133655D02*
G74*
D01*
G02X348345Y136364I4364J1655*
G01*
X348345Y133655D01*
X345636Y133655D01*
X351655Y136364D02*
G74*
D01*
G02X354364Y133655I1655J4364*
G01*
X351655Y133655D01*
X351655Y136364D01*
X388937Y103522D02*
G74*
D01*
G02X386518Y101102I3898J1477*
G01*
X386518Y103522D01*
X388937Y103522D01*
X381142Y106478D02*
G74*
D01*
G02X383561Y108898I3897J1476*
G01*
X383561Y106478D01*
X381142Y106478D01*
X383561Y101102D02*
G74*
D01*
G02X381142Y103522I1479J3897*
G01*
X383561Y103522D01*
X383561Y101102D01*
X383071Y105000D02*
G75*
D01*
G02X383071Y105000I1968J0*
G01*
X386518Y108898D02*
G74*
D01*
G02X388937Y106478I1479J3898*
G01*
X386518Y106478D01*
X386518Y108898D01*
X333940Y212820D02*
X335767Y210992D01*
X333940Y209165D01*
G75*
D01*
G02X333940Y212820I4060J1828*
G01*
X316916Y205928D02*
G74*
D01*
G02X320072Y209084I5084J1928*
G01*
X320072Y205928D01*
X316916Y205928D01*
X327084Y202072D02*
G74*
D01*
G02X323928Y198916I5084J1928*
G01*
X323928Y202072D01*
X327084Y202072D01*
X320072Y198916D02*
G74*
D01*
G02X316916Y202072I1928J5084*
G01*
X320072Y202072D01*
X320072Y198916D01*
X319638Y204000D02*
G75*
D01*
G02X319638Y204000I2362J0*
G01*
X323928Y209084D02*
G74*
D01*
G02X327084Y205928I1928J5084*
G01*
X323928Y205928D01*
X323928Y209084D01*
X378995Y177992D02*
X370557Y177992D01*
G75*
D01*
G02X370557Y182011I0J2009*
G01*
X380157Y182011D01*
G75*
D01*
G02X378995Y177992I2881J-3010*
G01*
X379142Y170478D02*
G74*
D01*
G02X381561Y172898I3897J1476*
G01*
X381561Y170478D01*
X379142Y170478D01*
X386937Y167522D02*
G74*
D01*
G02X384518Y165102I3898J1477*
G01*
X384518Y167522D01*
X386937Y167522D01*
X381561Y165102D02*
G74*
D01*
G02X379142Y167522I1479J3897*
G01*
X381561Y167522D01*
X381561Y165102D01*
X384518Y172898D02*
G74*
D01*
G02X386937Y170478I1479J3898*
G01*
X384518Y170478D01*
X384518Y172898D01*
X381071Y169000D02*
G75*
D01*
G02X381071Y169000I1968J0*
G01*
X414439Y162898D02*
G74*
D01*
G02X416858Y160478I1479J3897*
G01*
X414439Y160478D01*
X414439Y162898D01*
X409063Y160478D02*
G74*
D01*
G02X411482Y162898I3898J1477*
G01*
X411482Y160478D01*
X409063Y160478D01*
X411482Y155102D02*
G74*
D01*
G02X409063Y157522I1479J3898*
G01*
X411482Y157522D01*
X411482Y155102D01*
X410992Y159000D02*
G75*
D01*
G02X410992Y159000I1969J0*
G01*
X384518Y162898D02*
G74*
D01*
G02X386937Y160478I1479J3898*
G01*
X384518Y160478D01*
X384518Y162898D01*
X386937Y157522D02*
G74*
D01*
G02X384518Y155102I3898J1477*
G01*
X384518Y157522D01*
X386937Y157522D01*
X381561Y155102D02*
G74*
D01*
G02X379142Y157522I1479J3897*
G01*
X381561Y157522D01*
X381561Y155102D01*
X381071Y159000D02*
G75*
D01*
G02X381071Y159000I1968J0*
G01*
X379142Y160478D02*
G74*
D01*
G02X381561Y162898I3897J1476*
G01*
X381561Y160478D01*
X379142Y160478D01*
X106583Y110000D02*
G75*
D01*
G02X106583Y110000I5417J0*
G01*
X408792Y189000D02*
G75*
D01*
G02X408792Y189000I4169J0*
G01*
X342060Y212820D02*
G75*
D01*
G02X342060Y209165I-4060J-1827*
G01*
X340233Y210992D01*
X342060Y212820D01*
X56507Y92498D02*
X455068Y92498D01*
X455068Y290270D01*
X56507Y290270D01*
X56507Y92498D01*
X329175Y140203D02*
X326702Y142675D01*
X328400Y142675D01*
X328699Y142376D01*
X328699Y141737D01*
G75*
D01*
G03X329288Y140311I2010J-4*
G01*
X331762Y137836D01*
X330065Y137836D01*
X329766Y138136D01*
X329766Y138780D01*
G74*
D01*
G03X329175Y140203I2010J1*
G01*
X332718Y143209D02*
X332718Y142565D01*
X334494Y140789D01*
X345050Y140789D01*
X344051Y141788D01*
G75*
D01*
G02X343463Y143214I1421J1420*
G01*
X343463Y149758D01*
X341687Y151534D01*
X340709Y151534D01*
G75*
D01*
G02X334188Y145698I-2713J-3530*
G01*
G74*
D01*
G02X333883Y145640I527J1940*
G01*
G75*
D01*
G02X333660Y145628I-219J1998*
G01*
X331131Y145628D01*
X332127Y144632D01*
G74*
D01*
G02X332718Y143209I1417J1423*
G01*
X386599Y138866D02*
G74*
D01*
G02X387049Y138652I1562J3864*
G01*
X385979Y139723D01*
X385757Y139723D01*
X386458Y139022D01*
G74*
D01*
G02X386599Y138866I1419J1424*
G01*
X390707Y142376D02*
X390408Y142675D01*
X388710Y142675D01*
X390707Y140679D01*
X390707Y142376D01*
X255469Y153488D02*
X256467Y154486D01*
X213021Y154486D01*
X214017Y153490D01*
G74*
D01*
G02X214608Y152067I1418J1423*
G01*
X214608Y145517D01*
X216384Y143742D01*
X220624Y143742D01*
X222510Y145628D01*
X221331Y145628D01*
G75*
D01*
G02X221331Y149647I-2826J2010*
G01*
X228849Y149647D01*
G75*
D01*
G02X235086Y146695I3984J352*
G01*
X249747Y146695D01*
G75*
D01*
G02X254974Y152675I2259J3300*
G01*
G74*
D01*
G02X255469Y153488I1915J609*
G01*
X254880Y147224D02*
X254880Y146994D01*
X254581Y146695D01*
X254253Y146695D01*
G74*
D01*
G03X254880Y147224I2252J3305*
G01*
X306443Y146695D02*
X306144Y146994D01*
X306144Y148692D01*
X308140Y146695D01*
X306443Y146695D01*
X303191Y144262D02*
X303711Y143742D01*
X303490Y143742D01*
X303191Y144041D01*
X303191Y144262D01*
X347781Y143742D02*
X349479Y143742D01*
X347482Y145739D01*
X347482Y144041D01*
X347781Y143742D01*
X144041Y155553D02*
X143742Y155852D01*
X143742Y157550D01*
X145739Y155553D01*
X144041Y155553D01*
X242469Y173174D02*
G75*
D01*
G02X242469Y173174I531J-4135*
G01*
X288831Y169039D02*
G75*
D01*
G02X288831Y169039I4169J0*
G01*
X278831Y169039D02*
G75*
D01*
G02X278831Y169039I4169J0*
G01*
X268831Y169039D02*
G75*
D01*
G02X268831Y169039I4169J0*
G01*
X258831Y169039D02*
G75*
D01*
G02X258831Y169039I4169J0*
G01*
X248831Y169039D02*
G75*
D01*
G02X248831Y169039I4169J0*
G01*
X188831Y169039D02*
G75*
D01*
G02X188831Y169039I4169J0*
G01*
X231031Y169039D02*
G75*
D01*
G02X231031Y169039I1969J0*
G01*
X168831Y169039D02*
G75*
D01*
G02X168831Y169039I4169J0*
G01*
X236898Y167561D02*
G74*
D01*
G02X234478Y165142I3897J1479*
G01*
X234478Y167561D01*
X236898Y167561D01*
X234478Y172937D02*
G74*
D01*
G02X236898Y170518I1477J3898*
G01*
X234478Y170518D01*
X234478Y172937D01*
X208831Y169039D02*
G75*
D01*
G02X208831Y169039I4169J0*
G01*
X198831Y169039D02*
G75*
D01*
G02X198831Y169039I4169J0*
G01*
X269644Y188851D02*
X269644Y196488D01*
G75*
D01*
G02X273663Y194845I3356J2472*
G01*
X273663Y188851D01*
G75*
D01*
G02X274838Y184649I-2009J-2827*
G01*
G74*
D01*
G02X275968Y185077I1244J1579*
G01*
G75*
D01*
G02X276083Y185081I127J-2005*
G01*
X280638Y185081D01*
G75*
D01*
G02X280638Y181061I2826J-2010*
G01*
X276915Y181061D01*
X276218Y180364D01*
G75*
D01*
G02X274732Y175156I1340J-3198*
G01*
X231147Y175156D01*
X229372Y173380D01*
X229372Y171092D01*
G74*
D01*
G02X231522Y172937I3628J2052*
G01*
X231522Y170518D01*
X229372Y170518D01*
X229372Y167561D01*
X231522Y167561D01*
X231522Y165142D01*
G74*
D01*
G02X229372Y166987I1477J3896*
G01*
X229372Y163878D01*
G75*
D01*
G02X228781Y162455I-2010J1*
G01*
X227309Y160983D01*
G74*
D01*
G02X226638Y160538I1423J1418*
G01*
G75*
D01*
G02X225883Y160392I-752J1863*
G01*
X188976Y160392D01*
G75*
D01*
G02X188861Y160395I-5J2010*
G01*
G74*
D01*
G02X187555Y160981I116J2007*
G01*
X185191Y163345D01*
X183071Y163345D01*
G75*
D01*
G02X182333Y163485I-1J2009*
G01*
G74*
D01*
G02X181650Y163933I737J1869*
G01*
X181579Y164004D01*
G74*
D01*
G02X180991Y165387I1421J1421*
G01*
G75*
D01*
G02X186754Y167227I2009J3652*
G01*
X186758Y167225D01*
G74*
D01*
G02X187447Y166773I734J1870*
G01*
X189809Y164411D01*
X225053Y164411D01*
X225353Y164710D01*
X225353Y165598D01*
G75*
D01*
G02X222400Y173164I-2351J3442*
G01*
X222400Y175156D01*
X172092Y175156D01*
X167032Y170096D01*
G75*
D01*
G02X164246Y173017I-4032J-1056*
G01*
G74*
D01*
G02X164297Y173045I992J1746*
G01*
X169839Y178586D01*
G74*
D01*
G02X171043Y179163I1421J1420*
G01*
G75*
D01*
G02X171260Y179175I219J-1997*
G01*
X207871Y179175D01*
G75*
D01*
G02X207636Y180118I1774J943*
G01*
X207636Y180244D01*
G74*
D01*
G02X206819Y181061I2009J2826*
G01*
X146460Y181061D01*
G74*
D01*
G02X146695Y180118I1774J943*
G01*
X146695Y179992D01*
G75*
D01*
G02X146695Y174338I-2009J-2827*
G01*
X146695Y160281D01*
X147981Y158995D01*
X148470Y158506D01*
X302654Y158506D01*
G75*
D01*
G02X303410Y158360I4J-2010*
G01*
G74*
D01*
G02X304081Y157915I753J1864*
G01*
X305077Y156919D01*
X305077Y211060D01*
G75*
D01*
G02X300238Y213977I-321J4940*
G01*
X300238Y209646D01*
G75*
D01*
G02X299647Y208222I-2010J0*
G01*
X297137Y205713D01*
G74*
D01*
G02X297504Y205604I386J1973*
G01*
G74*
D01*
G02X298175Y205159I752J1863*
G01*
X299647Y203687D01*
G74*
D01*
G02X300238Y202264I1418J1423*
G01*
X300238Y201172D01*
G75*
D01*
G02X298354Y195825I941J-3337*
G01*
X298228Y195825D01*
G75*
D01*
G02X296535Y196752I0J2010*
G01*
G75*
D01*
G02X289885Y201730I-3534J2210*
G01*
X286115Y201730D01*
G75*
D01*
G02X279956Y201809I-3116J-2767*
G01*
G74*
D01*
G02X279091Y202319I555J1931*
G01*
X276727Y204683D01*
X272486Y204683D01*
X267171Y199369D01*
G74*
D01*
G02X267150Y199348I1430J1409*
G01*
G75*
D01*
G02X264649Y202789I-4150J-387*
G01*
G75*
D01*
G02X264827Y202797I179J-2001*
G01*
X264916Y202797D01*
X269755Y207636D01*
X246978Y207636D01*
X249450Y205164D01*
G74*
D01*
G02X250041Y203740I1419J1424*
G01*
X250041Y201897D01*
G75*
D01*
G02X250041Y196024I2958J-2936*
G01*
X250041Y183903D01*
X251817Y182128D01*
X272297Y182128D01*
X272995Y182825D01*
G75*
D01*
G02X269644Y188851I-1347J3196*
G01*
X302124Y154187D02*
X302124Y152490D01*
X300127Y154486D01*
X301825Y154486D01*
X302124Y154187D01*
X344419Y154486D02*
X346416Y152490D01*
X346416Y154187D01*
X346116Y154486D01*
X344419Y154486D01*
X135183Y182128D02*
X134884Y182427D01*
X134884Y182648D01*
X135404Y182128D01*
X135183Y182128D01*
X222400Y179175D02*
X222400Y181172D01*
X220403Y179175D01*
X222400Y179175D01*
X246022Y183076D02*
X246022Y196089D01*
G74*
D01*
G02X244952Y195277I3022J2872*
G01*
G74*
D01*
G02X244419Y194332I1951J478*
G01*
X244136Y194049D01*
X244136Y191929D01*
G75*
D01*
G02X243545Y190506I-2010J1*
G01*
X242469Y189430D01*
X240597Y187558D01*
G74*
D01*
G02X239908Y187106I1423J1418*
G01*
G75*
D01*
G02X239170Y186967I-734J1870*
G01*
X228195Y186967D01*
X226419Y185191D01*
X226419Y176112D01*
X228894Y178586D01*
G74*
D01*
G02X230200Y179172I1421J1420*
G01*
G75*
D01*
G02X230315Y179175I110J-2007*
G01*
X249085Y179175D01*
X246610Y181650D01*
G75*
D01*
G02X246022Y183076I1421J1420*
G01*
X137836Y187077D02*
X139833Y185081D01*
X138136Y185081D01*
X137836Y185380D01*
X137836Y187077D01*
X231031Y198961D02*
G75*
D01*
G02X231031Y198961I1969J0*
G01*
X236898Y197482D02*
G74*
D01*
G02X234478Y195063I3898J1479*
G01*
X234478Y197482D01*
X236898Y197482D01*
X234478Y202858D02*
G74*
D01*
G02X236898Y200439I1476J3897*
G01*
X234478Y200439D01*
X234478Y202858D01*
X246022Y201832D02*
X246022Y202908D01*
X244246Y204683D01*
X231147Y204683D01*
X229372Y202908D01*
X229372Y201013D01*
G74*
D01*
G02X231522Y202858I3628J2052*
G01*
X231522Y200439D01*
X229372Y200439D01*
X229372Y197482D01*
X231522Y197482D01*
X231522Y195063D01*
G74*
D01*
G02X229372Y196908I1478J3897*
G01*
X229372Y196358D01*
G75*
D01*
G02X228781Y194935I-2010J1*
G01*
X227309Y193463D01*
G74*
D01*
G02X226638Y193018I1423J1418*
G01*
G75*
D01*
G02X225883Y192872I-752J1863*
G01*
X225242Y192872D01*
X223466Y191097D01*
X223466Y187923D01*
X225941Y190397D01*
G74*
D01*
G02X227247Y190983I1421J1420*
G01*
G75*
D01*
G02X227362Y190986I110J-2007*
G01*
X238341Y190986D01*
X240116Y192762D01*
X240116Y194878D01*
G75*
D01*
G02X240322Y195767I2010J3*
G01*
G75*
D01*
G02X246022Y201832I2681J3191*
G01*
X279458Y207636D02*
X282632Y207636D01*
X284518Y205750D01*
X281344Y205750D01*
X279458Y207636D01*
X300238Y218023D02*
X300238Y219148D01*
X300537Y219447D01*
X301203Y219447D01*
G74*
D01*
G03X300238Y218023I3553J3447*
G01*
X138136Y231258D02*
X139833Y231258D01*
X137836Y229261D01*
X137836Y230959D01*
X138136Y231258D01*
X134884Y233690D02*
X134884Y233912D01*
X135183Y234211D01*
X135404Y234211D01*
X134884Y233690D01*
X123663Y280270D02*
G75*
D01*
G02X123554Y275510I-4843J-2270*
G01*
X124071Y276027D01*
G74*
D01*
G02X124959Y276544I1421J1420*
G01*
X124959Y277554D01*
G75*
D01*
G02X125547Y278980I2009J6*
G01*
X128022Y281455D01*
X124848Y281455D01*
X123663Y280270D01*
X421176Y279897D02*
X423187Y279897D01*
X423187Y276103D01*
X421176Y276103D01*
G75*
D01*
G03X421176Y279897I-2515J1897*
G01*
X153440Y282521D02*
G75*
D01*
G02X160392Y281445I2860J-4520*
G01*
X160392Y282223D01*
X158550Y283143D01*
G74*
D01*
G02X158027Y283521I901J1797*
G01*
X157140Y284408D01*
X151423Y284408D01*
X149537Y282521D01*
X153440Y282521D01*
X420558Y280514D02*
G75*
D01*
G03X416764Y280514I-1897J-2513*
G01*
X416764Y281455D01*
X420558Y281455D01*
X420558Y280514D01*
X422746Y281455D02*
G74*
D01*
G02X423187Y280852I4087J3452*
G01*
X423187Y281156D01*
X422888Y281455D01*
X422746Y281455D01*
X22000Y67000D02*
X24000Y69000D01*
X370557Y180001D02*
X381999Y180001D01*
X383039Y189000D02*
X380906Y191134D01*
X380906Y191929D01*
X312992Y191929D01*
X310039Y194882D01*
X310039Y219980D01*
X308563Y221457D01*
X299705Y221457D01*
X298228Y219980D01*
X298228Y209646D01*
X295276Y206693D01*
X286417Y206693D01*
X283465Y209646D01*
X215551Y209646D01*
X385039Y135000D02*
X385039Y137598D01*
X383858Y138780D01*
X333661Y138780D01*
X305610Y144685D02*
X304134Y146161D01*
X147638Y156496D02*
X144685Y159449D01*
X144685Y177165D01*
X333661Y138780D02*
X330709Y141732D01*
X330709Y143209D01*
X329232Y144685D01*
X305610Y144685D01*
X304134Y146161D02*
X304134Y155020D01*
X302657Y156496D01*
X147638Y156496D01*
X162402Y206693D02*
X153543Y206693D01*
X150591Y203740D01*
X150591Y200787D01*
X243000Y198961D02*
X243000Y195756D01*
X242126Y194882D01*
X242126Y191929D01*
X239173Y188976D01*
X227362Y188976D01*
X224409Y186024D01*
X224409Y177165D01*
X277559Y177165D02*
X230315Y177165D01*
X227362Y174213D01*
X227362Y163878D01*
X225886Y162402D01*
X188976Y162402D01*
X186024Y165354D01*
X183071Y165354D01*
X183000Y165425D01*
X183000Y169039D01*
X385039Y115000D02*
X386811Y116772D01*
X386811Y118110D01*
X389764Y121063D01*
X389764Y138780D01*
X386811Y141732D01*
X345472Y150591D02*
X342520Y153543D01*
X335138Y153543D01*
X315945Y150591D02*
X312992Y153543D01*
X312992Y186024D01*
X271654Y186024D02*
X271654Y197835D01*
X271874Y197835D01*
X273000Y198961D01*
X386811Y141732D02*
X346949Y141732D01*
X345472Y143209D01*
X345472Y150591D01*
X335138Y153543D02*
X332185Y150591D01*
X315945Y150591D01*
X416339Y144685D02*
X419291Y144685D01*
X419291Y119587D01*
X417815Y118110D01*
X416339Y118110D01*
X414961Y116732D01*
X414961Y115000D01*
X213000Y198961D02*
X214827Y200787D01*
X215551Y200787D01*
X215551Y218504D01*
X212598Y221457D01*
X153543Y221457D01*
X150591Y218504D01*
X150591Y215551D01*
X126969Y206693D02*
X126969Y209646D01*
X100394Y209646D01*
X97441Y206693D01*
X97441Y203740D01*
X312992Y115157D02*
X312992Y124016D01*
X310039Y126969D01*
X280512Y126969D01*
X412961Y179000D02*
X411126Y177165D01*
X410433Y177165D01*
X410433Y171260D01*
X410701Y171260D01*
X412961Y169000D01*
X414961Y105000D02*
X413386Y103425D01*
X413386Y103346D01*
X395669Y103346D01*
X392717Y106299D01*
X392717Y143209D01*
X391240Y144685D01*
X351378Y144685D01*
X348425Y147638D01*
X348425Y155020D01*
X346949Y156496D01*
X330709Y156496D01*
X301181Y197835D02*
X298228Y197835D01*
X298228Y202264D01*
X296752Y203740D01*
X280512Y203740D01*
X277559Y206693D01*
X271654Y206693D01*
X265748Y200787D01*
X264827Y200787D01*
X263000Y198961D01*
X338000Y148000D02*
X334024Y148000D01*
X333661Y147638D01*
X310039Y147638D01*
X307087Y150591D01*
X307087Y213669D01*
X304756Y216000D01*
X223000Y169039D02*
X224409Y170449D01*
X171260Y177165D02*
X165354Y171260D01*
X165220Y171260D01*
X163000Y169039D01*
X224409Y170449D02*
X224409Y177165D01*
X171260Y177165D01*
X436000Y168000D02*
X434055Y166055D01*
X434055Y165354D01*
X431102Y162402D01*
X422244Y162402D01*
X419291Y159449D01*
X419291Y156496D01*
X416339Y153543D01*
X413386Y153543D01*
X410433Y150591D01*
X410433Y141732D01*
X414961Y137205D01*
X414961Y135000D01*
X422244Y103346D02*
X419291Y103346D01*
X419291Y109252D01*
X414961Y113583D01*
X414961Y115000D01*
X412961Y169000D02*
X410701Y171260D01*
X395669Y171260D01*
X392717Y174213D01*
X392717Y183071D01*
X389764Y186024D01*
X383858Y186024D01*
X383039Y186843D01*
X383039Y189000D01*
X385039Y125000D02*
X381890Y125000D01*
X380906Y124016D01*
X380906Y121063D01*
X375000Y115157D01*
X375000Y97441D01*
X232833Y150000D02*
X230471Y147638D01*
X218504Y147638D01*
X372047Y126969D02*
X345472Y126969D01*
X342520Y129921D01*
X342520Y132874D01*
X339567Y135827D01*
X329232Y135827D01*
X327756Y137303D01*
X327756Y138780D01*
X324803Y141732D01*
X302657Y141732D01*
X301181Y143209D01*
X301181Y150591D01*
X298228Y153543D01*
X258366Y153543D01*
X256890Y152067D01*
X256890Y146161D01*
X255413Y144685D01*
X224409Y144685D01*
X221457Y141732D01*
X215551Y141732D01*
X212598Y144685D01*
X212598Y152067D01*
X211122Y153543D01*
X143209Y153543D01*
X141732Y155020D01*
X141732Y172736D01*
X140256Y174213D01*
X129921Y174213D01*
X126969Y177165D01*
X126969Y188976D01*
X412961Y159000D02*
X410882Y159000D01*
X410433Y159449D01*
X407480Y159449D01*
X404528Y162402D01*
X404528Y165354D01*
X401575Y168307D01*
X386811Y168307D01*
X386118Y169000D01*
X383039Y169000D01*
X283465Y183071D02*
X276083Y183071D01*
X273130Y180118D01*
X250984Y180118D01*
X248031Y183071D01*
X248031Y203740D01*
X245079Y206693D01*
X230315Y206693D01*
X227362Y203740D01*
X227362Y196358D01*
X225886Y194882D01*
X224409Y194882D01*
X221457Y191929D01*
X221457Y183071D01*
X218504Y180118D01*
X209646Y180118D01*
X209646Y183071D01*
X436000Y168000D02*
X434055Y169945D01*
X434055Y171260D01*
X428150Y177165D01*
X428150Y183071D01*
X209646Y183071D02*
X137303Y183071D01*
X135827Y184547D01*
X135827Y231791D01*
X137303Y233268D01*
X168307Y233268D01*
X180118Y188976D02*
X180118Y186024D01*
X141732Y186024D01*
X138780Y188976D01*
X138780Y227362D01*
X141732Y230315D01*
X162402Y230315D01*
X162402Y227362D01*
X203000Y198961D02*
X201173Y200787D01*
X200787Y200787D01*
X200787Y203740D01*
X197835Y206693D01*
X171260Y206693D01*
X165354Y212598D01*
X156496Y212598D01*
X153543Y209646D01*
X144685Y209646D01*
X141732Y212598D01*
X141732Y221457D01*
X144685Y224409D01*
X147638Y224409D01*
X144685Y177165D02*
X144685Y180118D01*
X134350Y180118D01*
X132874Y181594D01*
X132874Y234744D01*
X134350Y236220D01*
X159449Y236220D01*
X162402Y239173D01*
X162402Y265748D01*
X165354Y268701D01*
X230315Y268701D01*
X230315Y265748D01*
X345472Y265748D02*
X239173Y265748D01*
X233268Y270177D01*
X231791Y271654D01*
X165354Y271654D01*
X162402Y274606D01*
X162402Y283465D01*
X159449Y284941D01*
X157972Y286417D01*
X150591Y286417D01*
X147638Y283465D01*
X124016Y283465D01*
X121063Y280512D01*
X121063Y280244D01*
X118819Y278000D01*
X122000Y120000D02*
X122000Y123079D01*
X121063Y124016D01*
X121063Y132874D01*
X118110Y135827D01*
X112205Y135827D01*
X109252Y138780D01*
X109252Y191929D01*
X106299Y194882D01*
X94488Y194882D01*
X91535Y197835D01*
X91535Y271654D01*
X156299Y278000D02*
X153787Y280512D01*
X129921Y280512D01*
X126969Y277559D01*
X126969Y276083D01*
X126969Y274606D01*
X125492Y274606D01*
X124016Y273130D01*
X122539Y271654D01*
X85630Y271654D01*
X81339Y275945D01*
X81339Y278000D01*
X412961Y159000D02*
X415890Y159000D01*
X416339Y159449D01*
X416339Y162402D01*
X422244Y168307D01*
X422244Y186024D01*
X420768Y188976D01*
X419291Y190453D01*
X419291Y274606D01*
X418661Y275236D01*
X418661Y278000D01*
X381181Y278000D02*
X383693Y280512D01*
X410433Y280512D01*
X413386Y283465D01*
X423720Y283465D01*
X425197Y281988D01*
X425197Y271654D01*
X422244Y268701D01*
X422244Y194882D01*
X425197Y191929D01*
X431102Y191929D01*
X434055Y188976D01*
X435024Y188976D01*
X436000Y188000D01*
G54D12*
X163000Y169039D03*
X173000Y169039D03*
X183000Y169039D03*
X193000Y169039D03*
X203000Y169039D03*
X213000Y169039D03*
X223000Y169039D03*
X233000Y169039D03*
X243000Y169039D03*
X253000Y169039D03*
X263000Y169039D03*
X273000Y169039D03*
X283000Y169039D03*
X293000Y169039D03*
X163000Y198961D03*
X173000Y198961D03*
X183000Y198961D03*
X193000Y198961D03*
X203000Y198961D03*
X213000Y198961D03*
X223000Y198961D03*
X233000Y198961D03*
X243000Y198961D03*
X253000Y198961D03*
X263000Y198961D03*
X273000Y198961D03*
X283000Y198961D03*
X293000Y198961D03*
X385039Y135000D03*
X414961Y125000D03*
X385039Y125000D03*
X385039Y115000D03*
X385039Y105000D03*
X414961Y135000D03*
X414961Y115000D03*
X414961Y105000D03*
X383039Y189000D03*
X412961Y169000D03*
X383039Y179000D03*
X383039Y169000D03*
X383039Y159000D03*
X412961Y189000D03*
X412961Y179000D03*
X412961Y159000D03*
X436000Y188000D03*
X436000Y178000D03*
X436000Y168000D03*
G54D13*
X252000Y150000D03*
X232833Y150000D03*
G54D14*
X322000Y164000D03*
G54D15*
X322000Y204000D03*
G54D16*
X252000Y216000D03*
G54D17*
X304756Y216000D03*
G54D18*
X338000Y210992D03*
X338000Y148000D03*
G54D19*
X350000Y122000D03*
X350000Y132000D03*
G54D20*
X122000Y120000D03*
X112000Y110000D03*
X112000Y130000D03*
G54D21*
X144685Y177165D03*
X283465Y183071D03*
X209646Y183071D03*
X277559Y177165D03*
X428150Y183071D03*
X218504Y147638D03*
X372047Y126969D03*
X126969Y188976D03*
X330709Y156496D03*
X301181Y197835D03*
X162402Y206693D03*
X150591Y200787D03*
X312992Y186024D03*
X271654Y186024D03*
X416339Y144685D03*
X422244Y103346D03*
X312992Y115157D03*
X280512Y126969D03*
X375000Y97441D03*
X150591Y215551D03*
X126969Y206693D03*
X97441Y203740D03*
X168307Y233268D03*
X180118Y188976D03*
X162402Y227362D03*
X147638Y224409D03*
X230315Y265748D03*
X345472Y265748D03*
G54D22*
X81339Y278000D03*
X118819Y278000D03*
X156299Y278000D03*
X193780Y278000D03*
X231260Y278000D03*
X268740Y278000D03*
X306220Y278000D03*
X343701Y278000D03*
X381181Y278000D03*
X418661Y278000D03*

M02*
