M48
INCH,TZ
VER,1
FMAT,2
DETECT,ON
ATC,ON
T1C0.03937
T2C0.03500
T3C0.04724
T4C0.05500
T5C0.03543
T6C0.04667
T7C0.02362
T8C0.06299
%
T1
X1.63000Y1.69039
X1.73000
X1.83000
X1.93000
X2.03000
X2.13000
X2.23000
X2.33000
X2.43000
X2.53000
X2.63000
X2.73000
X2.83000
X2.93000
X1.63000Y1.98961
X1.73000
X1.83000
X1.93000
X2.03000
X2.13000
X2.23000
X2.33000
X2.43000
X2.53000
X2.63000
X2.73000
X2.83000
X2.93000
X3.85039Y1.35000
X4.14961Y1.25000
X3.85039
Y1.15000
Y1.05000
X4.14961Y1.35000
Y1.15000
Y1.05000
X3.83039Y1.89000
X4.12961Y1.69000
X3.83039Y1.79000
Y1.69000
Y1.59000
X4.12961Y1.89000
Y1.79000
Y1.59000
X4.36000Y1.88000
Y1.78000
Y1.68000
T2
X2.52000Y1.50000
X2.32833
X3.50000Y1.22000
Y1.32000
T3
X3.22000Y1.64000
Y2.04000
T4
X2.52000Y2.16000
X3.04756
T5
X3.38000Y2.10992
Y1.48000
T6
X1.22000Y1.20000
X1.12000Y1.10000
Y1.30000
T7
X1.44685Y1.77165
X2.83465Y1.83071
X2.09646
X2.77559Y1.77165
X4.28150Y1.83071
X2.18504Y1.47638
X3.72047Y1.26969
X1.26969Y1.88976
X3.30709Y1.56496
X3.01181Y1.97835
X1.62402Y2.06693
X1.50591Y2.00787
X3.12992Y1.86024
X2.71654
X4.16339Y1.44685
X4.22244Y1.03346
X3.12992Y1.15157
X2.80512Y1.26969
X3.75000Y0.97441
X1.50591Y2.15551
X1.26969Y2.06693
X0.97441Y2.03740
X1.68307Y2.33268
X1.80118Y1.88976
X1.62402Y2.27362
X1.47638Y2.24409
X2.30315Y2.65748
X3.45472
T8
X0.81339Y2.78000
X1.18819
X1.56299
X1.93780
X2.31260
X2.68740
X3.06220
X3.43701
X3.81181
X4.18661
M30
