G04 Generated by Ultiboard 13.0 *
%FSLAX25Y25*%
%MOIN*%

%ADD11C,0.00004*%
%ADD12C,0.00500*%


G04 ColorRGB 00FFFF for the following layer *
%LNBoard Outline*%
%LPD*%
G54D10*
G54D11*
X103996Y101998D02*
X382021Y101998D01*
X382021Y319000D01*
X103996Y319000D01*
X103996Y101998D01*
G54D12*
X20500Y65500D02*
X20500Y90950D01*
X20500Y65500D02*
X58804Y65500D01*
X403535Y65500D02*
X365232Y65500D01*
X403535Y65500D02*
X403535Y90950D01*
X403535Y320000D02*
X403535Y294550D01*
X403535Y320000D02*
X365232Y320000D01*
X20500Y320000D02*
X58804Y320000D01*
X20500Y320000D02*
X20500Y294550D01*
X815Y65500D02*
X-38555Y65500D01*
X-18870Y45815D02*
X-18870Y85185D01*
X-33634Y65500D02*
G75*
D01*
G02X-33634Y65500I14764J0*
G01*
X423220Y65500D02*
X462591Y65500D01*
X442906Y45815D02*
X442906Y85185D01*
X428142Y65500D02*
G75*
D01*
G02X428142Y65500I14764J0*
G01*
X437984Y65500D02*
G75*
D01*
G02X437984Y65500I4922J0*
G01*
X815Y320000D02*
X-38555Y320000D01*
X-18870Y300315D02*
X-18870Y339685D01*
X-33634Y320000D02*
G75*
D01*
G02X-33634Y320000I14764J0*
G01*
X-28713Y320000D02*
G75*
D01*
G02X-28713Y320000I9843J0*
G01*
X-23791Y320000D02*
G75*
D01*
G02X-23791Y320000I4921J0*
G01*

M02*
