G04 Generated by Ultiboard 13.0 *
%FSLAX25Y25*%
%MOIN*%

%ADD10C,0.00001*%
%ADD11C,0.01000*%
%ADD12C,0.00500*%
%ADD13C,0.05022*%
%ADD14C,0.10455*%
%ADD15C,0.05906*%
%ADD16R,0.05906X0.05906*%
%ADD17C,0.07834*%
%ADD18C,0.07874*%
%ADD19R,0.07874X0.07874*%
%ADD20C,0.06334*%
%ADD21R,0.06900X0.06900*%
%ADD22C,0.06900*%


G04 ColorRGB 00FF00 for the following layer *
%LNCopper Top*%
%LPD*%
G54D10*
G54D11*
X302000Y168000D02*
X298740Y171260D01*
X292323Y171260D01*
X286417Y177165D01*
X282000Y177165D01*
X282000Y180000D01*
X352000Y189268D02*
X348717Y189268D01*
X348425Y188976D01*
X345472Y188976D01*
X342520Y186024D01*
X342520Y176000D01*
X340000Y176000D01*
X304000Y274442D02*
X301212Y271654D01*
X298228Y271654D01*
X295276Y268701D01*
X278866Y242126D02*
X276992Y244000D01*
X295276Y268701D02*
X295276Y242126D01*
X278866Y242126D01*
X218000Y204000D02*
X218000Y201291D01*
X218504Y200787D01*
X218504Y171260D01*
X215551Y168307D01*
X215551Y165354D01*
X215181Y164984D01*
X215181Y162000D01*
X282000Y220000D02*
X282000Y222921D01*
X277559Y227362D01*
X268181Y227362D01*
X266000Y225181D01*
X282000Y180000D02*
X282000Y183071D01*
X227362Y183071D01*
X224409Y186024D01*
X224409Y208169D01*
X222933Y209646D01*
X209646Y209646D01*
X208000Y211291D01*
X208000Y214000D01*
X324000Y172000D02*
X321850Y172000D01*
X321850Y168307D01*
X302000Y168307D01*
X302000Y168000D01*
X276992Y244000D02*
X275118Y242126D01*
X274606Y242126D01*
X274606Y227362D01*
X266000Y174000D02*
X263260Y171260D01*
X253937Y171260D01*
X248031Y165354D01*
X247354Y165354D01*
X244000Y162000D01*
X324000Y234992D02*
X322276Y233268D01*
X304134Y233268D01*
X304134Y233126D01*
X302000Y230992D01*
X208000Y214000D02*
X205142Y214000D01*
X203740Y212598D01*
X171260Y212598D01*
X168307Y209646D01*
X168307Y165354D01*
X167354Y165354D01*
X164000Y162000D01*
X340000Y176000D02*
X340000Y174213D01*
X336614Y174213D01*
X336614Y171260D01*
X333661Y168307D01*
X327693Y168307D01*
X324000Y172000D01*
X214000Y244000D02*
X214000Y242126D01*
X196630Y242126D01*
X194756Y244000D01*
X302000Y230992D02*
X298906Y230992D01*
X297551Y230992D01*
X295276Y233268D01*
X295276Y242126D01*
X352000Y216827D02*
X350102Y216827D01*
X348425Y218504D01*
X348425Y230315D01*
X345472Y233268D01*
X327756Y233268D01*
X326031Y234992D01*
X324000Y234992D01*
X244000Y162000D02*
X242126Y162000D01*
X242126Y159449D01*
X217732Y159449D01*
X215181Y162000D01*
X266000Y225181D02*
X263567Y225181D01*
X262795Y224409D01*
X248031Y224409D01*
X247449Y224992D01*
X244000Y224992D01*
G54D12*
X20500Y65500D02*
X20500Y90950D01*
X20500Y65500D02*
X58804Y65500D01*
X403535Y65500D02*
X365232Y65500D01*
X403535Y65500D02*
X403535Y90950D01*
X403535Y320000D02*
X403535Y294550D01*
X403535Y320000D02*
X365232Y320000D01*
X20500Y320000D02*
X58804Y320000D01*
X20500Y320000D02*
X20500Y294550D01*
X815Y65500D02*
X-38555Y65500D01*
X-18870Y45815D02*
X-18870Y85185D01*
X-33634Y65500D02*
G75*
D01*
G02X-33634Y65500I14764J0*
G01*
X423220Y65500D02*
X462591Y65500D01*
X442906Y45815D02*
X442906Y85185D01*
X428142Y65500D02*
G75*
D01*
G02X428142Y65500I14764J0*
G01*
X437984Y65500D02*
G75*
D01*
G02X437984Y65500I4922J0*
G01*
X815Y320000D02*
X-38555Y320000D01*
X-18870Y300315D02*
X-18870Y339685D01*
X-33634Y320000D02*
G75*
D01*
G02X-33634Y320000I14764J0*
G01*
X-28713Y320000D02*
G75*
D01*
G02X-28713Y320000I9843J0*
G01*
X-23791Y320000D02*
G75*
D01*
G02X-23791Y320000I4921J0*
G01*
G54D13*
X352000Y189268D03*
X352000Y216827D03*
X352000Y206984D03*
X352000Y199110D03*
G54D14*
X362669Y177181D03*
X362669Y228913D03*
G54D15*
X324000Y234992D03*
X302000Y230992D03*
X244000Y224992D03*
X266000Y225181D03*
X340000Y227181D03*
X276992Y244000D03*
X215181Y162000D03*
G54D16*
X324000Y172000D03*
X302000Y168000D03*
X244000Y162000D03*
X266000Y174000D03*
X340000Y176000D03*
X214000Y244000D03*
X164000Y162000D03*
G54D17*
X218000Y204000D03*
X208000Y194000D03*
X208000Y214000D03*
G54D18*
X282000Y220000D03*
G54D19*
X282000Y180000D03*
G54D20*
X304000Y264442D03*
X304000Y274442D03*
G54D21*
X142000Y244000D03*
G54D22*
X194756Y244000D03*

M02*
