G04 Generated by Ultiboard 13.0 *
%FSLAX25Y25*%
%MOIN*%

%ADD10C,0.00001*%
%ADD11C,0.01000*%
%ADD12C,0.00500*%
%ADD13C,0.05022*%
%ADD14C,0.10455*%
%ADD15C,0.05906*%
%ADD16C,0.07834*%
%ADD17C,0.07874*%
%ADD18R,0.07874X0.07874*%
%ADD19C,0.06334*%
%ADD20R,0.06900X0.06900*%
%ADD21C,0.06900*%


G04 ColorRGB 0000FF for the following layer *
%LNCopper Bottom*%
%LPD*%
G54D10*
G54D11*
X22000Y67000D02*
X24000Y69000D01*
X208000Y194000D02*
X204622Y194000D01*
X203740Y194882D01*
X147638Y194882D01*
X144685Y197835D01*
X144685Y244000D01*
X142000Y244000D01*
X340000Y227181D02*
X336795Y227181D01*
X336614Y227362D01*
X310039Y227362D01*
X307087Y230315D01*
X307087Y236220D01*
X304134Y239173D01*
X304134Y259843D01*
X304000Y259976D01*
X304000Y264442D01*
G54D12*
X20500Y65500D02*
X20500Y90950D01*
X20500Y65500D02*
X58804Y65500D01*
X403535Y65500D02*
X365232Y65500D01*
X403535Y65500D02*
X403535Y90950D01*
X403535Y320000D02*
X403535Y294550D01*
X403535Y320000D02*
X365232Y320000D01*
X20500Y320000D02*
X58804Y320000D01*
X20500Y320000D02*
X20500Y294550D01*
X815Y65500D02*
X-38555Y65500D01*
X-18870Y45815D02*
X-18870Y85185D01*
X-33634Y65500D02*
G75*
D01*
G02X-33634Y65500I14764J0*
G01*
X423220Y65500D02*
X462591Y65500D01*
X442906Y45815D02*
X442906Y85185D01*
X428142Y65500D02*
G75*
D01*
G02X428142Y65500I14764J0*
G01*
X437984Y65500D02*
G75*
D01*
G02X437984Y65500I4922J0*
G01*
X815Y320000D02*
X-38555Y320000D01*
X-18870Y300315D02*
X-18870Y339685D01*
X-33634Y320000D02*
G75*
D01*
G02X-33634Y320000I14764J0*
G01*
X-28713Y320000D02*
G75*
D01*
G02X-28713Y320000I9843J0*
G01*
X-23791Y320000D02*
G75*
D01*
G02X-23791Y320000I4921J0*
G01*
G54D13*
X352000Y189268D03*
X352000Y216827D03*
X352000Y206984D03*
X352000Y199110D03*
G54D14*
X362669Y177181D03*
X362669Y228913D03*
G54D15*
X324000Y234992D03*
X324000Y172000D03*
X302000Y230992D03*
X302000Y168000D03*
X244000Y224992D03*
X244000Y162000D03*
X266000Y225181D03*
X266000Y174000D03*
X340000Y227181D03*
X340000Y176000D03*
X276992Y244000D03*
X214000Y244000D03*
X215181Y162000D03*
X164000Y162000D03*
G54D16*
X218000Y204000D03*
X208000Y194000D03*
X208000Y214000D03*
G54D17*
X282000Y220000D03*
G54D18*
X282000Y180000D03*
G54D19*
X304000Y264442D03*
X304000Y274442D03*
G54D20*
X142000Y244000D03*
G54D21*
X194756Y244000D03*

M02*
