M48
INCH,TZ
VER,1
FMAT,2
DETECT,ON
ATC,ON
T1C0.03622
T2C0.09055
T3C0.03543
T4C0.04667
T5C0.04724
T6C0.03500
T7C0.05500
%
T1
X3.52000Y1.89268
Y2.16827
Y2.06984
Y1.99110
T2
X3.62669Y1.77181
Y2.28913
T3
X3.24000Y2.34992
Y1.72000
X3.02000Y2.30992
Y1.68000
X2.44000Y2.24992
Y1.62000
X2.66000Y2.25181
Y1.74000
X3.40000Y2.27181
Y1.76000
X2.76992Y2.44000
X2.14000
X2.15181Y1.62000
X1.64000
T4
X2.18000Y2.04000
X2.08000Y1.94000
Y2.14000
T5
X2.82000Y2.20000
Y1.80000
T6
X3.04000Y2.64442
Y2.74442
T7
X1.42000Y2.44000
X1.94756
M30
