G04 Generated by Ultiboard 13.0 *
%FSLAX25Y25*%
%MOIN*%

%ADD10C,0.00001*%
%ADD11C,0.00039*%
%ADD12C,0.00394*%
%ADD13C,0.00004*%
%ADD14C,0.00500*%


G04 ColorRGB 000000 for the following layer *
%LNDrill Symbols-Copper Top-Copper Bottom*%
%LPD*%
G54D11*
X350189Y189268D02*
X353811Y189268D01*
X352000Y187457D02*
X352000Y191079D01*
X350189Y216827D02*
X353811Y216827D01*
X352000Y215016D02*
X352000Y218638D01*
X350189Y206984D02*
X353811Y206984D01*
X352000Y205173D02*
X352000Y208795D01*
X350189Y199110D02*
X353811Y199110D01*
X352000Y197299D02*
X352000Y200921D01*
X322228Y234992D02*
G75*
D01*
G02X322228Y234992I1772J0*
G01*
X322228Y172000D02*
G75*
D01*
G02X322228Y172000I1772J0*
G01*
X300228Y230992D02*
G75*
D01*
G02X300228Y230992I1772J0*
G01*
X300228Y168000D02*
G75*
D01*
G02X300228Y168000I1772J0*
G01*
X242228Y224992D02*
G75*
D01*
G02X242228Y224992I1772J0*
G01*
X242228Y162000D02*
G75*
D01*
G02X242228Y162000I1772J0*
G01*
X264228Y225181D02*
G75*
D01*
G02X264228Y225181I1772J0*
G01*
X264228Y174000D02*
G75*
D01*
G02X264228Y174000I1772J0*
G01*
X302250Y262692D02*
X305750Y262692D01*
X304000Y265679D01*
X302250Y262692D01*
X302250Y272692D02*
X305750Y272692D01*
X304000Y275679D01*
X302250Y272692D01*
X338228Y227181D02*
G75*
D01*
G02X338228Y227181I1772J0*
G01*
X338228Y176000D02*
G75*
D01*
G02X338228Y176000I1772J0*
G01*
X275220Y244000D02*
G75*
D01*
G02X275220Y244000I1772J0*
G01*
X212228Y244000D02*
G75*
D01*
G02X212228Y244000I1772J0*
G01*
X213409Y162000D02*
G75*
D01*
G02X213409Y162000I1772J0*
G01*
X162228Y162000D02*
G75*
D01*
G02X162228Y162000I1772J0*
G01*
X521843Y231378D02*
X521843Y235000D01*
X520031Y233189D02*
X523654Y233189D01*
X520071Y249331D02*
G75*
D01*
G02X520071Y249331I1772J0*
G01*
X520093Y263722D02*
X523593Y263722D01*
X521843Y266710D01*
X520093Y263722D01*
G54D12*
X359468Y173980D02*
X365871Y180383D01*
X359468Y180383D02*
X365871Y173980D01*
X359468Y225712D02*
X365871Y232115D01*
X359468Y232115D02*
X365871Y225712D01*
X215667Y201667D02*
X220333Y201667D01*
X220333Y206334D01*
X215667Y206334D01*
X215667Y201667D01*
X205667Y191667D02*
X210333Y191667D01*
X210333Y196334D01*
X205667Y196334D01*
X205667Y191667D01*
X205667Y211667D02*
X210333Y211667D01*
X210333Y216333D01*
X205667Y216333D01*
X205667Y211667D01*
X282000Y216659D02*
X285341Y220000D01*
X282000Y223341D01*
X278659Y220000D01*
X282000Y216659D01*
X282000Y176659D02*
X285341Y180000D01*
X282000Y183341D01*
X278659Y180000D01*
X282000Y176659D01*
X140931Y243214D02*
X140931Y244393D01*
X141542Y245179D01*
X142153Y245179D01*
X142764Y244393D01*
X142764Y243214D01*
X140931Y243804D02*
X142764Y243804D01*
X139250Y244000D02*
G75*
D01*
G02X139250Y244000I2750J0*
G01*
X193686Y243214D02*
X193686Y244393D01*
X194298Y245179D01*
X194909Y245179D01*
X195520Y244393D01*
X195520Y243214D01*
X193686Y243804D02*
X195520Y243804D01*
X192006Y244000D02*
G75*
D01*
G02X192006Y244000I2750J0*
G01*
X518641Y165421D02*
X525044Y171824D01*
X518641Y171824D02*
X525044Y165421D01*
X562919Y166935D02*
X565543Y165247D01*
X568168Y165247D01*
X570793Y166935D01*
X570793Y170309D01*
X570793Y171997D01*
X568168Y173684D01*
X565543Y173684D01*
X562919Y171997D01*
X562919Y170309D01*
X565543Y168622D01*
X568168Y168622D01*
X570793Y170309D01*
X574730Y171997D02*
X577354Y173684D01*
X579979Y173684D01*
X582604Y171997D01*
X582604Y166935D01*
X579979Y165247D01*
X577354Y165247D01*
X574730Y166935D01*
X574730Y171997D01*
X582604Y171997D02*
X574730Y166935D01*
X590478Y165247D02*
X590478Y166091D01*
X606226Y173684D02*
X598352Y173684D01*
X598352Y170309D01*
X603601Y170309D01*
X606226Y168622D01*
X606226Y166935D01*
X603601Y165247D01*
X598352Y165247D01*
X618037Y173684D02*
X610163Y173684D01*
X610163Y170309D01*
X615412Y170309D01*
X618037Y168622D01*
X618037Y166935D01*
X615412Y165247D01*
X610163Y165247D01*
X623286Y171997D02*
X625911Y173684D01*
X625911Y165247D01*
X621974Y165247D02*
X629848Y165247D01*
X635097Y171997D02*
X637722Y173684D01*
X637722Y165247D01*
X633785Y165247D02*
X641659Y165247D01*
X650845Y165247D02*
X648220Y165247D01*
X645596Y166935D01*
X645596Y168622D01*
X646908Y169466D01*
X645596Y170309D01*
X645596Y171997D01*
X648220Y173684D01*
X650845Y173684D01*
X653470Y171997D01*
X653470Y170309D01*
X652157Y169466D01*
X653470Y168622D01*
X653470Y166935D01*
X650845Y165247D01*
X646908Y169466D02*
X652157Y169466D01*
X703076Y171997D02*
X705701Y173684D01*
X708325Y173684D01*
X710950Y171997D01*
X710950Y171153D01*
X703076Y165247D01*
X710950Y165247D01*
X710950Y166091D01*
X778273Y165247D02*
X778273Y173684D01*
X783522Y173684D01*
X786147Y171997D01*
X786147Y171153D01*
X783522Y169466D01*
X778273Y169466D01*
X794021Y165247D02*
X794021Y173684D01*
X790084Y173684D02*
X797958Y173684D01*
X801895Y165247D02*
X801895Y173684D01*
X809769Y165247D02*
X809769Y173684D01*
X801895Y169466D02*
X809769Y169466D01*
X847564Y171997D02*
X850189Y173684D01*
X852814Y173684D01*
X855438Y171997D01*
X855438Y166935D01*
X852814Y165247D01*
X850189Y165247D01*
X847564Y166935D01*
X847564Y171997D01*
X855438Y171997D02*
X847564Y166935D01*
X877748Y165247D02*
X876436Y165247D01*
X873811Y166935D01*
X873811Y171997D01*
X876436Y173684D01*
X877748Y173684D01*
X882997Y165247D02*
X882997Y173684D01*
X888247Y173684D01*
X890871Y171997D01*
X890871Y171153D01*
X888247Y169466D01*
X882997Y169466D01*
X884310Y169466D02*
X890871Y165247D01*
X894808Y166935D02*
X897433Y165247D01*
X900058Y165247D01*
X902682Y166935D01*
X902682Y171997D01*
X900058Y173684D01*
X897433Y173684D01*
X894808Y171997D01*
X894808Y166935D01*
X906619Y173684D02*
X906619Y166935D01*
X909244Y165247D01*
X911869Y165247D01*
X914493Y166935D01*
X914493Y173684D01*
X918430Y165247D02*
X918430Y173684D01*
X926304Y165247D01*
X926304Y173684D01*
X930241Y165247D02*
X935491Y165247D01*
X938115Y166935D01*
X938115Y171997D01*
X935491Y173684D01*
X930241Y173684D01*
X931554Y173684D02*
X931554Y165247D01*
X943365Y173684D02*
X944677Y173684D01*
X947302Y171997D01*
X947302Y166935D01*
X944677Y165247D01*
X943365Y165247D01*
X570793Y189826D02*
X562919Y189826D01*
X562919Y186451D01*
X568168Y186451D01*
X570793Y184764D01*
X570793Y183076D01*
X568168Y181389D01*
X562919Y181389D01*
X582604Y189826D02*
X574730Y189826D01*
X574730Y186451D01*
X579979Y186451D01*
X582604Y184764D01*
X582604Y183076D01*
X579979Y181389D01*
X574730Y181389D01*
X590478Y181389D02*
X590478Y182233D01*
X598352Y188138D02*
X600976Y189826D01*
X603601Y189826D01*
X606226Y188138D01*
X606226Y183076D01*
X603601Y181389D01*
X600976Y181389D01*
X598352Y183076D01*
X598352Y188138D01*
X606226Y188138D02*
X598352Y183076D01*
X610163Y188138D02*
X612787Y189826D01*
X615412Y189826D01*
X618037Y188138D01*
X618037Y183076D01*
X615412Y181389D01*
X612787Y181389D01*
X610163Y183076D01*
X610163Y188138D01*
X618037Y188138D02*
X610163Y183076D01*
X621974Y188138D02*
X624598Y189826D01*
X627223Y189826D01*
X629848Y188138D01*
X629848Y183076D01*
X627223Y181389D01*
X624598Y181389D01*
X621974Y183076D01*
X621974Y188138D01*
X629848Y188138D02*
X621974Y183076D01*
X633785Y188138D02*
X636409Y189826D01*
X639034Y189826D01*
X641659Y188138D01*
X641659Y183076D01*
X639034Y181389D01*
X636409Y181389D01*
X633785Y183076D01*
X633785Y188138D01*
X641659Y188138D02*
X633785Y183076D01*
X645596Y188138D02*
X648220Y189826D01*
X650845Y189826D01*
X653470Y188138D01*
X653470Y183076D01*
X650845Y181389D01*
X648220Y181389D01*
X645596Y183076D01*
X645596Y188138D01*
X653470Y188138D02*
X645596Y183076D01*
X703076Y188138D02*
X705701Y189826D01*
X708325Y189826D01*
X710950Y188138D01*
X710950Y187295D01*
X703076Y181389D01*
X710950Y181389D01*
X710950Y182233D01*
X778273Y181389D02*
X778273Y189826D01*
X783522Y189826D01*
X786147Y188138D01*
X786147Y187295D01*
X783522Y185607D01*
X778273Y185607D01*
X794021Y181389D02*
X794021Y189826D01*
X790084Y189826D02*
X797958Y189826D01*
X801895Y181389D02*
X801895Y189826D01*
X809769Y181389D02*
X809769Y189826D01*
X801895Y185607D02*
X809769Y185607D01*
X847564Y188138D02*
X850189Y189826D01*
X852814Y189826D01*
X855438Y188138D01*
X855438Y183076D01*
X852814Y181389D01*
X850189Y181389D01*
X847564Y183076D01*
X847564Y188138D01*
X855438Y188138D02*
X847564Y183076D01*
X877748Y181389D02*
X876436Y181389D01*
X873811Y183076D01*
X873811Y188138D01*
X876436Y189826D01*
X877748Y189826D01*
X882997Y181389D02*
X882997Y189826D01*
X888247Y189826D01*
X890871Y188138D01*
X890871Y187295D01*
X888247Y185607D01*
X882997Y185607D01*
X884310Y185607D02*
X890871Y181389D01*
X894808Y183076D02*
X897433Y181389D01*
X900058Y181389D01*
X902682Y183076D01*
X902682Y188138D01*
X900058Y189826D01*
X897433Y189826D01*
X894808Y188138D01*
X894808Y183076D01*
X906619Y189826D02*
X906619Y183076D01*
X909244Y181389D01*
X911869Y181389D01*
X914493Y183076D01*
X914493Y189826D01*
X918430Y181389D02*
X918430Y189826D01*
X926304Y181389D01*
X926304Y189826D01*
X930241Y181389D02*
X935491Y181389D01*
X938115Y183076D01*
X938115Y188138D01*
X935491Y189826D01*
X930241Y189826D01*
X931554Y189826D02*
X931554Y181389D01*
X943365Y189826D02*
X944677Y189826D01*
X947302Y188138D01*
X947302Y183076D01*
X944677Y181389D01*
X943365Y181389D01*
X520773Y183978D02*
X520773Y185157D01*
X521384Y185942D01*
X521995Y185942D01*
X522606Y185157D01*
X522606Y183978D01*
X520773Y184567D02*
X522606Y184567D01*
X519093Y184764D02*
G75*
D01*
G02X519093Y184764I2750J0*
G01*
X570793Y200906D02*
X562919Y200906D01*
X569480Y205967D01*
X569480Y197531D01*
X568168Y197531D02*
X570793Y197531D01*
X578667Y197531D02*
X578667Y201749D01*
X582604Y204280D01*
X582604Y205967D01*
X574730Y205967D01*
X574730Y204280D01*
X590478Y197531D02*
X590478Y198375D01*
X598352Y204280D02*
X600976Y205967D01*
X603601Y205967D01*
X606226Y204280D01*
X606226Y203436D01*
X598352Y197531D01*
X606226Y197531D01*
X606226Y198375D01*
X618037Y200906D02*
X610163Y200906D01*
X616724Y205967D01*
X616724Y197531D01*
X615412Y197531D02*
X618037Y197531D01*
X629848Y200906D02*
X621974Y200906D01*
X628535Y205967D01*
X628535Y197531D01*
X627223Y197531D02*
X629848Y197531D01*
X633785Y204280D02*
X636409Y205967D01*
X639034Y205967D01*
X641659Y204280D01*
X641659Y199218D01*
X639034Y197531D01*
X636409Y197531D01*
X633785Y199218D01*
X633785Y204280D01*
X641659Y204280D02*
X633785Y199218D01*
X645596Y199218D02*
X648220Y197531D01*
X650845Y197531D01*
X653470Y199218D01*
X653470Y202593D01*
X653470Y204280D01*
X650845Y205967D01*
X648220Y205967D01*
X645596Y204280D01*
X645596Y202593D01*
X648220Y200906D01*
X650845Y200906D01*
X653470Y202593D01*
X703076Y204280D02*
X705701Y205967D01*
X708325Y205967D01*
X710950Y204280D01*
X710950Y203436D01*
X703076Y197531D01*
X710950Y197531D01*
X710950Y198375D01*
X778273Y197531D02*
X778273Y205967D01*
X783522Y205967D01*
X786147Y204280D01*
X786147Y203436D01*
X783522Y201749D01*
X778273Y201749D01*
X794021Y197531D02*
X794021Y205967D01*
X790084Y205967D02*
X797958Y205967D01*
X801895Y197531D02*
X801895Y205967D01*
X809769Y197531D02*
X809769Y205967D01*
X801895Y201749D02*
X809769Y201749D01*
X847564Y204280D02*
X850189Y205967D01*
X852814Y205967D01*
X855438Y204280D01*
X855438Y199218D01*
X852814Y197531D01*
X850189Y197531D01*
X847564Y199218D01*
X847564Y204280D01*
X855438Y204280D02*
X847564Y199218D01*
X877748Y197531D02*
X876436Y197531D01*
X873811Y199218D01*
X873811Y204280D01*
X876436Y205967D01*
X877748Y205967D01*
X882997Y197531D02*
X882997Y205967D01*
X888247Y205967D01*
X890871Y204280D01*
X890871Y203436D01*
X888247Y201749D01*
X882997Y201749D01*
X884310Y201749D02*
X890871Y197531D01*
X894808Y199218D02*
X897433Y197531D01*
X900058Y197531D01*
X902682Y199218D01*
X902682Y204280D01*
X900058Y205967D01*
X897433Y205967D01*
X894808Y204280D01*
X894808Y199218D01*
X906619Y205967D02*
X906619Y199218D01*
X909244Y197531D01*
X911869Y197531D01*
X914493Y199218D01*
X914493Y205967D01*
X918430Y197531D02*
X918430Y205967D01*
X926304Y197531D01*
X926304Y205967D01*
X930241Y197531D02*
X935491Y197531D01*
X938115Y199218D01*
X938115Y204280D01*
X935491Y205967D01*
X930241Y205967D01*
X931554Y205967D02*
X931554Y197531D01*
X943365Y205967D02*
X944677Y205967D01*
X947302Y204280D01*
X947302Y199218D01*
X944677Y197531D01*
X943365Y197531D01*
X521843Y197565D02*
X525183Y200906D01*
X521843Y204246D01*
X518502Y200906D01*
X521843Y197565D01*
X570793Y217047D02*
X562919Y217047D01*
X569480Y222109D01*
X569480Y213673D01*
X568168Y213673D02*
X570793Y213673D01*
X581291Y222109D02*
X577354Y222109D01*
X574730Y220422D01*
X574730Y217047D01*
X574730Y215360D01*
X577354Y213673D01*
X579979Y213673D01*
X582604Y215360D01*
X582604Y217047D01*
X579979Y218735D01*
X577354Y218735D01*
X574730Y217047D01*
X590478Y213673D02*
X590478Y214516D01*
X604913Y222109D02*
X600976Y222109D01*
X598352Y220422D01*
X598352Y217047D01*
X598352Y215360D01*
X600976Y213673D01*
X603601Y213673D01*
X606226Y215360D01*
X606226Y217047D01*
X603601Y218735D01*
X600976Y218735D01*
X598352Y217047D01*
X614100Y213673D02*
X614100Y217891D01*
X618037Y220422D01*
X618037Y222109D01*
X610163Y222109D01*
X610163Y220422D01*
X621974Y220422D02*
X624598Y222109D01*
X627223Y222109D01*
X629848Y220422D01*
X629848Y215360D01*
X627223Y213673D01*
X624598Y213673D01*
X621974Y215360D01*
X621974Y220422D01*
X629848Y220422D02*
X621974Y215360D01*
X633785Y220422D02*
X636409Y222109D01*
X639034Y222109D01*
X641659Y220422D01*
X641659Y215360D01*
X639034Y213673D01*
X636409Y213673D01*
X633785Y215360D01*
X633785Y220422D01*
X641659Y220422D02*
X633785Y215360D01*
X645596Y220422D02*
X648220Y222109D01*
X650845Y222109D01*
X653470Y220422D01*
X653470Y215360D01*
X650845Y213673D01*
X648220Y213673D01*
X645596Y215360D01*
X645596Y220422D01*
X653470Y220422D02*
X645596Y215360D01*
X704388Y221265D02*
X705701Y222109D01*
X708325Y222109D01*
X710950Y220422D01*
X710950Y218735D01*
X709638Y217891D01*
X710950Y217047D01*
X710950Y215360D01*
X708325Y213673D01*
X705701Y213673D01*
X704388Y214516D01*
X705701Y217891D02*
X709638Y217891D01*
X778273Y213673D02*
X778273Y222109D01*
X783522Y222109D01*
X786147Y220422D01*
X786147Y219578D01*
X783522Y217891D01*
X778273Y217891D01*
X794021Y213673D02*
X794021Y222109D01*
X790084Y222109D02*
X797958Y222109D01*
X801895Y213673D02*
X801895Y222109D01*
X809769Y213673D02*
X809769Y222109D01*
X801895Y217891D02*
X809769Y217891D01*
X847564Y220422D02*
X850189Y222109D01*
X852814Y222109D01*
X855438Y220422D01*
X855438Y215360D01*
X852814Y213673D01*
X850189Y213673D01*
X847564Y215360D01*
X847564Y220422D01*
X855438Y220422D02*
X847564Y215360D01*
X877748Y213673D02*
X876436Y213673D01*
X873811Y215360D01*
X873811Y220422D01*
X876436Y222109D01*
X877748Y222109D01*
X882997Y213673D02*
X882997Y222109D01*
X888247Y222109D01*
X890871Y220422D01*
X890871Y219578D01*
X888247Y217891D01*
X882997Y217891D01*
X884310Y217891D02*
X890871Y213673D01*
X894808Y215360D02*
X897433Y213673D01*
X900058Y213673D01*
X902682Y215360D01*
X902682Y220422D01*
X900058Y222109D01*
X897433Y222109D01*
X894808Y220422D01*
X894808Y215360D01*
X906619Y222109D02*
X906619Y215360D01*
X909244Y213673D01*
X911869Y213673D01*
X914493Y215360D01*
X914493Y222109D01*
X918430Y213673D02*
X918430Y222109D01*
X926304Y213673D01*
X926304Y222109D01*
X930241Y213673D02*
X935491Y213673D01*
X938115Y215360D01*
X938115Y220422D01*
X935491Y222109D01*
X930241Y222109D01*
X931554Y222109D02*
X931554Y213673D01*
X943365Y222109D02*
X944677Y222109D01*
X947302Y220422D01*
X947302Y215360D01*
X944677Y213673D01*
X943365Y213673D01*
X519509Y214714D02*
X524176Y214714D01*
X524176Y219381D01*
X519509Y219381D01*
X519509Y214714D01*
X564231Y237407D02*
X565543Y238251D01*
X568168Y238251D01*
X570793Y236564D01*
X570793Y234876D01*
X569480Y234033D01*
X570793Y233189D01*
X570793Y231502D01*
X568168Y229814D01*
X565543Y229814D01*
X564231Y230658D01*
X565543Y234033D02*
X569480Y234033D01*
X581291Y238251D02*
X577354Y238251D01*
X574730Y236564D01*
X574730Y233189D01*
X574730Y231502D01*
X577354Y229814D01*
X579979Y229814D01*
X582604Y231502D01*
X582604Y233189D01*
X579979Y234876D01*
X577354Y234876D01*
X574730Y233189D01*
X590478Y229814D02*
X590478Y230658D01*
X598352Y236564D02*
X600976Y238251D01*
X603601Y238251D01*
X606226Y236564D01*
X606226Y235720D01*
X598352Y229814D01*
X606226Y229814D01*
X606226Y230658D01*
X610163Y236564D02*
X612787Y238251D01*
X615412Y238251D01*
X618037Y236564D01*
X618037Y235720D01*
X610163Y229814D01*
X618037Y229814D01*
X618037Y230658D01*
X621974Y236564D02*
X624598Y238251D01*
X627223Y238251D01*
X629848Y236564D01*
X629848Y231502D01*
X627223Y229814D01*
X624598Y229814D01*
X621974Y231502D01*
X621974Y236564D01*
X629848Y236564D02*
X621974Y231502D01*
X641659Y233189D02*
X633785Y233189D01*
X640346Y238251D01*
X640346Y229814D01*
X639034Y229814D02*
X641659Y229814D01*
X649533Y229814D02*
X649533Y234033D01*
X653470Y236564D01*
X653470Y238251D01*
X645596Y238251D01*
X645596Y236564D01*
X710950Y233189D02*
X703076Y233189D01*
X709638Y238251D01*
X709638Y229814D01*
X708325Y229814D02*
X710950Y229814D01*
X778273Y229814D02*
X778273Y238251D01*
X783522Y238251D01*
X786147Y236564D01*
X786147Y235720D01*
X783522Y234033D01*
X778273Y234033D01*
X794021Y229814D02*
X794021Y238251D01*
X790084Y238251D02*
X797958Y238251D01*
X801895Y229814D02*
X801895Y238251D01*
X809769Y229814D02*
X809769Y238251D01*
X801895Y234033D02*
X809769Y234033D01*
X847564Y236564D02*
X850189Y238251D01*
X852814Y238251D01*
X855438Y236564D01*
X855438Y231502D01*
X852814Y229814D01*
X850189Y229814D01*
X847564Y231502D01*
X847564Y236564D01*
X855438Y236564D02*
X847564Y231502D01*
X877748Y229814D02*
X876436Y229814D01*
X873811Y231502D01*
X873811Y236564D01*
X876436Y238251D01*
X877748Y238251D01*
X882997Y229814D02*
X882997Y238251D01*
X888247Y238251D01*
X890871Y236564D01*
X890871Y235720D01*
X888247Y234033D01*
X882997Y234033D01*
X884310Y234033D02*
X890871Y229814D01*
X894808Y231502D02*
X897433Y229814D01*
X900058Y229814D01*
X902682Y231502D01*
X902682Y236564D01*
X900058Y238251D01*
X897433Y238251D01*
X894808Y236564D01*
X894808Y231502D01*
X906619Y238251D02*
X906619Y231502D01*
X909244Y229814D01*
X911869Y229814D01*
X914493Y231502D01*
X914493Y238251D01*
X918430Y229814D02*
X918430Y238251D01*
X926304Y229814D01*
X926304Y238251D01*
X930241Y229814D02*
X935491Y229814D01*
X938115Y231502D01*
X938115Y236564D01*
X935491Y238251D01*
X930241Y238251D01*
X931554Y238251D02*
X931554Y229814D01*
X943365Y238251D02*
X944677Y238251D01*
X947302Y236564D01*
X947302Y231502D01*
X944677Y229814D01*
X943365Y229814D01*
X564231Y253549D02*
X565543Y254393D01*
X568168Y254393D01*
X570793Y252705D01*
X570793Y251018D01*
X569480Y250174D01*
X570793Y249331D01*
X570793Y247643D01*
X568168Y245956D01*
X565543Y245956D01*
X564231Y246800D01*
X565543Y250174D02*
X569480Y250174D01*
X582604Y254393D02*
X574730Y254393D01*
X574730Y251018D01*
X579979Y251018D01*
X582604Y249331D01*
X582604Y247643D01*
X579979Y245956D01*
X574730Y245956D01*
X590478Y245956D02*
X590478Y246800D01*
X606226Y249331D02*
X598352Y249331D01*
X604913Y254393D01*
X604913Y245956D01*
X603601Y245956D02*
X606226Y245956D01*
X611475Y253549D02*
X612787Y254393D01*
X615412Y254393D01*
X618037Y252705D01*
X618037Y251018D01*
X616724Y250174D01*
X618037Y249331D01*
X618037Y247643D01*
X615412Y245956D01*
X612787Y245956D01*
X611475Y246800D01*
X612787Y250174D02*
X616724Y250174D01*
X623286Y253549D02*
X624598Y254393D01*
X627223Y254393D01*
X629848Y252705D01*
X629848Y251018D01*
X628535Y250174D01*
X629848Y249331D01*
X629848Y247643D01*
X627223Y245956D01*
X624598Y245956D01*
X623286Y246800D01*
X624598Y250174D02*
X628535Y250174D01*
X633785Y252705D02*
X636409Y254393D01*
X639034Y254393D01*
X641659Y252705D01*
X641659Y247643D01*
X639034Y245956D01*
X636409Y245956D01*
X633785Y247643D01*
X633785Y252705D01*
X641659Y252705D02*
X633785Y247643D01*
X649533Y245956D02*
X649533Y250174D01*
X653470Y252705D01*
X653470Y254393D01*
X645596Y254393D01*
X645596Y252705D01*
X698483Y252705D02*
X701108Y254393D01*
X701108Y245956D01*
X697171Y245956D02*
X705045Y245956D01*
X716856Y249331D02*
X708982Y249331D01*
X715543Y254393D01*
X715543Y245956D01*
X714231Y245956D02*
X716856Y245956D01*
X778273Y245956D02*
X778273Y254393D01*
X783522Y254393D01*
X786147Y252705D01*
X786147Y251862D01*
X783522Y250174D01*
X778273Y250174D01*
X794021Y245956D02*
X794021Y254393D01*
X790084Y254393D02*
X797958Y254393D01*
X801895Y245956D02*
X801895Y254393D01*
X809769Y245956D02*
X809769Y254393D01*
X801895Y250174D02*
X809769Y250174D01*
X847564Y252705D02*
X850189Y254393D01*
X852814Y254393D01*
X855438Y252705D01*
X855438Y247643D01*
X852814Y245956D01*
X850189Y245956D01*
X847564Y247643D01*
X847564Y252705D01*
X855438Y252705D02*
X847564Y247643D01*
X877748Y245956D02*
X876436Y245956D01*
X873811Y247643D01*
X873811Y252705D01*
X876436Y254393D01*
X877748Y254393D01*
X882997Y245956D02*
X882997Y254393D01*
X888247Y254393D01*
X890871Y252705D01*
X890871Y251862D01*
X888247Y250174D01*
X882997Y250174D01*
X884310Y250174D02*
X890871Y245956D01*
X894808Y247643D02*
X897433Y245956D01*
X900058Y245956D01*
X902682Y247643D01*
X902682Y252705D01*
X900058Y254393D01*
X897433Y254393D01*
X894808Y252705D01*
X894808Y247643D01*
X906619Y254393D02*
X906619Y247643D01*
X909244Y245956D01*
X911869Y245956D01*
X914493Y247643D01*
X914493Y254393D01*
X918430Y245956D02*
X918430Y254393D01*
X926304Y245956D01*
X926304Y254393D01*
X930241Y245956D02*
X935491Y245956D01*
X938115Y247643D01*
X938115Y252705D01*
X935491Y254393D01*
X930241Y254393D01*
X931554Y254393D02*
X931554Y245956D01*
X943365Y254393D02*
X944677Y254393D01*
X947302Y252705D01*
X947302Y247643D01*
X944677Y245956D01*
X943365Y245956D01*
X564231Y269691D02*
X565543Y270534D01*
X568168Y270534D01*
X570793Y268847D01*
X570793Y267160D01*
X569480Y266316D01*
X570793Y265472D01*
X570793Y263785D01*
X568168Y262098D01*
X565543Y262098D01*
X564231Y262942D01*
X565543Y266316D02*
X569480Y266316D01*
X582604Y270534D02*
X574730Y270534D01*
X574730Y267160D01*
X579979Y267160D01*
X582604Y265472D01*
X582604Y263785D01*
X579979Y262098D01*
X574730Y262098D01*
X590478Y262098D02*
X590478Y262942D01*
X598352Y268847D02*
X600976Y270534D01*
X603601Y270534D01*
X606226Y268847D01*
X606226Y263785D01*
X603601Y262098D01*
X600976Y262098D01*
X598352Y263785D01*
X598352Y268847D01*
X606226Y268847D02*
X598352Y263785D01*
X610163Y268847D02*
X612787Y270534D01*
X615412Y270534D01*
X618037Y268847D01*
X618037Y263785D01*
X615412Y262098D01*
X612787Y262098D01*
X610163Y263785D01*
X610163Y268847D01*
X618037Y268847D02*
X610163Y263785D01*
X621974Y268847D02*
X624598Y270534D01*
X627223Y270534D01*
X629848Y268847D01*
X629848Y263785D01*
X627223Y262098D01*
X624598Y262098D01*
X621974Y263785D01*
X621974Y268847D01*
X629848Y268847D02*
X621974Y263785D01*
X633785Y268847D02*
X636409Y270534D01*
X639034Y270534D01*
X641659Y268847D01*
X641659Y263785D01*
X639034Y262098D01*
X636409Y262098D01*
X633785Y263785D01*
X633785Y268847D01*
X641659Y268847D02*
X633785Y263785D01*
X645596Y268847D02*
X648220Y270534D01*
X650845Y270534D01*
X653470Y268847D01*
X653470Y263785D01*
X650845Y262098D01*
X648220Y262098D01*
X645596Y263785D01*
X645596Y268847D01*
X653470Y268847D02*
X645596Y263785D01*
X703076Y268847D02*
X705701Y270534D01*
X708325Y270534D01*
X710950Y268847D01*
X710950Y268003D01*
X703076Y262098D01*
X710950Y262098D01*
X710950Y262942D01*
X778273Y262098D02*
X778273Y270534D01*
X783522Y270534D01*
X786147Y268847D01*
X786147Y268003D01*
X783522Y266316D01*
X778273Y266316D01*
X794021Y262098D02*
X794021Y270534D01*
X790084Y270534D02*
X797958Y270534D01*
X801895Y262098D02*
X801895Y270534D01*
X809769Y262098D02*
X809769Y270534D01*
X801895Y266316D02*
X809769Y266316D01*
X847564Y268847D02*
X850189Y270534D01*
X852814Y270534D01*
X855438Y268847D01*
X855438Y263785D01*
X852814Y262098D01*
X850189Y262098D01*
X847564Y263785D01*
X847564Y268847D01*
X855438Y268847D02*
X847564Y263785D01*
X877748Y262098D02*
X876436Y262098D01*
X873811Y263785D01*
X873811Y268847D01*
X876436Y270534D01*
X877748Y270534D01*
X882997Y262098D02*
X882997Y270534D01*
X888247Y270534D01*
X890871Y268847D01*
X890871Y268003D01*
X888247Y266316D01*
X882997Y266316D01*
X884310Y266316D02*
X890871Y262098D01*
X894808Y263785D02*
X897433Y262098D01*
X900058Y262098D01*
X902682Y263785D01*
X902682Y268847D01*
X900058Y270534D01*
X897433Y270534D01*
X894808Y268847D01*
X894808Y263785D01*
X906619Y270534D02*
X906619Y263785D01*
X909244Y262098D01*
X911869Y262098D01*
X914493Y263785D01*
X914493Y270534D01*
X918430Y262098D02*
X918430Y270534D01*
X926304Y262098D01*
X926304Y270534D01*
X930241Y262098D02*
X935491Y262098D01*
X938115Y263785D01*
X938115Y268847D01*
X935491Y270534D01*
X930241Y270534D01*
X931554Y270534D02*
X931554Y262098D01*
X943365Y270534D02*
X944677Y270534D01*
X947302Y268847D01*
X947302Y263785D01*
X944677Y262098D01*
X943365Y262098D01*
G04 ColorRGB 00FFFF for the following layer *
%LNBoard Outline*%
%LPD*%
G54D10*
G54D13*
X103996Y101998D02*
X382021Y101998D01*
X382021Y319000D01*
X103996Y319000D01*
X103996Y101998D01*
G54D14*
X20500Y65500D02*
X20500Y90950D01*
X20500Y65500D02*
X58804Y65500D01*
X403535Y65500D02*
X365232Y65500D01*
X403535Y65500D02*
X403535Y90950D01*
X403535Y320000D02*
X403535Y294550D01*
X403535Y320000D02*
X365232Y320000D01*
X20500Y320000D02*
X58804Y320000D01*
X20500Y320000D02*
X20500Y294550D01*
X815Y65500D02*
X-38555Y65500D01*
X-18870Y45815D02*
X-18870Y85185D01*
X-33634Y65500D02*
G75*
D01*
G02X-33634Y65500I14764J0*
G01*
X423220Y65500D02*
X462591Y65500D01*
X442906Y45815D02*
X442906Y85185D01*
X428142Y65500D02*
G75*
D01*
G02X428142Y65500I14764J0*
G01*
X437984Y65500D02*
G75*
D01*
G02X437984Y65500I4922J0*
G01*
X815Y320000D02*
X-38555Y320000D01*
X-18870Y300315D02*
X-18870Y339685D01*
X-33634Y320000D02*
G75*
D01*
G02X-33634Y320000I14764J0*
G01*
X-28713Y320000D02*
G75*
D01*
G02X-28713Y320000I9843J0*
G01*
X-23791Y320000D02*
G75*
D01*
G02X-23791Y320000I4921J0*
G01*
G04 ColorRGB 66FFCC for the following layer *
%LNLegend Description*%
%LPD*%
G54D12*
X484244Y160551D02*
X966528Y160551D01*
X966528Y321969D01*
X484244Y321969D01*
X484244Y160551D01*
X559441Y289685D02*
X559441Y160551D01*
X658260Y289685D02*
X658260Y160551D01*
X757079Y289685D02*
X757079Y160551D01*
X832276Y289685D02*
X832276Y160551D01*
X966528Y289685D02*
X966528Y160551D01*
X484244Y176693D02*
X966528Y176693D01*
X484244Y192835D02*
X966528Y192835D01*
X484244Y208976D02*
X966528Y208976D01*
X484244Y225118D02*
X966528Y225118D01*
X484244Y241260D02*
X966528Y241260D01*
X484244Y257402D02*
X966528Y257402D01*
X487722Y279927D02*
X490346Y278240D01*
X492971Y278240D01*
X495596Y279927D01*
X487722Y284989D01*
X490346Y286676D01*
X492971Y286676D01*
X495596Y284989D01*
X499533Y275709D02*
X500845Y275709D01*
X507407Y284145D01*
X499533Y284145D02*
X503470Y279083D01*
X511344Y278240D02*
X511344Y283301D01*
X511344Y284145D01*
X511344Y283301D02*
X512656Y284145D01*
X513969Y284145D01*
X515281Y283301D01*
X516593Y284145D01*
X517906Y284145D01*
X519218Y283301D01*
X519218Y278240D01*
X515281Y283301D02*
X515281Y278240D01*
X523155Y279927D02*
X525780Y278240D01*
X528404Y278240D01*
X531029Y279927D01*
X531029Y281614D01*
X528404Y283301D01*
X525780Y283301D01*
X523155Y281614D01*
X523155Y286676D02*
X523155Y278240D01*
X534966Y279927D02*
X537591Y278240D01*
X540215Y278240D01*
X542840Y279927D01*
X542840Y282458D01*
X540215Y284145D01*
X537591Y284145D01*
X534966Y282458D01*
X534966Y279927D01*
X548089Y286676D02*
X548089Y279927D01*
X550714Y278240D01*
X484244Y273543D02*
X966528Y273543D01*
X586541Y279927D02*
X589165Y278240D01*
X591790Y278240D01*
X594415Y279927D01*
X586541Y284989D01*
X589165Y286676D01*
X591790Y286676D01*
X594415Y284989D01*
X602289Y278240D02*
X602289Y283301D01*
X602289Y284989D02*
X602289Y285832D01*
X610163Y284145D02*
X618037Y284145D01*
X610163Y278240D01*
X618037Y278240D01*
X629848Y279927D02*
X627223Y278240D01*
X624598Y278240D01*
X621974Y279927D01*
X621974Y282458D01*
X624598Y284145D01*
X627223Y284145D01*
X629848Y282458D01*
X628535Y281614D01*
X621974Y281614D01*
X661738Y279927D02*
X664362Y278240D01*
X666987Y278240D01*
X669612Y279927D01*
X669612Y284989D01*
X666987Y286676D01*
X664362Y286676D01*
X661738Y284989D01*
X661738Y279927D01*
X666987Y279927D02*
X669612Y278240D01*
X673549Y284145D02*
X673549Y279927D01*
X676173Y278240D01*
X678798Y278240D01*
X681423Y279927D01*
X681423Y284145D01*
X681423Y279927D02*
X681423Y278240D01*
X686672Y284145D02*
X690609Y284145D01*
X691921Y283301D01*
X691921Y279083D01*
X690609Y278240D01*
X686672Y278240D01*
X685360Y279083D01*
X685360Y280771D01*
X686672Y281614D01*
X691921Y281614D01*
X691921Y279083D02*
X693234Y278240D01*
X697171Y278240D02*
X697171Y283301D01*
X697171Y284145D01*
X697171Y283301D02*
X698483Y284145D01*
X701108Y284145D01*
X702420Y283301D01*
X702420Y278240D01*
X715543Y279083D02*
X714231Y278240D01*
X712919Y279083D01*
X712919Y286676D01*
X710294Y284145D02*
X715543Y284145D01*
X724730Y278240D02*
X724730Y283301D01*
X724730Y284989D02*
X724730Y285832D01*
X739165Y279083D02*
X737853Y278240D01*
X736541Y279083D01*
X736541Y286676D01*
X733916Y284145D02*
X739165Y284145D01*
X744415Y275709D02*
X745727Y275709D01*
X752289Y284145D01*
X744415Y284145D02*
X748352Y279083D01*
X760556Y278240D02*
X760556Y286676D01*
X765806Y286676D01*
X768430Y284989D01*
X768430Y284145D01*
X765806Y282458D01*
X760556Y282458D01*
X773680Y286676D02*
X773680Y279927D01*
X776304Y278240D01*
X785491Y284145D02*
X789428Y284145D01*
X790740Y283301D01*
X790740Y279083D01*
X789428Y278240D01*
X785491Y278240D01*
X784178Y279083D01*
X784178Y280771D01*
X785491Y281614D01*
X790740Y281614D01*
X790740Y279083D02*
X792052Y278240D01*
X802551Y279083D02*
X801239Y278240D01*
X799927Y279083D01*
X799927Y286676D01*
X797302Y284145D02*
X802551Y284145D01*
X815675Y279927D02*
X813050Y278240D01*
X810425Y278240D01*
X807801Y279927D01*
X807801Y282458D01*
X810425Y284145D01*
X813050Y284145D01*
X815675Y282458D01*
X814362Y281614D01*
X807801Y281614D01*
X827486Y279927D02*
X824861Y278240D01*
X822236Y278240D01*
X819612Y279927D01*
X819612Y281614D01*
X822236Y283301D01*
X824861Y283301D01*
X827486Y281614D01*
X827486Y286676D02*
X827486Y278240D01*
X835753Y279927D02*
X838378Y278240D01*
X841003Y278240D01*
X843627Y279927D01*
X835753Y284989D01*
X838378Y286676D01*
X841003Y286676D01*
X843627Y284989D01*
X848877Y286676D02*
X848877Y279927D01*
X851501Y278240D01*
X859375Y279927D02*
X862000Y278240D01*
X864625Y278240D01*
X867249Y279927D01*
X867249Y282458D01*
X864625Y284145D01*
X862000Y284145D01*
X859375Y282458D01*
X859375Y279927D01*
X877748Y279083D02*
X876436Y278240D01*
X875123Y279083D01*
X875123Y286676D01*
X872499Y284145D02*
X877748Y284145D01*
X894808Y286676D02*
X894808Y278240D01*
X902682Y278240D01*
X914493Y279927D02*
X911869Y278240D01*
X909244Y278240D01*
X906619Y279927D01*
X906619Y282458D01*
X909244Y284145D01*
X911869Y284145D01*
X914493Y282458D01*
X913181Y281614D01*
X906619Y281614D01*
X918430Y278240D02*
X918430Y283301D01*
X918430Y284145D01*
X918430Y283301D02*
X919743Y284145D01*
X922367Y284145D01*
X923680Y283301D01*
X923680Y278240D01*
X930241Y277396D02*
X932866Y275709D01*
X935491Y275709D01*
X938115Y277396D01*
X938115Y279927D01*
X938115Y282458D01*
X935491Y284145D01*
X932866Y284145D01*
X930241Y282458D01*
X930241Y279927D01*
X932866Y278240D01*
X935491Y278240D01*
X938115Y279927D01*
X948614Y279083D02*
X947302Y278240D01*
X945990Y279083D01*
X945990Y286676D01*
X943365Y284145D02*
X948614Y284145D01*
X953864Y282458D02*
X956488Y284145D01*
X959113Y284145D01*
X961738Y282458D01*
X961738Y278240D01*
X953864Y286676D02*
X953864Y278240D01*
X484244Y289685D02*
X966528Y289685D01*
X608588Y294381D02*
X608588Y299443D01*
X611213Y302818D01*
X613837Y302818D01*
X616462Y299443D01*
X616462Y294381D01*
X608588Y296912D02*
X616462Y296912D01*
X621711Y302818D02*
X621711Y296069D01*
X624336Y294381D01*
X633522Y302818D02*
X633522Y296069D01*
X636147Y294381D01*
X655832Y300287D02*
X655832Y296069D01*
X658457Y294381D01*
X661081Y294381D01*
X663706Y296069D01*
X663706Y300287D01*
X663706Y296069D02*
X663706Y294381D01*
X667643Y294381D02*
X667643Y299443D01*
X667643Y300287D01*
X667643Y299443D02*
X668955Y300287D01*
X671580Y300287D01*
X672892Y299443D01*
X672892Y294381D01*
X683391Y294381D02*
X683391Y299443D01*
X683391Y301130D02*
X683391Y301974D01*
X697827Y295225D02*
X696514Y294381D01*
X695202Y295225D01*
X695202Y302818D01*
X692577Y300287D02*
X697827Y300287D01*
X703076Y296069D02*
X705701Y294381D01*
X708325Y294381D01*
X710950Y296069D01*
X703076Y298600D01*
X705701Y300287D01*
X708325Y300287D01*
X710950Y298600D01*
X728010Y300287D02*
X731948Y300287D01*
X733260Y299443D01*
X733260Y295225D01*
X731948Y294381D01*
X728010Y294381D01*
X726698Y295225D01*
X726698Y296912D01*
X728010Y297756D01*
X733260Y297756D01*
X733260Y295225D02*
X734572Y294381D01*
X738509Y297756D02*
X742446Y300287D01*
X743759Y300287D01*
X746383Y298600D01*
X738509Y294381D02*
X738509Y300287D01*
X758194Y296069D02*
X755570Y294381D01*
X752945Y294381D01*
X750320Y296069D01*
X750320Y298600D01*
X752945Y300287D01*
X755570Y300287D01*
X758194Y298600D01*
X756882Y297756D01*
X750320Y297756D01*
X777879Y294381D02*
X777879Y299443D01*
X777879Y301130D02*
X777879Y301974D01*
X785753Y294381D02*
X785753Y299443D01*
X785753Y300287D01*
X785753Y299443D02*
X787066Y300287D01*
X789690Y300287D01*
X791003Y299443D01*
X791003Y294381D01*
X809375Y294381D02*
X809375Y299443D01*
X809375Y300287D01*
X809375Y299443D02*
X810688Y300287D01*
X812000Y300287D01*
X813312Y299443D01*
X814625Y300287D01*
X815937Y300287D01*
X817249Y299443D01*
X817249Y294381D01*
X813312Y299443D02*
X813312Y294381D01*
X825123Y294381D02*
X825123Y299443D01*
X825123Y301130D02*
X825123Y301974D01*
X834310Y302818D02*
X834310Y296069D01*
X836934Y294381D01*
X484244Y305827D02*
X966528Y305827D01*
X655832Y310523D02*
X661081Y310523D01*
X663706Y312210D01*
X663706Y317272D01*
X661081Y318960D01*
X655832Y318960D01*
X657144Y318960D02*
X657144Y310523D01*
X667643Y313898D02*
X671580Y316429D01*
X672892Y316429D01*
X675517Y314741D01*
X667643Y310523D02*
X667643Y316429D01*
X683391Y310523D02*
X683391Y315585D01*
X683391Y317272D02*
X683391Y318116D01*
X692577Y318960D02*
X692577Y312210D01*
X695202Y310523D01*
X704388Y318960D02*
X704388Y312210D01*
X707013Y310523D01*
X726698Y318960D02*
X726698Y310523D01*
X734572Y310523D01*
X746383Y312210D02*
X743759Y310523D01*
X741134Y310523D01*
X738509Y312210D01*
X738509Y314741D01*
X741134Y316429D01*
X743759Y316429D01*
X746383Y314741D01*
X745071Y313898D01*
X738509Y313898D01*
X750320Y309679D02*
X752945Y307992D01*
X755570Y307992D01*
X758194Y309679D01*
X758194Y312210D01*
X758194Y314741D01*
X755570Y316429D01*
X752945Y316429D01*
X750320Y314741D01*
X750320Y312210D01*
X752945Y310523D01*
X755570Y310523D01*
X758194Y312210D01*
X770005Y312210D02*
X767381Y310523D01*
X764756Y310523D01*
X762131Y312210D01*
X762131Y314741D01*
X764756Y316429D01*
X767381Y316429D01*
X770005Y314741D01*
X768693Y313898D01*
X762131Y313898D01*
X773942Y310523D02*
X773942Y315585D01*
X773942Y316429D01*
X773942Y315585D02*
X775255Y316429D01*
X777879Y316429D01*
X779192Y315585D01*
X779192Y310523D01*
X793627Y312210D02*
X791003Y310523D01*
X788378Y310523D01*
X785753Y312210D01*
X785753Y313898D01*
X788378Y315585D01*
X791003Y315585D01*
X793627Y313898D01*
X793627Y318960D02*
X793627Y310523D01*

M02*
