G04 Generated by Ultiboard 13.0 *
%FSLAX25Y25*%
%MOIN*%

%ADD10C,0.00001*%
%ADD11C,0.00612*%
%ADD12C,0.00787*%
%ADD13C,0.00004*%
%ADD14C,0.00800*%
%ADD15C,0.00394*%
%ADD16C,0.00591*%
%ADD17C,0.00219*%
%ADD18C,0.00005*%
%ADD19C,0.00500*%


G04 ColorRGB FFFF00 for the following layer *
%LNSilkscreen Top*%
%LPD*%
G54D10*
G54D11*
X365543Y196337D02*
X366331Y197121D01*
X366331Y197905D01*
X365543Y198689D01*
X362394Y198689D01*
X363181Y200256D02*
X362394Y201040D01*
X366331Y201040D01*
X366331Y199864D02*
X366331Y202216D01*
X167392Y241669D02*
X168960Y241669D01*
X169744Y242457D01*
X169744Y244819D01*
X168960Y245606D01*
X167392Y245606D01*
X167784Y245606D02*
X167784Y241669D01*
X171311Y244819D02*
X172095Y245606D01*
X172095Y241669D01*
X170920Y241669D02*
X173271Y241669D01*
G54D12*
X348024Y228894D02*
X355976Y228894D01*
X355976Y235602D01*
X369362Y235606D01*
X369362Y228894D01*
X403142Y228894D01*
X403142Y177201D01*
X369362Y177201D01*
X369362Y170488D01*
X355976Y170488D01*
X355976Y177201D01*
X348024Y177201D01*
X348024Y228894D01*
X158142Y244000D02*
X146724Y244000D01*
X178614Y244000D02*
X190031Y244000D01*
X158929Y248724D02*
X177827Y248724D01*
X177827Y239276D01*
X158929Y239276D01*
X158929Y248724D01*
G54D13*
G36*
X322723Y220343D02*
X322723Y220343D01*
X323692Y214760D01*
X323692Y220343D01*
X322723Y220343D01*
D02*
G37*
X323692Y214760D01*
X323692Y220343D01*
X322723Y220343D01*
G36*
X323692Y214760D02*
X323692Y214760D01*
X322723Y220343D01*
X322723Y218041D01*
X323692Y214760D01*
D02*
G37*
X322723Y220343D01*
X322723Y218041D01*
X323692Y214760D01*
G36*
X322723Y218041D02*
X322723Y218041D01*
X322723Y217061D01*
X323692Y214760D01*
X322723Y218041D01*
D02*
G37*
X322723Y217061D01*
X323692Y214760D01*
X322723Y218041D01*
G36*
X322723Y217061D02*
X322723Y217061D01*
X322723Y218041D01*
X320422Y218041D01*
X322723Y217061D01*
D02*
G37*
X322723Y218041D01*
X320422Y218041D01*
X322723Y217061D01*
G36*
X320422Y218041D02*
X320422Y218041D01*
X320422Y217061D01*
X322723Y217061D01*
X320422Y218041D01*
D02*
G37*
X320422Y217061D01*
X322723Y217061D01*
X320422Y218041D01*
G36*
X323692Y217061D02*
X323692Y217061D01*
X326011Y217061D01*
X323692Y218041D01*
X323692Y217061D01*
D02*
G37*
X326011Y217061D01*
X323692Y218041D01*
X323692Y217061D01*
G36*
X323692Y217061D01*
X323692Y220343D01*
X323692Y217061D01*
D02*
G37*
X323692Y220343D01*
X323692Y217061D01*
G36*
X323692Y217061D01*
X323692Y220343D01*
X323692Y214760D01*
X323692Y217061D01*
D02*
G37*
X323692Y220343D01*
X323692Y214760D01*
X323692Y217061D01*
G36*
X323692Y218041D02*
X323692Y218041D01*
X326011Y217061D01*
X326011Y218041D01*
X323692Y218041D01*
D02*
G37*
X326011Y217061D01*
X326011Y218041D01*
X323692Y218041D01*
G36*
X323692Y214760D02*
X323692Y214760D01*
X322723Y217061D01*
X322723Y214760D01*
X323692Y214760D01*
D02*
G37*
X322723Y217061D01*
X322723Y214760D01*
X323692Y214760D01*
G36*
X301723Y195343D02*
X301723Y195343D01*
X302692Y189760D01*
X302692Y195343D01*
X301723Y195343D01*
D02*
G37*
X302692Y189760D01*
X302692Y195343D01*
X301723Y195343D01*
G36*
X302692Y189760D02*
X302692Y189760D01*
X301723Y195343D01*
X301723Y193041D01*
X302692Y189760D01*
D02*
G37*
X301723Y195343D01*
X301723Y193041D01*
X302692Y189760D01*
G36*
X301723Y193041D02*
X301723Y193041D01*
X301723Y192061D01*
X302692Y189760D01*
X301723Y193041D01*
D02*
G37*
X301723Y192061D01*
X302692Y189760D01*
X301723Y193041D01*
G36*
X301723Y192061D02*
X301723Y192061D01*
X301723Y193041D01*
X299422Y193041D01*
X301723Y192061D01*
D02*
G37*
X301723Y193041D01*
X299422Y193041D01*
X301723Y192061D01*
G36*
X299422Y193041D02*
X299422Y193041D01*
X299422Y192061D01*
X301723Y192061D01*
X299422Y193041D01*
D02*
G37*
X299422Y192061D01*
X301723Y192061D01*
X299422Y193041D01*
G36*
X302692Y192061D02*
X302692Y192061D01*
X305011Y192061D01*
X302692Y193041D01*
X302692Y192061D01*
D02*
G37*
X305011Y192061D01*
X302692Y193041D01*
X302692Y192061D01*
G36*
X302692Y192061D01*
X302692Y195343D01*
X302692Y192061D01*
D02*
G37*
X302692Y195343D01*
X302692Y192061D01*
G36*
X302692Y192061D01*
X302692Y195343D01*
X302692Y189760D01*
X302692Y192061D01*
D02*
G37*
X302692Y195343D01*
X302692Y189760D01*
X302692Y192061D01*
G36*
X302692Y193041D02*
X302692Y193041D01*
X305011Y192061D01*
X305011Y193041D01*
X302692Y193041D01*
D02*
G37*
X305011Y192061D01*
X305011Y193041D01*
X302692Y193041D01*
G36*
X302692Y189760D02*
X302692Y189760D01*
X301723Y192061D01*
X301723Y189760D01*
X302692Y189760D01*
D02*
G37*
X301723Y192061D01*
X301723Y189760D01*
X302692Y189760D01*
G36*
X243723Y182343D02*
X243723Y182343D01*
X244692Y176760D01*
X244692Y182343D01*
X243723Y182343D01*
D02*
G37*
X244692Y176760D01*
X244692Y182343D01*
X243723Y182343D01*
G36*
X244692Y176760D02*
X244692Y176760D01*
X243723Y182343D01*
X243723Y180041D01*
X244692Y176760D01*
D02*
G37*
X243723Y182343D01*
X243723Y180041D01*
X244692Y176760D01*
G36*
X243723Y180041D02*
X243723Y180041D01*
X243723Y179061D01*
X244692Y176760D01*
X243723Y180041D01*
D02*
G37*
X243723Y179061D01*
X244692Y176760D01*
X243723Y180041D01*
G36*
X243723Y179061D02*
X243723Y179061D01*
X243723Y180041D01*
X241422Y180041D01*
X243723Y179061D01*
D02*
G37*
X243723Y180041D01*
X241422Y180041D01*
X243723Y179061D01*
G36*
X241422Y180041D02*
X241422Y180041D01*
X241422Y179061D01*
X243723Y179061D01*
X241422Y180041D01*
D02*
G37*
X241422Y179061D01*
X243723Y179061D01*
X241422Y180041D01*
G36*
X244692Y179061D02*
X244692Y179061D01*
X247011Y179061D01*
X244692Y180041D01*
X244692Y179061D01*
D02*
G37*
X247011Y179061D01*
X244692Y180041D01*
X244692Y179061D01*
G36*
X244692Y179061D01*
X244692Y182343D01*
X244692Y179061D01*
D02*
G37*
X244692Y182343D01*
X244692Y179061D01*
G36*
X244692Y179061D01*
X244692Y182343D01*
X244692Y176760D01*
X244692Y179061D01*
D02*
G37*
X244692Y182343D01*
X244692Y176760D01*
X244692Y179061D01*
G36*
X244692Y180041D02*
X244692Y180041D01*
X247011Y179061D01*
X247011Y180041D01*
X244692Y180041D01*
D02*
G37*
X247011Y179061D01*
X247011Y180041D01*
X244692Y180041D01*
G36*
X244692Y176760D02*
X244692Y176760D01*
X243723Y179061D01*
X243723Y176760D01*
X244692Y176760D01*
D02*
G37*
X243723Y179061D01*
X243723Y176760D01*
X244692Y176760D01*
G36*
X259959Y245578D02*
X259959Y245578D01*
X260939Y239989D01*
X260939Y245578D01*
X259959Y245578D01*
D02*
G37*
X260939Y239989D01*
X260939Y245578D01*
X259959Y245578D01*
G36*
X260939Y239989D02*
X260939Y239989D01*
X259959Y245578D01*
X259959Y243277D01*
X260939Y239989D01*
D02*
G37*
X259959Y245578D01*
X259959Y243277D01*
X260939Y239989D01*
G36*
X259959Y243277D02*
X259959Y243277D01*
X259959Y242308D01*
X260939Y239989D01*
X259959Y243277D01*
D02*
G37*
X259959Y242308D01*
X260939Y239989D01*
X259959Y243277D01*
G36*
X259959Y242308D02*
X259959Y242308D01*
X259959Y243277D01*
X257657Y243277D01*
X259959Y242308D01*
D02*
G37*
X259959Y243277D01*
X257657Y243277D01*
X259959Y242308D01*
G36*
X257657Y243277D02*
X257657Y243277D01*
X257657Y242308D01*
X259959Y242308D01*
X257657Y243277D01*
D02*
G37*
X257657Y242308D01*
X259959Y242308D01*
X257657Y243277D01*
G36*
X260939Y242308D02*
X260939Y242308D01*
X263240Y242308D01*
X260939Y243277D01*
X260939Y242308D01*
D02*
G37*
X263240Y242308D01*
X260939Y243277D01*
X260939Y242308D01*
G36*
X260939Y242308D01*
X260939Y245578D01*
X260939Y242308D01*
D02*
G37*
X260939Y245578D01*
X260939Y242308D01*
G36*
X260939Y242308D01*
X260939Y245578D01*
X260939Y239989D01*
X260939Y242308D01*
D02*
G37*
X260939Y245578D01*
X260939Y239989D01*
X260939Y242308D01*
G36*
X260939Y243277D02*
X260939Y243277D01*
X263240Y242308D01*
X263240Y243277D01*
X260939Y243277D01*
D02*
G37*
X263240Y242308D01*
X263240Y243277D01*
X260939Y243277D01*
G36*
X260939Y239989D02*
X260939Y239989D01*
X259959Y242308D01*
X259959Y239989D01*
X260939Y239989D01*
D02*
G37*
X259959Y242308D01*
X259959Y239989D01*
X260939Y239989D01*
G54D14*
X325543Y200689D02*
X326331Y199905D01*
X326331Y199121D01*
X325543Y198337D01*
X323181Y198337D01*
X322394Y199121D01*
X322394Y199905D01*
X323181Y200689D01*
X322787Y202256D02*
X322394Y202648D01*
X322394Y203432D01*
X323181Y204216D01*
X323969Y204216D01*
X324362Y203824D01*
X324756Y204216D01*
X325543Y204216D01*
X326331Y203432D01*
X326331Y202648D01*
X325937Y202256D01*
X324362Y202648D02*
X324362Y203824D01*
X333055Y184205D02*
X315732Y184205D01*
X315732Y223575D02*
X332661Y223575D01*
X324000Y183937D02*
X324000Y176724D01*
X324000Y230661D02*
X324000Y223575D01*
X333055Y194835D02*
X333055Y223575D01*
X333012Y188315D02*
X333012Y184315D01*
X333012Y194315D02*
X332750Y194304D01*
X332491Y194269D01*
X332235Y194213D01*
X331986Y194134D01*
X331744Y194034D01*
X331512Y193913D01*
X331291Y193772D01*
X331083Y193613D01*
X330890Y193436D01*
X330714Y193243D01*
X330554Y193036D01*
X330414Y192815D01*
X330293Y192583D01*
X330193Y192341D01*
X330114Y192091D01*
X330057Y191836D01*
X330023Y191576D01*
X330012Y191315D01*
X330023Y191053D01*
X330057Y190794D01*
X330114Y190539D01*
X330193Y190289D01*
X330293Y190047D01*
X330414Y189815D01*
X330554Y189594D01*
X330714Y189387D01*
X330890Y189194D01*
X331083Y189017D01*
X331291Y188858D01*
X331512Y188717D01*
X331744Y188596D01*
X331986Y188496D01*
X332235Y188417D01*
X332491Y188361D01*
X332750Y188326D01*
X333012Y188315D01*
X315339Y194835D02*
X315339Y223575D01*
X315339Y184535D02*
X315339Y188535D01*
X315339Y188685D02*
X315600Y188696D01*
X315860Y188731D01*
X316115Y188787D01*
X316365Y188866D01*
X316606Y188966D01*
X316839Y189087D01*
X317059Y189228D01*
X317267Y189387D01*
X317460Y189564D01*
X317637Y189757D01*
X317796Y189964D01*
X317937Y190185D01*
X318058Y190417D01*
X318158Y190659D01*
X318236Y190909D01*
X318293Y191164D01*
X318327Y191424D01*
X318339Y191685D01*
X318327Y191947D01*
X318293Y192206D01*
X318236Y192461D01*
X318158Y192711D01*
X318058Y192953D01*
X317937Y193185D01*
X317796Y193406D01*
X317637Y193613D01*
X317460Y193806D01*
X317267Y193983D01*
X317059Y194142D01*
X316839Y194283D01*
X316606Y194404D01*
X316365Y194504D01*
X316115Y194583D01*
X315860Y194639D01*
X315600Y194674D01*
X315339Y194685D01*
X193556Y203702D02*
X193556Y201321D01*
X194667Y200726D01*
X195778Y200726D01*
X196889Y201321D01*
X196889Y203702D01*
X199111Y203107D02*
X200222Y203702D01*
X200222Y200726D01*
X198556Y200726D02*
X201889Y200726D01*
X226750Y204000D02*
X226679Y205634D01*
X226465Y207256D01*
X226111Y208853D01*
X225619Y210413D01*
X224993Y211924D01*
X224238Y213375D01*
X223359Y214755D01*
X222363Y216052D01*
X221258Y217258D01*
X220052Y218363D01*
X218755Y219359D01*
X217375Y220238D01*
X215924Y220993D01*
X214413Y221619D01*
X212853Y222111D01*
X211256Y222465D01*
X209634Y222679D01*
X208000Y222750D01*
X206366Y222679D01*
X204744Y222465D01*
X203147Y222111D01*
X201587Y221619D01*
X200076Y220993D01*
X198625Y220238D01*
X197245Y219359D01*
X195948Y218363D01*
X194742Y217258D01*
X193637Y216052D01*
X192641Y214755D01*
X191762Y213375D01*
X191007Y211924D01*
X190381Y210413D01*
X189889Y208853D01*
X189535Y207256D01*
X189321Y205634D01*
X189250Y204000D01*
X189321Y202366D01*
X189535Y200744D01*
X189889Y199147D01*
X190381Y197587D01*
X191007Y196076D01*
X191762Y194625D01*
X192641Y193245D01*
X193637Y191948D01*
X194742Y190742D01*
X195948Y189637D01*
X197245Y188641D01*
X198625Y187762D01*
X200076Y187007D01*
X201587Y186381D01*
X203147Y185889D01*
X204744Y185535D01*
X206366Y185321D01*
X208000Y185250D01*
X209634Y185321D01*
X211256Y185535D01*
X212853Y185889D01*
X214413Y186381D01*
X215924Y187007D01*
X217375Y187762D01*
X218755Y188641D01*
X220052Y189637D01*
X221258Y190742D01*
X222363Y191948D01*
X223359Y193245D01*
X224238Y194625D01*
X224993Y196076D01*
X225619Y197587D01*
X226111Y199147D01*
X226465Y200744D01*
X226679Y202366D01*
X226750Y204000D01*
X226750Y204000D01*
X189500Y188500D02*
X192500Y185500D01*
X196333Y189333D01*
X193333Y192333D02*
X189500Y188500D01*
X222000Y202000D02*
X222000Y201000D01*
X203000Y191000D02*
X203000Y197000D01*
X202000Y196000D01*
X204000Y191000D02*
X202000Y191000D01*
X222000Y201000D02*
X225000Y201000D01*
X201000Y216000D02*
X202000Y217000D01*
X203000Y217000D01*
X204000Y216000D01*
X204000Y215000D01*
X203000Y214000D01*
X204000Y213000D02*
X204000Y212000D01*
X203000Y214000D02*
X204000Y213000D01*
X202000Y211000D02*
X201000Y212000D01*
X204000Y212000D02*
X203000Y211000D01*
X202000Y211000D01*
X203000Y214000D02*
X202000Y214000D01*
X225000Y205000D02*
X222000Y202000D01*
X222000Y206000D02*
X223000Y207000D01*
X224000Y207000D02*
X225000Y206000D01*
X223000Y207000D02*
X224000Y207000D01*
X225000Y206000D02*
X225000Y205000D01*
X302543Y205689D02*
X303331Y204905D01*
X303331Y204121D01*
X302543Y203337D01*
X300181Y203337D01*
X299394Y204121D01*
X299394Y204905D01*
X300181Y205689D01*
X300181Y206864D02*
X299394Y207648D01*
X299394Y208432D01*
X300181Y209216D01*
X300575Y209216D01*
X303331Y206864D01*
X303331Y209216D01*
X302937Y209216D01*
X311055Y180205D02*
X293732Y180205D01*
X293732Y219575D02*
X310661Y219575D01*
X302000Y179937D02*
X302000Y172724D01*
X302000Y226661D02*
X302000Y219575D01*
X311055Y190835D02*
X311055Y219575D01*
X311012Y184315D02*
X311012Y180315D01*
X311012Y190315D02*
X310750Y190304D01*
X310491Y190269D01*
X310235Y190213D01*
X309986Y190134D01*
X309744Y190034D01*
X309512Y189913D01*
X309291Y189772D01*
X309083Y189613D01*
X308890Y189436D01*
X308714Y189243D01*
X308554Y189036D01*
X308414Y188815D01*
X308293Y188583D01*
X308193Y188341D01*
X308114Y188091D01*
X308057Y187836D01*
X308023Y187576D01*
X308012Y187315D01*
X308023Y187053D01*
X308057Y186794D01*
X308114Y186539D01*
X308193Y186289D01*
X308293Y186047D01*
X308414Y185815D01*
X308554Y185594D01*
X308714Y185387D01*
X308890Y185194D01*
X309083Y185017D01*
X309291Y184858D01*
X309512Y184717D01*
X309744Y184596D01*
X309986Y184496D01*
X310235Y184417D01*
X310491Y184361D01*
X310750Y184326D01*
X311012Y184315D01*
X293339Y190835D02*
X293339Y219575D01*
X293339Y180535D02*
X293339Y184535D01*
X293339Y184685D02*
X293600Y184696D01*
X293860Y184731D01*
X294115Y184787D01*
X294365Y184866D01*
X294606Y184966D01*
X294839Y185087D01*
X295059Y185228D01*
X295267Y185387D01*
X295460Y185564D01*
X295637Y185757D01*
X295796Y185964D01*
X295937Y186185D01*
X296058Y186417D01*
X296158Y186659D01*
X296236Y186909D01*
X296293Y187164D01*
X296327Y187424D01*
X296339Y187685D01*
X296327Y187947D01*
X296293Y188206D01*
X296236Y188461D01*
X296158Y188711D01*
X296058Y188953D01*
X295937Y189185D01*
X295796Y189406D01*
X295637Y189613D01*
X295460Y189806D01*
X295267Y189983D01*
X295059Y190142D01*
X294839Y190283D01*
X294606Y190404D01*
X294365Y190504D01*
X294115Y190583D01*
X293860Y190639D01*
X293600Y190674D01*
X293339Y190685D01*
X246543Y199689D02*
X247331Y198905D01*
X247331Y198121D01*
X246543Y197337D01*
X244181Y197337D01*
X243394Y198121D01*
X243394Y198905D01*
X244181Y199689D01*
X244181Y201256D02*
X243394Y202040D01*
X247331Y202040D01*
X247331Y200864D02*
X247331Y203216D01*
X253055Y174205D02*
X235732Y174205D01*
X235732Y213575D02*
X252661Y213575D01*
X244000Y173937D02*
X244000Y166724D01*
X244000Y220661D02*
X244000Y213575D01*
X253055Y184835D02*
X253055Y213575D01*
X253012Y178315D02*
X253012Y174315D01*
X253012Y184315D02*
X252750Y184304D01*
X252491Y184269D01*
X252235Y184213D01*
X251986Y184134D01*
X251744Y184034D01*
X251512Y183913D01*
X251291Y183772D01*
X251083Y183613D01*
X250890Y183436D01*
X250714Y183243D01*
X250554Y183036D01*
X250414Y182815D01*
X250293Y182583D01*
X250193Y182341D01*
X250114Y182091D01*
X250057Y181836D01*
X250023Y181576D01*
X250012Y181315D01*
X250023Y181053D01*
X250057Y180794D01*
X250114Y180539D01*
X250193Y180289D01*
X250293Y180047D01*
X250414Y179815D01*
X250554Y179594D01*
X250714Y179387D01*
X250890Y179194D01*
X251083Y179017D01*
X251291Y178858D01*
X251512Y178717D01*
X251744Y178596D01*
X251986Y178496D01*
X252235Y178417D01*
X252491Y178361D01*
X252750Y178326D01*
X253012Y178315D01*
X235339Y184835D02*
X235339Y213575D01*
X235339Y174535D02*
X235339Y178535D01*
X235339Y178685D02*
X235600Y178696D01*
X235860Y178731D01*
X236115Y178787D01*
X236365Y178866D01*
X236606Y178966D01*
X236839Y179087D01*
X237059Y179228D01*
X237267Y179387D01*
X237460Y179564D01*
X237637Y179757D01*
X237796Y179964D01*
X237937Y180185D01*
X238058Y180417D01*
X238158Y180659D01*
X238236Y180909D01*
X238293Y181164D01*
X238327Y181424D01*
X238339Y181685D01*
X238327Y181947D01*
X238293Y182206D01*
X238236Y182461D01*
X238158Y182711D01*
X238058Y182953D01*
X237937Y183185D01*
X237796Y183406D01*
X237637Y183613D01*
X237460Y183806D01*
X237267Y183983D01*
X237059Y184142D01*
X236839Y184283D01*
X236606Y184404D01*
X236365Y184504D01*
X236115Y184583D01*
X235860Y184639D01*
X235600Y184674D01*
X235339Y184685D01*
X267331Y197337D02*
X263394Y197337D01*
X263394Y198905D01*
X264181Y199689D01*
X264575Y199689D01*
X265362Y198905D01*
X265362Y197337D01*
X265362Y197729D02*
X267331Y199689D01*
X265756Y203216D02*
X265756Y200864D01*
X263394Y202824D01*
X267331Y202824D01*
X267331Y202432D02*
X267331Y203216D01*
X287315Y210512D02*
X276685Y210512D01*
X276685Y190039D02*
X287315Y190039D01*
X282000Y190000D02*
X282000Y185906D01*
X282000Y210709D02*
X282000Y214646D01*
X287315Y190039D02*
X287315Y210512D01*
X276685Y210512D02*
X276685Y190039D01*
X295556Y249144D02*
X295556Y246168D01*
X298889Y246168D01*
X303889Y246168D02*
X300556Y246168D01*
X300556Y247656D01*
X300556Y249144D01*
X303889Y249144D01*
X300556Y247656D02*
X302778Y247656D01*
X305556Y246168D02*
X307778Y246168D01*
X308889Y246763D01*
X308889Y248549D01*
X307778Y249144D01*
X305556Y249144D01*
X306111Y249144D02*
X306111Y246168D01*
X311111Y248549D02*
X312222Y249144D01*
X312222Y246168D01*
X310556Y246168D02*
X313889Y246168D01*
X293788Y285167D02*
X292456Y284217D01*
X291213Y283155D01*
X290066Y281988D01*
X289026Y280726D01*
X288099Y279378D01*
X287294Y277954D01*
X286615Y276466D01*
X286069Y274924D01*
X285660Y273340D01*
X285390Y271727D01*
X285261Y270096D01*
X285276Y268460D01*
X285432Y266832D01*
X285731Y265224D01*
X286168Y263648D01*
X286741Y262116D01*
X287445Y260639D01*
X288275Y259230D01*
X289225Y257898D01*
X290287Y256654D01*
X291454Y255508D01*
X292716Y254467D01*
X294064Y253541D01*
X295488Y252735D01*
X296976Y252057D01*
X298518Y251511D01*
X300102Y251102D01*
X301715Y250832D01*
X303346Y250703D01*
X304981Y250717D01*
X306609Y250874D01*
X308218Y251172D01*
X309794Y251609D01*
X311326Y252182D01*
X312803Y252887D01*
X314212Y253717D01*
X315544Y254667D01*
X316787Y255729D01*
X317934Y256896D01*
X318974Y258158D01*
X319901Y259506D01*
X320706Y260929D01*
X321385Y262418D01*
X321931Y263960D01*
X322340Y265543D01*
X322610Y267157D01*
X322739Y268787D01*
X322724Y270423D01*
X322568Y272051D01*
X322269Y273660D01*
X321832Y275236D01*
X321259Y276768D01*
X320555Y278244D01*
X319725Y279654D01*
X318775Y280985D01*
X317713Y282229D01*
X316546Y283376D01*
X315284Y284416D01*
X314212Y285167D01*
X304000Y253608D02*
X305380Y253669D01*
X306749Y253849D01*
X308098Y254148D01*
X309415Y254563D01*
X310691Y255092D01*
X311917Y255730D01*
X313082Y256472D01*
X314177Y257313D01*
X315196Y258246D01*
X316129Y259264D01*
X316970Y260360D01*
X317712Y261525D01*
X318350Y262750D01*
X318878Y264026D01*
X319294Y265344D01*
X319593Y266692D01*
X319773Y268062D01*
X319833Y269442D01*
X319773Y270822D01*
X319593Y272191D01*
X319294Y273540D01*
X318878Y274857D01*
X318350Y276133D01*
X317712Y277358D01*
X316970Y278523D01*
X316129Y279619D01*
X315196Y280638D01*
X314177Y281571D01*
X313082Y282412D01*
X311917Y283154D01*
X310691Y283792D01*
X309415Y284320D01*
X308098Y284736D01*
X306749Y285035D01*
X305380Y285215D01*
X304000Y285275D01*
X302620Y285215D01*
X301251Y285035D01*
X299902Y284736D01*
X298585Y284320D01*
X297309Y283792D01*
X296083Y283154D01*
X294918Y282412D01*
X293823Y281571D01*
X292804Y280638D01*
X291871Y279619D01*
X291030Y278523D01*
X290288Y277358D01*
X289650Y276133D01*
X289122Y274857D01*
X288706Y273540D01*
X288407Y272191D01*
X288227Y270822D01*
X288167Y269442D01*
X288227Y268062D01*
X288407Y266692D01*
X288706Y265344D01*
X289122Y264026D01*
X289650Y262750D01*
X290288Y261525D01*
X291030Y260360D01*
X291871Y259264D01*
X292804Y258246D01*
X293823Y257313D01*
X294918Y256472D01*
X296083Y255730D01*
X297309Y255092D01*
X298585Y254563D01*
X299902Y254148D01*
X301251Y253849D01*
X302620Y253669D01*
X304000Y253608D01*
X298167Y265275D02*
X298167Y263608D01*
X299000Y263608D02*
X299073Y263612D01*
X299145Y263621D01*
X299216Y263637D01*
X299285Y263659D01*
X299352Y263687D01*
X299417Y263720D01*
X299478Y263759D01*
X299536Y263803D01*
X299589Y263853D01*
X299638Y263906D01*
X299683Y263964D01*
X299722Y264025D01*
X299755Y264090D01*
X299783Y264157D01*
X299805Y264226D01*
X299821Y264297D01*
X299830Y264369D01*
X299833Y264442D01*
X299830Y264514D01*
X299821Y264586D01*
X299805Y264657D01*
X299783Y264727D01*
X299755Y264794D01*
X299722Y264858D01*
X299683Y264920D01*
X299638Y264977D01*
X299589Y265031D01*
X299536Y265080D01*
X299478Y265124D01*
X299417Y265163D01*
X299352Y265197D01*
X299285Y265225D01*
X299216Y265247D01*
X299145Y265262D01*
X299073Y265272D01*
X299000Y265275D01*
X314000Y285275D02*
X294000Y285275D01*
X296500Y265275D02*
X299000Y265275D01*
X297333Y275275D02*
X297261Y275272D01*
X297189Y275262D01*
X297118Y275247D01*
X297048Y275225D01*
X296981Y275197D01*
X296917Y275163D01*
X296855Y275124D01*
X296798Y275080D01*
X296744Y275031D01*
X296695Y274977D01*
X296651Y274920D01*
X296612Y274858D01*
X296578Y274794D01*
X296550Y274727D01*
X296529Y274657D01*
X296513Y274586D01*
X296503Y274514D01*
X296500Y274442D01*
X296503Y274369D01*
X296513Y274297D01*
X296529Y274226D01*
X296550Y274157D01*
X296578Y274090D01*
X296612Y274025D01*
X296651Y273964D01*
X296695Y273906D01*
X296744Y273853D01*
X296798Y273803D01*
X296855Y273759D01*
X296917Y273720D01*
X296981Y273687D01*
X297048Y273659D01*
X297118Y273637D01*
X297189Y273621D01*
X297261Y273612D01*
X297333Y273608D01*
X297333Y273608D01*
X297333Y275275D02*
X299000Y275275D01*
X299000Y273608D02*
X299073Y273612D01*
X299145Y273621D01*
X299216Y273637D01*
X299285Y273659D01*
X299352Y273687D01*
X299417Y273720D01*
X299478Y273759D01*
X299536Y273803D01*
X299589Y273853D01*
X299638Y273906D01*
X299683Y273964D01*
X299722Y274025D01*
X299755Y274090D01*
X299783Y274157D01*
X299805Y274226D01*
X299821Y274297D01*
X299830Y274369D01*
X299833Y274442D01*
X299830Y274514D01*
X299821Y274586D01*
X299805Y274657D01*
X299783Y274727D01*
X299755Y274794D01*
X299722Y274858D01*
X299683Y274920D01*
X299638Y274977D01*
X299589Y275031D01*
X299536Y275080D01*
X299478Y275124D01*
X299417Y275163D01*
X299352Y275197D01*
X299285Y275225D01*
X299216Y275247D01*
X299145Y275262D01*
X299073Y275272D01*
X299000Y275275D01*
X296500Y263608D02*
X299000Y263608D01*
X341331Y198337D02*
X337394Y198337D01*
X337394Y199905D01*
X338181Y200689D01*
X338575Y200689D01*
X339362Y199905D01*
X339362Y198337D01*
X339362Y198729D02*
X341331Y200689D01*
X338181Y202256D02*
X337394Y203040D01*
X341331Y203040D01*
X341331Y201864D02*
X341331Y204216D01*
X240744Y241457D02*
X239960Y240669D01*
X239176Y240669D01*
X238392Y241457D01*
X238392Y243819D01*
X239176Y244606D01*
X239960Y244606D01*
X240744Y243819D01*
X244271Y244606D02*
X241920Y244606D01*
X241920Y243031D01*
X243487Y243031D01*
X244271Y242244D01*
X244271Y241457D01*
X243487Y240669D01*
X241920Y240669D01*
X226205Y234945D02*
X226205Y252268D01*
X265575Y252268D02*
X265575Y235339D01*
X225937Y244000D02*
X218724Y244000D01*
X272661Y244000D02*
X265575Y244000D01*
X236835Y234945D02*
X265575Y234945D01*
X230315Y234988D02*
X226315Y234988D01*
X236315Y234988D02*
X236304Y235250D01*
X236269Y235509D01*
X236213Y235765D01*
X236134Y236014D01*
X236034Y236256D01*
X235913Y236488D01*
X235772Y236709D01*
X235613Y236917D01*
X235436Y237110D01*
X235243Y237286D01*
X235036Y237446D01*
X234815Y237586D01*
X234583Y237707D01*
X234341Y237807D01*
X234091Y237886D01*
X233836Y237943D01*
X233576Y237977D01*
X233315Y237988D01*
X233053Y237977D01*
X232794Y237943D01*
X232539Y237886D01*
X232289Y237807D01*
X232047Y237707D01*
X231815Y237586D01*
X231594Y237446D01*
X231387Y237286D01*
X231194Y237110D01*
X231017Y236917D01*
X230858Y236709D01*
X230717Y236488D01*
X230596Y236256D01*
X230496Y236014D01*
X230417Y235765D01*
X230361Y235509D01*
X230326Y235250D01*
X230315Y234988D01*
X236835Y252661D02*
X265575Y252661D01*
X226535Y252661D02*
X230535Y252661D01*
X230685Y252661D02*
X230696Y252400D01*
X230731Y252140D01*
X230787Y251885D01*
X230866Y251635D01*
X230966Y251394D01*
X231087Y251161D01*
X231228Y250941D01*
X231387Y250733D01*
X231564Y250540D01*
X231757Y250363D01*
X231964Y250204D01*
X232185Y250063D01*
X232417Y249942D01*
X232659Y249842D01*
X232909Y249764D01*
X233164Y249707D01*
X233424Y249673D01*
X233685Y249661D01*
X233947Y249673D01*
X234206Y249707D01*
X234461Y249764D01*
X234711Y249842D01*
X234953Y249942D01*
X235185Y250063D01*
X235406Y250204D01*
X235613Y250363D01*
X235806Y250540D01*
X235983Y250733D01*
X236142Y250941D01*
X236283Y251161D01*
X236404Y251394D01*
X236504Y251635D01*
X236583Y251885D01*
X236639Y252140D01*
X236674Y252400D01*
X236685Y252661D01*
X189392Y160669D02*
X189392Y164606D01*
X190960Y164606D01*
X191744Y163819D01*
X191744Y163425D01*
X190960Y162638D01*
X189392Y162638D01*
X189784Y162638D02*
X191744Y160669D01*
X192920Y163819D02*
X193703Y164606D01*
X194487Y164606D01*
X195271Y163819D01*
X195271Y163425D01*
X192920Y160669D01*
X195271Y160669D01*
X195271Y161063D01*
G54D15*
X260921Y185811D02*
X270961Y185811D01*
X270961Y213370D01*
X260921Y213370D01*
X260921Y185811D01*
X266000Y179512D02*
X266000Y185811D01*
X266000Y213370D02*
X266000Y220063D01*
G36*
X276898Y190497D02*
X276898Y193646D01*
X287225Y193646D01*
X287225Y190497D01*
X276898Y190497D01*
G37*
X334921Y187811D02*
X344961Y187811D01*
X344961Y215370D01*
X334921Y215370D01*
X334921Y187811D01*
X340000Y181512D02*
X340000Y187811D01*
X340000Y215370D02*
X340000Y222063D01*
X175811Y167079D02*
X203370Y167079D01*
X203370Y157039D01*
X175811Y157039D01*
X175811Y167079D01*
X169512Y162000D02*
X175811Y162000D01*
X203370Y162000D02*
X210063Y162000D01*
G54D16*
X284640Y199861D02*
X284640Y201541D01*
X283796Y202381D01*
X281265Y202381D01*
X280422Y201541D01*
X280422Y199861D01*
X280422Y200281D02*
X284640Y200281D01*
X281265Y203640D02*
X280422Y204480D01*
X280422Y205320D01*
X281265Y206160D01*
X281687Y206160D01*
X284640Y203640D01*
X284640Y206160D01*
X284218Y206160D01*
G54D17*
X281366Y210567D02*
X280523Y210567D01*
X279960Y210847D01*
X279960Y211127D01*
X280523Y211407D01*
X281366Y211407D01*
X280944Y210567D02*
X280944Y211407D01*
X284980Y175735D02*
X284700Y175453D01*
X284420Y175453D01*
X284140Y175735D01*
X284140Y176578D01*
X284420Y176859D01*
X284700Y176859D01*
X284980Y176578D01*
G54D18*
G36*
X161685Y239328D02*
X161685Y248772D01*
X164835Y248772D01*
X164835Y239328D01*
X161685Y239328D01*
G37*
G54D19*
X20500Y65500D02*
X20500Y90950D01*
X20500Y65500D02*
X58804Y65500D01*
X403535Y65500D02*
X365232Y65500D01*
X403535Y65500D02*
X403535Y90950D01*
X403535Y320000D02*
X403535Y294550D01*
X403535Y320000D02*
X365232Y320000D01*
X20500Y320000D02*
X58804Y320000D01*
X20500Y320000D02*
X20500Y294550D01*
X815Y65500D02*
X-38555Y65500D01*
X-18870Y45815D02*
X-18870Y85185D01*
X-33634Y65500D02*
G75*
D01*
G02X-33634Y65500I14764J0*
G01*
X423220Y65500D02*
X462591Y65500D01*
X442906Y45815D02*
X442906Y85185D01*
X428142Y65500D02*
G75*
D01*
G02X428142Y65500I14764J0*
G01*
X437984Y65500D02*
G75*
D01*
G02X437984Y65500I4922J0*
G01*
X815Y320000D02*
X-38555Y320000D01*
X-18870Y300315D02*
X-18870Y339685D01*
X-33634Y320000D02*
G75*
D01*
G02X-33634Y320000I14764J0*
G01*
X-28713Y320000D02*
G75*
D01*
G02X-28713Y320000I9843J0*
G01*
X-23791Y320000D02*
G75*
D01*
G02X-23791Y320000I4921J0*
G01*

M02*
