G04 Generated by Ultiboard 13.0 *
%FSLAX25Y25*%
%MOIN*%

%ADD10C,0.00001*%
%ADD11C,0.00800*%
%ADD12C,0.00463*%
%ADD13C,0.00591*%
%ADD14C,0.00394*%
%ADD15C,0.00219*%
%ADD16C,0.01000*%
%ADD17C,0.00004*%
%ADD18C,0.00612*%
%ADD19C,0.00367*%
%ADD20C,0.00787*%
%ADD21C,0.00005*%
%ADD22C,0.00189*%
%ADD23C,0.00100*%


G04 ColorRGB FFFF00 for the following layer *
%LNSilkscreen Top*%
%LPD*%
G54D10*
G54D11*
X146898Y171008D02*
X309102Y171008D01*
X309102Y196992D01*
X146898Y196992D01*
X159063Y172253D02*
G75*
D01*
G02X159063Y172253I3937J0*
G01*
X146898Y182031D02*
X147069Y182039D01*
X147239Y182061D01*
X147407Y182099D01*
X147571Y182150D01*
X147730Y182216D01*
X147882Y182295D01*
X148027Y182387D01*
X148163Y182492D01*
X148290Y182608D01*
X148406Y182735D01*
X148510Y182871D01*
X148602Y183016D01*
X148682Y183168D01*
X148747Y183327D01*
X148799Y183491D01*
X148836Y183658D01*
X148859Y183828D01*
X148866Y184000D01*
X148859Y184172D01*
X148836Y184342D01*
X148799Y184509D01*
X148747Y184673D01*
X148682Y184832D01*
X148602Y184984D01*
X148510Y185129D01*
X148406Y185265D01*
X148290Y185392D01*
X148163Y185508D01*
X148027Y185613D01*
X147882Y185705D01*
X147730Y185784D01*
X147571Y185850D01*
X147407Y185901D01*
X147239Y185939D01*
X147069Y185961D01*
X146898Y185969D01*
X146898Y196992D02*
X146898Y185969D01*
X146898Y182031D02*
X146898Y171008D01*
X254917Y160000D02*
X229917Y160000D01*
X254917Y157500D02*
X229917Y157500D01*
X254917Y142500D02*
X229917Y142500D01*
X254917Y140000D02*
X229917Y140000D01*
X243917Y153500D02*
X240917Y153500D01*
X240917Y146500D02*
X243917Y146500D01*
X254917Y140000D02*
X255788Y140038D01*
X256653Y140152D01*
X257505Y140341D01*
X258337Y140603D01*
X259143Y140937D01*
X259917Y141340D01*
X260652Y141808D01*
X261344Y142340D01*
X261988Y142929D01*
X262577Y143572D01*
X263108Y144264D01*
X263577Y145000D01*
X263980Y145774D01*
X264313Y146580D01*
X264576Y147412D01*
X264765Y148264D01*
X264878Y149128D01*
X264917Y150000D01*
X264878Y150872D01*
X264765Y151736D01*
X264576Y152588D01*
X264313Y153420D01*
X263980Y154226D01*
X263577Y155000D01*
X263108Y155736D01*
X262577Y156428D01*
X261988Y157071D01*
X261344Y157660D01*
X260652Y158192D01*
X259917Y158660D01*
X259143Y159063D01*
X258337Y159397D01*
X257505Y159659D01*
X256653Y159848D01*
X255788Y159962D01*
X254917Y160000D01*
X254917Y160000D01*
X254917Y142500D02*
X255570Y142529D01*
X256219Y142614D01*
X256858Y142756D01*
X257482Y142952D01*
X258086Y143203D01*
X258667Y143505D01*
X259218Y143856D01*
X259737Y144255D01*
X260220Y144697D01*
X260662Y145179D01*
X261060Y145698D01*
X261412Y146250D01*
X261714Y146830D01*
X261964Y147435D01*
X262161Y148059D01*
X262303Y148698D01*
X262388Y149346D01*
X262417Y150000D01*
X262388Y150654D01*
X262303Y151302D01*
X262161Y151941D01*
X261964Y152565D01*
X261714Y153170D01*
X261412Y153750D01*
X261060Y154302D01*
X260662Y154821D01*
X260220Y155303D01*
X259737Y155745D01*
X259218Y156144D01*
X258667Y156495D01*
X258086Y156797D01*
X257482Y157048D01*
X256858Y157244D01*
X256219Y157386D01*
X255570Y157471D01*
X254917Y157500D01*
X254917Y157500D01*
X243917Y146500D02*
X243917Y153500D01*
X244917Y152000D02*
X244917Y148000D01*
X245417Y148000D02*
X245417Y152000D01*
X245417Y150000D02*
X246917Y150000D01*
X229917Y160000D02*
X229045Y159962D01*
X228180Y159848D01*
X227328Y159659D01*
X226496Y159397D01*
X225690Y159063D01*
X224917Y158660D01*
X224181Y158192D01*
X223489Y157660D01*
X222845Y157071D01*
X222256Y156428D01*
X221725Y155736D01*
X221256Y155000D01*
X220853Y154226D01*
X220520Y153420D01*
X220257Y152588D01*
X220068Y151736D01*
X219955Y150872D01*
X219917Y150000D01*
X219955Y149128D01*
X220068Y148264D01*
X220257Y147412D01*
X220520Y146580D01*
X220853Y145774D01*
X221256Y145000D01*
X221725Y144264D01*
X222256Y143572D01*
X222845Y142929D01*
X223489Y142340D01*
X224181Y141808D01*
X224917Y141340D01*
X225690Y140937D01*
X226496Y140603D01*
X227328Y140341D01*
X228180Y140152D01*
X229045Y140038D01*
X229917Y140000D01*
X229917Y140000D01*
X229917Y157500D02*
X229263Y157471D01*
X228614Y157386D01*
X227975Y157244D01*
X227351Y157048D01*
X226747Y156797D01*
X226167Y156495D01*
X225615Y156144D01*
X225096Y155745D01*
X224613Y155303D01*
X224171Y154821D01*
X223773Y154302D01*
X223421Y153750D01*
X223119Y153170D01*
X222869Y152565D01*
X222672Y151941D01*
X222530Y151302D01*
X222445Y150654D01*
X222417Y150000D01*
X222445Y149346D01*
X222530Y148698D01*
X222672Y148059D01*
X222869Y147435D01*
X223119Y146830D01*
X223421Y146250D01*
X223773Y145698D01*
X224171Y145179D01*
X224613Y144697D01*
X225096Y144255D01*
X225615Y143856D01*
X226167Y143505D01*
X226747Y143203D01*
X227351Y142952D01*
X227975Y142756D01*
X228614Y142614D01*
X229263Y142529D01*
X229917Y142500D01*
X229917Y142500D01*
X240917Y146500D02*
X240917Y153500D01*
X239917Y148000D02*
X239917Y152000D01*
X239417Y148000D02*
X239417Y152000D01*
X239417Y150000D02*
X237917Y150000D01*
X327315Y194512D02*
X316685Y194512D01*
X316685Y174039D02*
X327315Y174039D01*
X322000Y174000D02*
X322000Y169906D01*
X322000Y194709D02*
X322000Y198646D01*
X327315Y174039D02*
X327315Y194512D01*
X316685Y194512D02*
X316685Y174039D01*
X347055Y160205D02*
X329732Y160205D01*
X329732Y199575D02*
X346661Y199575D01*
X338000Y159937D02*
X338000Y152724D01*
X338000Y206661D02*
X338000Y199575D01*
X347055Y170835D02*
X347055Y199575D01*
X347012Y164315D02*
X347012Y160315D01*
X347012Y170315D02*
X346750Y170304D01*
X346491Y170269D01*
X346235Y170213D01*
X345986Y170134D01*
X345744Y170034D01*
X345512Y169913D01*
X345291Y169772D01*
X345083Y169613D01*
X344890Y169436D01*
X344714Y169243D01*
X344554Y169036D01*
X344414Y168815D01*
X344293Y168583D01*
X344193Y168341D01*
X344114Y168091D01*
X344057Y167836D01*
X344023Y167576D01*
X344012Y167315D01*
X344023Y167053D01*
X344057Y166794D01*
X344114Y166539D01*
X344193Y166289D01*
X344293Y166047D01*
X344414Y165815D01*
X344554Y165594D01*
X344714Y165387D01*
X344890Y165194D01*
X345083Y165017D01*
X345291Y164858D01*
X345512Y164717D01*
X345744Y164596D01*
X345986Y164496D01*
X346235Y164417D01*
X346491Y164361D01*
X346750Y164326D01*
X347012Y164315D01*
X329339Y170835D02*
X329339Y199575D01*
X329339Y160535D02*
X329339Y164535D01*
X329339Y164685D02*
X329600Y164696D01*
X329860Y164731D01*
X330115Y164787D01*
X330365Y164866D01*
X330606Y164966D01*
X330839Y165087D01*
X331059Y165228D01*
X331267Y165387D01*
X331460Y165564D01*
X331637Y165757D01*
X331796Y165964D01*
X331937Y166185D01*
X332058Y166417D01*
X332158Y166659D01*
X332236Y166909D01*
X332293Y167164D01*
X332327Y167424D01*
X332339Y167685D01*
X332327Y167947D01*
X332293Y168206D01*
X332236Y168461D01*
X332158Y168711D01*
X332058Y168953D01*
X331937Y169185D01*
X331796Y169406D01*
X331637Y169613D01*
X331460Y169806D01*
X331267Y169983D01*
X331059Y170142D01*
X330839Y170283D01*
X330606Y170404D01*
X330365Y170504D01*
X330115Y170583D01*
X329860Y170639D01*
X329600Y170674D01*
X329339Y170685D01*
X341556Y106702D02*
X341556Y103726D01*
X344889Y103726D01*
X349889Y103726D02*
X346556Y103726D01*
X346556Y105214D01*
X346556Y106702D01*
X349889Y106702D01*
X346556Y105214D02*
X348778Y105214D01*
X351556Y103726D02*
X353778Y103726D01*
X354889Y104321D01*
X354889Y106107D01*
X353778Y106702D01*
X351556Y106702D01*
X352111Y106702D02*
X352111Y103726D01*
X357111Y106107D02*
X358222Y106702D01*
X358222Y103726D01*
X356556Y103726D02*
X359889Y103726D01*
X339788Y142725D02*
X338456Y141775D01*
X337213Y140713D01*
X336066Y139546D01*
X335026Y138284D01*
X334099Y136936D01*
X333294Y135512D01*
X332615Y134024D01*
X332069Y132482D01*
X331660Y130898D01*
X331390Y129285D01*
X331261Y127654D01*
X331276Y126019D01*
X331432Y124391D01*
X331731Y122782D01*
X332168Y121206D01*
X332741Y119674D01*
X333445Y118197D01*
X334275Y116788D01*
X335225Y115456D01*
X336287Y114213D01*
X337454Y113066D01*
X338716Y112026D01*
X340064Y111099D01*
X341488Y110294D01*
X342976Y109615D01*
X344518Y109069D01*
X346102Y108660D01*
X347715Y108390D01*
X349346Y108261D01*
X350981Y108276D01*
X352609Y108432D01*
X354218Y108731D01*
X355794Y109168D01*
X357326Y109741D01*
X358803Y110445D01*
X360212Y111275D01*
X361544Y112225D01*
X362787Y113287D01*
X363934Y114454D01*
X364974Y115716D01*
X365901Y117064D01*
X366706Y118488D01*
X367385Y119976D01*
X367931Y121518D01*
X368340Y123102D01*
X368610Y124715D01*
X368739Y126346D01*
X368724Y127981D01*
X368568Y129609D01*
X368269Y131218D01*
X367832Y132794D01*
X367259Y134326D01*
X366555Y135803D01*
X365725Y137212D01*
X364775Y138544D01*
X363713Y139787D01*
X362546Y140934D01*
X361284Y141974D01*
X360212Y142725D01*
X350000Y111167D02*
X351380Y111227D01*
X352749Y111407D01*
X354098Y111706D01*
X355415Y112122D01*
X356691Y112650D01*
X357917Y113288D01*
X359082Y114030D01*
X360177Y114871D01*
X361196Y115804D01*
X362129Y116823D01*
X362970Y117918D01*
X363712Y119083D01*
X364350Y120309D01*
X364878Y121585D01*
X365294Y122902D01*
X365593Y124251D01*
X365773Y125620D01*
X365833Y127000D01*
X365773Y128380D01*
X365593Y129749D01*
X365294Y131098D01*
X364878Y132415D01*
X364350Y133691D01*
X363712Y134917D01*
X362970Y136082D01*
X362129Y137177D01*
X361196Y138196D01*
X360177Y139129D01*
X359082Y139970D01*
X357917Y140712D01*
X356691Y141350D01*
X355415Y141878D01*
X354098Y142294D01*
X352749Y142593D01*
X351380Y142773D01*
X350000Y142833D01*
X348620Y142773D01*
X347251Y142593D01*
X345902Y142294D01*
X344585Y141878D01*
X343309Y141350D01*
X342083Y140712D01*
X340918Y139970D01*
X339823Y139129D01*
X338804Y138196D01*
X337871Y137177D01*
X337030Y136082D01*
X336288Y134917D01*
X335650Y133691D01*
X335122Y132415D01*
X334706Y131098D01*
X334407Y129749D01*
X334227Y128380D01*
X334167Y127000D01*
X334227Y125620D01*
X334407Y124251D01*
X334706Y122902D01*
X335122Y121585D01*
X335650Y120309D01*
X336288Y119083D01*
X337030Y117918D01*
X337871Y116823D01*
X338804Y115804D01*
X339823Y114871D01*
X340918Y114030D01*
X342083Y113288D01*
X343309Y112650D01*
X344585Y112122D01*
X345902Y111706D01*
X347251Y111407D01*
X348620Y111227D01*
X350000Y111167D01*
X344167Y122833D02*
X344167Y121167D01*
X345000Y121167D02*
X345073Y121170D01*
X345145Y121179D01*
X345216Y121195D01*
X345285Y121217D01*
X345352Y121245D01*
X345417Y121278D01*
X345478Y121317D01*
X345536Y121362D01*
X345589Y121411D01*
X345638Y121464D01*
X345683Y121522D01*
X345722Y121583D01*
X345755Y121648D01*
X345783Y121715D01*
X345805Y121784D01*
X345821Y121855D01*
X345830Y121927D01*
X345833Y122000D01*
X345830Y122073D01*
X345821Y122145D01*
X345805Y122216D01*
X345783Y122285D01*
X345755Y122352D01*
X345722Y122417D01*
X345683Y122478D01*
X345638Y122536D01*
X345589Y122589D01*
X345536Y122638D01*
X345478Y122683D01*
X345417Y122722D01*
X345352Y122755D01*
X345285Y122783D01*
X345216Y122805D01*
X345145Y122821D01*
X345073Y122830D01*
X345000Y122833D01*
X360000Y142833D02*
X340000Y142833D01*
X342500Y122833D02*
X345000Y122833D01*
X343333Y132833D02*
X343261Y132830D01*
X343189Y132821D01*
X343118Y132805D01*
X343048Y132783D01*
X342981Y132755D01*
X342917Y132722D01*
X342855Y132683D01*
X342798Y132638D01*
X342744Y132589D01*
X342695Y132536D01*
X342651Y132478D01*
X342612Y132417D01*
X342578Y132352D01*
X342550Y132285D01*
X342529Y132216D01*
X342513Y132145D01*
X342503Y132073D01*
X342500Y132000D01*
X342503Y131927D01*
X342513Y131855D01*
X342529Y131784D01*
X342550Y131715D01*
X342578Y131648D01*
X342612Y131583D01*
X342651Y131522D01*
X342695Y131464D01*
X342744Y131411D01*
X342798Y131362D01*
X342855Y131317D01*
X342917Y131278D01*
X342981Y131245D01*
X343048Y131217D01*
X343118Y131195D01*
X343189Y131179D01*
X343261Y131170D01*
X343333Y131167D01*
X343333Y131167D01*
X343333Y132833D02*
X345000Y132833D01*
X345000Y131167D02*
X345073Y131170D01*
X345145Y131179D01*
X345216Y131195D01*
X345285Y131217D01*
X345352Y131245D01*
X345417Y131278D01*
X345478Y131317D01*
X345536Y131362D01*
X345589Y131411D01*
X345638Y131464D01*
X345683Y131522D01*
X345722Y131583D01*
X345755Y131648D01*
X345783Y131715D01*
X345805Y131784D01*
X345821Y131855D01*
X345830Y131927D01*
X345833Y132000D01*
X345830Y132073D01*
X345821Y132145D01*
X345805Y132216D01*
X345783Y132285D01*
X345755Y132352D01*
X345722Y132417D01*
X345683Y132478D01*
X345638Y132536D01*
X345589Y132589D01*
X345536Y132638D01*
X345478Y132683D01*
X345417Y132722D01*
X345352Y132755D01*
X345285Y132783D01*
X345216Y132805D01*
X345145Y132821D01*
X345073Y132830D01*
X345000Y132833D01*
X342500Y121167D02*
X345000Y121167D01*
X387008Y140079D02*
X387008Y99921D01*
X412992Y99921D01*
X412992Y140079D01*
X387348Y133468D02*
G75*
D01*
G02X387348Y133468I3937J0*
G01*
X398031Y140079D02*
X398039Y139907D01*
X398061Y139737D01*
X398099Y139569D01*
X398150Y139405D01*
X398216Y139247D01*
X398295Y139094D01*
X398387Y138950D01*
X398492Y138813D01*
X398608Y138687D01*
X398735Y138571D01*
X398871Y138466D01*
X399016Y138374D01*
X399168Y138295D01*
X399327Y138229D01*
X399491Y138177D01*
X399658Y138140D01*
X399828Y138118D01*
X400000Y138110D01*
X400172Y138118D01*
X400342Y138140D01*
X400509Y138177D01*
X400673Y138229D01*
X400832Y138295D01*
X400984Y138374D01*
X401129Y138466D01*
X401265Y138571D01*
X401392Y138687D01*
X401508Y138813D01*
X401613Y138950D01*
X401705Y139094D01*
X401784Y139247D01*
X401850Y139405D01*
X401901Y139569D01*
X401939Y139737D01*
X401961Y139907D01*
X401969Y140079D01*
X412992Y140079D02*
X401969Y140079D01*
X398031Y140079D02*
X387008Y140079D01*
X385008Y194079D02*
X385008Y153921D01*
X410992Y153921D01*
X410992Y194079D01*
X385348Y187468D02*
G75*
D01*
G02X385348Y187468I3937J0*
G01*
X396031Y194079D02*
X396039Y193907D01*
X396061Y193737D01*
X396099Y193569D01*
X396150Y193405D01*
X396216Y193247D01*
X396295Y193094D01*
X396387Y192950D01*
X396492Y192813D01*
X396608Y192687D01*
X396735Y192571D01*
X396871Y192466D01*
X397016Y192374D01*
X397168Y192295D01*
X397327Y192229D01*
X397491Y192177D01*
X397658Y192140D01*
X397828Y192118D01*
X398000Y192110D01*
X398172Y192118D01*
X398342Y192140D01*
X398509Y192177D01*
X398673Y192229D01*
X398832Y192295D01*
X398984Y192374D01*
X399129Y192466D01*
X399265Y192571D01*
X399392Y192687D01*
X399508Y192813D01*
X399613Y192950D01*
X399705Y193094D01*
X399784Y193247D01*
X399850Y193405D01*
X399901Y193569D01*
X399939Y193737D01*
X399961Y193907D01*
X399969Y194079D01*
X410992Y194079D02*
X399969Y194079D01*
X396031Y194079D02*
X385008Y194079D01*
X57087Y243472D02*
X442913Y243472D01*
X442913Y312528D01*
X57087Y312528D01*
X57087Y243472D01*
X431000Y193000D02*
X431000Y163000D01*
X441000Y163000D01*
X441000Y193000D01*
X431000Y193000D01*
X67056Y195321D02*
X68167Y194726D01*
X69278Y194726D01*
X70389Y195321D01*
X67056Y197107D01*
X68167Y197702D01*
X69278Y197702D01*
X70389Y197107D01*
X72056Y197702D02*
X72611Y194726D01*
X73722Y195917D01*
X74833Y194726D01*
X75389Y197702D01*
X77611Y197107D02*
X78722Y197702D01*
X78722Y194726D01*
X77056Y194726D02*
X80389Y194726D01*
X98000Y199000D02*
X98000Y203500D01*
X98000Y187167D02*
X98000Y190500D01*
X97167Y189667D01*
X96500Y192000D02*
X99500Y192000D01*
X97000Y198000D02*
X99000Y198000D01*
X97000Y198500D02*
X98500Y198500D01*
X97500Y199000D02*
X98000Y199000D01*
X99500Y205000D02*
X96500Y205000D01*
X99000Y204500D02*
X97000Y204500D01*
X98500Y204000D02*
X97500Y204000D01*
X94167Y213000D02*
X88000Y213000D01*
X88000Y183000D01*
X96500Y205000D02*
X96500Y192000D01*
X88000Y183000D02*
X94167Y183000D01*
X88000Y188000D02*
X93000Y183000D01*
X93000Y203833D02*
X92997Y203906D01*
X92987Y203978D01*
X92971Y204049D01*
X92950Y204118D01*
X92922Y204186D01*
X92888Y204250D01*
X92849Y204311D01*
X92805Y204369D01*
X92756Y204423D01*
X92702Y204472D01*
X92645Y204516D01*
X92583Y204555D01*
X92519Y204589D01*
X92452Y204617D01*
X92382Y204638D01*
X92311Y204654D01*
X92239Y204664D01*
X92167Y204667D01*
X92094Y204664D01*
X92022Y204654D01*
X91951Y204638D01*
X91882Y204617D01*
X91814Y204589D01*
X91750Y204555D01*
X91689Y204516D01*
X91631Y204472D01*
X91577Y204423D01*
X91528Y204369D01*
X91484Y204311D01*
X91445Y204250D01*
X91411Y204186D01*
X91383Y204118D01*
X91362Y204049D01*
X91346Y203978D01*
X91336Y203906D01*
X91333Y203833D01*
X91333Y202167D02*
X91336Y202094D01*
X91346Y202022D01*
X91362Y201951D01*
X91383Y201882D01*
X91411Y201814D01*
X91445Y201750D01*
X91484Y201689D01*
X91528Y201631D01*
X91577Y201577D01*
X91631Y201528D01*
X91689Y201484D01*
X91750Y201445D01*
X91814Y201411D01*
X91882Y201383D01*
X91951Y201362D01*
X92022Y201346D01*
X92094Y201336D01*
X92167Y201333D01*
X92239Y201336D01*
X92311Y201346D01*
X92382Y201362D01*
X92452Y201383D01*
X92519Y201411D01*
X92583Y201445D01*
X92645Y201484D01*
X92702Y201528D01*
X92756Y201577D01*
X92805Y201631D01*
X92849Y201689D01*
X92888Y201750D01*
X92922Y201814D01*
X92950Y201882D01*
X92971Y201951D01*
X92987Y202022D01*
X92997Y202094D01*
X93000Y202167D01*
X91333Y202167D02*
X91333Y203833D01*
X97000Y204500D02*
X97000Y198500D01*
X97500Y204000D02*
X97500Y199000D01*
X95500Y204667D02*
X95500Y201333D01*
X93833Y201333D02*
X93833Y204667D01*
X95500Y201333D02*
X93833Y204667D01*
X93000Y203833D02*
X93000Y202167D01*
X128000Y213000D02*
X121333Y213000D01*
X128000Y183000D02*
X128000Y213000D01*
X99500Y192000D02*
X99500Y205000D01*
X106500Y205000D02*
X106500Y192000D01*
X109500Y192000D02*
X109500Y205000D01*
X108000Y188833D02*
X107927Y188830D01*
X107855Y188821D01*
X107784Y188805D01*
X107715Y188783D01*
X107648Y188755D01*
X107583Y188722D01*
X107522Y188683D01*
X107464Y188638D01*
X107411Y188589D01*
X107362Y188536D01*
X107317Y188478D01*
X107278Y188417D01*
X107245Y188352D01*
X107217Y188285D01*
X107195Y188216D01*
X107179Y188145D01*
X107170Y188073D01*
X107167Y188000D01*
X108000Y188833D02*
X108073Y188836D01*
X108145Y188846D01*
X108216Y188862D01*
X108285Y188883D01*
X108352Y188911D01*
X108417Y188945D01*
X108478Y188984D01*
X108536Y189028D01*
X108589Y189077D01*
X108638Y189131D01*
X108683Y189189D01*
X108722Y189250D01*
X108755Y189314D01*
X108783Y189382D01*
X108805Y189451D01*
X108821Y189522D01*
X108830Y189594D01*
X108833Y189667D01*
X108830Y189739D01*
X108821Y189811D01*
X108805Y189882D01*
X108783Y189952D01*
X108755Y190019D01*
X108722Y190083D01*
X108683Y190145D01*
X108638Y190202D01*
X108589Y190256D01*
X108536Y190305D01*
X108478Y190349D01*
X108417Y190388D01*
X108352Y190422D01*
X108285Y190450D01*
X108216Y190471D01*
X108145Y190487D01*
X108073Y190497D01*
X108000Y190500D01*
X107927Y190497D01*
X107855Y190487D01*
X107784Y190471D01*
X107715Y190450D01*
X107648Y190422D01*
X107583Y190388D01*
X107522Y190349D01*
X107464Y190305D01*
X107411Y190256D01*
X107362Y190202D01*
X107317Y190145D01*
X107278Y190083D01*
X107245Y190019D01*
X107217Y189952D01*
X107195Y189882D01*
X107179Y189811D01*
X107170Y189739D01*
X107167Y189667D01*
X108833Y187167D02*
X107167Y187167D01*
X107167Y188000D01*
X106500Y192000D02*
X109500Y192000D01*
X107000Y204500D02*
X107000Y198500D01*
X107500Y204000D02*
X107500Y199000D01*
X107000Y198000D02*
X109000Y198000D01*
X107000Y198500D02*
X108500Y198500D01*
X107500Y199000D02*
X108000Y199000D01*
X109500Y205000D02*
X106500Y205000D01*
X109000Y204500D02*
X107000Y204500D01*
X108500Y204000D02*
X107500Y204000D01*
X99000Y198000D02*
X99000Y204500D01*
X98500Y198500D02*
X98500Y204000D01*
X109000Y198000D02*
X109000Y204500D01*
X108500Y198500D02*
X108500Y204000D01*
X108000Y199000D02*
X108000Y203500D01*
X119500Y192000D02*
X119500Y205000D01*
X116500Y205000D02*
X116500Y192000D01*
X121333Y183000D02*
X128000Y183000D01*
X116500Y192000D02*
X119500Y192000D01*
X117167Y188000D02*
X117170Y187927D01*
X117179Y187855D01*
X117195Y187784D01*
X117217Y187715D01*
X117245Y187648D01*
X117278Y187583D01*
X117317Y187522D01*
X117362Y187464D01*
X117411Y187411D01*
X117464Y187362D01*
X117522Y187317D01*
X117583Y187278D01*
X117648Y187245D01*
X117715Y187217D01*
X117784Y187195D01*
X117855Y187179D01*
X117927Y187170D01*
X118000Y187167D01*
X118073Y187170D01*
X118145Y187179D01*
X118216Y187195D01*
X118285Y187217D01*
X118352Y187245D01*
X118417Y187278D01*
X118478Y187317D01*
X118536Y187362D01*
X118589Y187411D01*
X118638Y187464D01*
X118683Y187522D01*
X118722Y187583D01*
X118755Y187648D01*
X118783Y187715D01*
X118805Y187784D01*
X118821Y187855D01*
X118830Y187927D01*
X118833Y188000D01*
X118830Y188073D01*
X118821Y188145D01*
X118805Y188216D01*
X118783Y188285D01*
X118755Y188352D01*
X118722Y188417D01*
X118683Y188478D01*
X118638Y188536D01*
X118589Y188589D01*
X118536Y188638D01*
X118478Y188683D01*
X118417Y188722D01*
X118352Y188755D01*
X118285Y188783D01*
X118216Y188805D01*
X118145Y188821D01*
X118073Y188830D01*
X118000Y188833D01*
X118073Y188836D01*
X118145Y188846D01*
X118216Y188862D01*
X118285Y188883D01*
X118352Y188911D01*
X118417Y188945D01*
X118478Y188984D01*
X118536Y189028D01*
X118589Y189077D01*
X118638Y189131D01*
X118683Y189189D01*
X118722Y189250D01*
X118755Y189314D01*
X118783Y189382D01*
X118805Y189451D01*
X118821Y189522D01*
X118830Y189594D01*
X118833Y189667D01*
X118830Y189739D01*
X118821Y189811D01*
X118805Y189882D01*
X118783Y189952D01*
X118755Y190019D01*
X118722Y190083D01*
X118683Y190145D01*
X118638Y190202D01*
X118589Y190256D01*
X118536Y190305D01*
X118478Y190349D01*
X118417Y190388D01*
X118352Y190422D01*
X118285Y190450D01*
X118216Y190471D01*
X118145Y190487D01*
X118073Y190497D01*
X118000Y190500D01*
X117927Y190497D01*
X117855Y190487D01*
X117784Y190471D01*
X117715Y190450D01*
X117648Y190422D01*
X117583Y190388D01*
X117522Y190349D01*
X117464Y190305D01*
X117411Y190256D01*
X117362Y190202D01*
X117317Y190145D01*
X117278Y190083D01*
X117245Y190019D01*
X117217Y189952D01*
X117195Y189882D01*
X117179Y189811D01*
X117170Y189739D01*
X117167Y189667D01*
X119000Y198000D02*
X119000Y204500D01*
X117000Y204500D02*
X117000Y198500D01*
X118500Y198500D02*
X118500Y204000D01*
X117500Y204000D02*
X117500Y199000D01*
X118000Y199000D02*
X118000Y203500D01*
X117000Y198000D02*
X119000Y198000D01*
X117000Y198500D02*
X118500Y198500D01*
X117500Y199000D02*
X118000Y199000D01*
X119500Y205000D02*
X116500Y205000D01*
X119000Y204500D02*
X117000Y204500D01*
X118500Y204000D02*
X117500Y204000D01*
X163333Y116167D02*
X176667Y116167D01*
X176667Y107833D02*
X163333Y107833D01*
X163333Y116167D01*
X176667Y116167D02*
X176667Y107833D01*
X198167Y154667D02*
X198167Y141333D01*
X189833Y141333D02*
X189833Y154667D01*
X198167Y154667D01*
X198167Y141333D02*
X189833Y141333D01*
X176167Y154667D02*
X176167Y141333D01*
X167833Y141333D02*
X167833Y154667D01*
X176167Y154667D01*
X176167Y141333D02*
X167833Y141333D01*
X205833Y145333D02*
X205833Y158667D01*
X214167Y158667D02*
X214167Y145333D01*
X205833Y145333D01*
X205833Y158667D02*
X214167Y158667D01*
X276167Y154667D02*
X276167Y141333D01*
X267833Y141333D02*
X267833Y154667D01*
X276167Y154667D01*
X276167Y141333D02*
X267833Y141333D01*
X98167Y116726D02*
X99278Y116726D01*
X98167Y119702D02*
X99278Y119702D01*
X98722Y116726D02*
X98722Y119702D01*
X105389Y117321D02*
X104278Y116726D01*
X103167Y116726D01*
X102056Y117321D01*
X102056Y119107D01*
X103167Y119702D01*
X104278Y119702D01*
X105389Y119107D01*
X107611Y119107D02*
X108722Y119702D01*
X108722Y116726D01*
X107056Y116726D02*
X110389Y116726D01*
X128750Y120000D02*
X128679Y121634D01*
X128465Y123256D01*
X128111Y124853D01*
X127619Y126413D01*
X126993Y127924D01*
X126238Y129375D01*
X125359Y130755D01*
X124363Y132052D01*
X123258Y133258D01*
X122052Y134363D01*
X120755Y135359D01*
X119375Y136238D01*
X117924Y136993D01*
X116413Y137619D01*
X114853Y138111D01*
X113256Y138465D01*
X111634Y138679D01*
X110000Y138750D01*
X108366Y138679D01*
X106744Y138465D01*
X105147Y138111D01*
X103587Y137619D01*
X102076Y136993D01*
X100625Y136238D01*
X99245Y135359D01*
X97948Y134363D01*
X96742Y133258D01*
X95637Y132052D01*
X94641Y130755D01*
X93762Y129375D01*
X93007Y127924D01*
X92381Y126413D01*
X91889Y124853D01*
X91535Y123256D01*
X91321Y121634D01*
X91250Y120000D01*
X91321Y118366D01*
X91535Y116744D01*
X91889Y115147D01*
X92381Y113587D01*
X93007Y112076D01*
X93762Y110625D01*
X94641Y109245D01*
X95637Y107948D01*
X96742Y106742D01*
X97948Y105637D01*
X99245Y104641D01*
X100625Y103762D01*
X102076Y103007D01*
X103587Y102381D01*
X105147Y101889D01*
X106744Y101535D01*
X108366Y101321D01*
X110000Y101250D01*
X111634Y101321D01*
X113256Y101535D01*
X114853Y101889D01*
X116413Y102381D01*
X117924Y103007D01*
X119375Y103762D01*
X120755Y104641D01*
X122052Y105637D01*
X123258Y106742D01*
X124363Y107948D01*
X125359Y109245D01*
X126238Y110625D01*
X126993Y112076D01*
X127619Y113587D01*
X128111Y115147D01*
X128465Y116744D01*
X128679Y118366D01*
X128750Y120000D01*
X91500Y104500D02*
X94500Y101500D01*
X98333Y105333D01*
X95333Y108333D02*
X91500Y104500D01*
X124000Y118000D02*
X124000Y117000D01*
X105000Y107000D02*
X105000Y113000D01*
X104000Y112000D01*
X106000Y107000D02*
X104000Y107000D01*
X124000Y117000D02*
X127000Y117000D01*
X103000Y132000D02*
X104000Y133000D01*
X105000Y133000D01*
X106000Y132000D01*
X106000Y131000D01*
X105000Y130000D01*
X106000Y129000D02*
X106000Y128000D01*
X105000Y130000D02*
X106000Y129000D01*
X104000Y127000D02*
X103000Y128000D01*
X106000Y128000D02*
X105000Y127000D01*
X104000Y127000D01*
X105000Y130000D02*
X104000Y130000D01*
X127000Y121000D02*
X124000Y118000D01*
X124000Y122000D02*
X125000Y123000D01*
X126000Y123000D02*
X127000Y122000D01*
X125000Y123000D02*
X126000Y123000D01*
X127000Y122000D02*
X127000Y121000D01*
G54D12*
X242630Y134488D02*
X243222Y133893D01*
X243815Y133893D01*
X244407Y134488D01*
X244407Y136274D01*
X243815Y136869D01*
X243222Y136869D01*
X242630Y136274D01*
X242630Y134488D01*
X243815Y134488D02*
X244407Y133893D01*
X245593Y136274D02*
X246185Y136869D01*
X246185Y133893D01*
X245296Y133893D02*
X247074Y133893D01*
G54D13*
X319422Y179971D02*
X319422Y182491D01*
X323640Y179971D01*
X323640Y182491D01*
X323640Y183751D02*
X323640Y185430D01*
X322796Y186270D01*
X320265Y186270D01*
X319422Y185430D01*
X319422Y183751D01*
X319422Y184171D02*
X323640Y184171D01*
X320265Y187950D02*
X319422Y188790D01*
X323640Y188790D01*
X323640Y187530D02*
X323640Y190050D01*
G54D14*
G36*
X316898Y174497D02*
X316898Y177646D01*
X327225Y177646D01*
X327225Y174497D01*
X316898Y174497D01*
G37*
G54D15*
X324980Y159735D02*
X324700Y159453D01*
X324420Y159453D01*
X324140Y159735D01*
X324140Y160578D01*
X324420Y160859D01*
X324700Y160859D01*
X324980Y160578D01*
X318547Y194880D02*
X317703Y194880D01*
X317141Y195160D01*
X317141Y195440D01*
X317703Y195720D01*
X318547Y195720D01*
X318125Y194880D02*
X318125Y195720D01*
G54D16*
X289000Y157000D02*
X297000Y150000D01*
G54D17*
G36*
X337723Y166240D02*
X337723Y166240D01*
X338692Y160657D01*
X338692Y166240D01*
X337723Y166240D01*
D02*
G37*
X338692Y160657D01*
X338692Y166240D01*
X337723Y166240D01*
G36*
X338692Y160657D02*
X338692Y160657D01*
X337723Y166240D01*
X337723Y163939D01*
X338692Y160657D01*
D02*
G37*
X337723Y166240D01*
X337723Y163939D01*
X338692Y160657D01*
G36*
X337723Y163939D02*
X337723Y163939D01*
X337723Y162959D01*
X338692Y160657D01*
X337723Y163939D01*
D02*
G37*
X337723Y162959D01*
X338692Y160657D01*
X337723Y163939D01*
G36*
X337723Y162959D02*
X337723Y162959D01*
X337723Y163939D01*
X335422Y163939D01*
X337723Y162959D01*
D02*
G37*
X337723Y163939D01*
X335422Y163939D01*
X337723Y162959D01*
G36*
X335422Y163939D02*
X335422Y163939D01*
X335422Y162959D01*
X337723Y162959D01*
X335422Y163939D01*
D02*
G37*
X335422Y162959D01*
X337723Y162959D01*
X335422Y163939D01*
G36*
X338692Y162959D02*
X338692Y162959D01*
X341011Y162959D01*
X338692Y163939D01*
X338692Y162959D01*
D02*
G37*
X341011Y162959D01*
X338692Y163939D01*
X338692Y162959D01*
G36*
X338692Y162959D01*
X338692Y166240D01*
X338692Y162959D01*
D02*
G37*
X338692Y166240D01*
X338692Y162959D01*
G36*
X338692Y162959D01*
X338692Y166240D01*
X338692Y160657D01*
X338692Y162959D01*
D02*
G37*
X338692Y166240D01*
X338692Y160657D01*
X338692Y162959D01*
G36*
X338692Y163939D02*
X338692Y163939D01*
X341011Y162959D01*
X341011Y163939D01*
X338692Y163939D01*
D02*
G37*
X341011Y162959D01*
X341011Y163939D01*
X338692Y163939D01*
G36*
X338692Y160657D02*
X338692Y160657D01*
X337723Y162959D01*
X337723Y160657D01*
X338692Y160657D01*
D02*
G37*
X337723Y162959D01*
X337723Y160657D01*
X338692Y160657D01*
X294425Y123151D02*
X294425Y123151D01*
X307151Y119575D02*
X307151Y119575D01*
X368849Y178425D02*
X368849Y178425D01*
X388849Y200425D02*
X388849Y200425D01*
X270425Y135151D02*
X270425Y135151D01*
X372849Y134425D02*
X372849Y134425D01*
X422849Y108425D02*
X422849Y108425D01*
X368849Y102425D02*
X368849Y102425D01*
X424849Y122425D02*
X424849Y122425D01*
G54D18*
X341543Y181106D02*
X342331Y180322D01*
X342331Y179538D01*
X341543Y178754D01*
X339181Y178754D01*
X338394Y179538D01*
X338394Y180322D01*
X339181Y181106D01*
X339181Y182674D02*
X338394Y183458D01*
X342331Y183458D01*
X342331Y182282D02*
X342331Y184633D01*
X265392Y221669D02*
X266960Y221669D01*
X267744Y222457D01*
X267744Y224819D01*
X266960Y225606D01*
X265392Y225606D01*
X265784Y225606D02*
X265784Y221669D01*
X269311Y224819D02*
X270095Y225606D01*
X270095Y221669D01*
X268920Y221669D02*
X271271Y221669D01*
X292447Y123669D02*
X292447Y127606D01*
X294015Y127606D01*
X294799Y126819D01*
X294799Y126425D01*
X294015Y125638D01*
X292447Y125638D01*
X292839Y125638D02*
X294799Y123669D01*
X295975Y126819D02*
X296759Y127606D01*
X297542Y127606D01*
X298326Y126819D01*
X298326Y126425D01*
X295975Y123669D01*
X298326Y123669D01*
X298326Y124063D01*
X318447Y115669D02*
X318447Y119606D01*
X320015Y119606D01*
X320799Y118819D01*
X320799Y118425D01*
X320015Y117638D01*
X318447Y117638D01*
X318839Y117638D02*
X320799Y115669D01*
X322367Y119213D02*
X322759Y119606D01*
X323542Y119606D01*
X324326Y118819D01*
X324326Y118031D01*
X323934Y117638D01*
X324326Y117244D01*
X324326Y116457D01*
X323542Y115669D01*
X322759Y115669D01*
X322367Y116063D01*
X322759Y117638D02*
X323934Y117638D01*
X362975Y184669D02*
X362975Y188606D01*
X364542Y188606D01*
X365326Y187819D01*
X365326Y187425D01*
X364542Y186638D01*
X362975Y186638D01*
X363367Y186638D02*
X365326Y184669D01*
X367678Y184669D02*
X367678Y186638D01*
X368854Y187819D01*
X368854Y188606D01*
X366502Y188606D01*
X366502Y187819D01*
X389211Y204669D02*
X389211Y208606D01*
X390779Y208606D01*
X391563Y207819D01*
X391563Y207425D01*
X390779Y206638D01*
X389211Y206638D01*
X389603Y206638D02*
X391563Y204669D01*
X394698Y208606D02*
X393522Y208606D01*
X392738Y207819D01*
X392738Y206244D01*
X392738Y205457D01*
X393522Y204669D01*
X394306Y204669D01*
X395090Y205457D01*
X395090Y206244D01*
X394306Y207031D01*
X393522Y207031D01*
X392738Y206244D01*
X254211Y129669D02*
X254211Y133606D01*
X255779Y133606D01*
X256563Y132819D01*
X256563Y132425D01*
X255779Y131638D01*
X254211Y131638D01*
X254603Y131638D02*
X256563Y129669D01*
X258130Y132819D02*
X258914Y133606D01*
X258914Y129669D01*
X257738Y129669D02*
X260090Y129669D01*
X375211Y140669D02*
X375211Y144606D01*
X376779Y144606D01*
X377563Y143819D01*
X377563Y143425D01*
X376779Y142638D01*
X375211Y142638D01*
X375603Y142638D02*
X377563Y140669D01*
X381090Y142244D02*
X378738Y142244D01*
X380698Y144606D01*
X380698Y140669D01*
X380306Y140669D02*
X381090Y140669D01*
X432181Y108789D02*
X436118Y108789D01*
X436118Y107221D01*
X435331Y106437D01*
X434937Y106437D01*
X434150Y107221D01*
X434150Y108789D01*
X434150Y108397D02*
X432181Y106437D01*
X436118Y102910D02*
X436118Y105262D01*
X434543Y105262D01*
X434543Y103694D01*
X433756Y102910D01*
X432969Y102910D01*
X432181Y103694D01*
X432181Y105262D01*
X367067Y97464D02*
X367067Y101401D01*
X368635Y101401D01*
X369419Y100614D01*
X369419Y100220D01*
X368635Y99433D01*
X367067Y99433D01*
X367459Y99433D02*
X369419Y97464D01*
X372163Y97464D02*
X371379Y97464D01*
X370595Y98251D01*
X370595Y99039D01*
X370987Y99433D01*
X370595Y99826D01*
X370595Y100614D01*
X371379Y101401D01*
X372163Y101401D01*
X372947Y100614D01*
X372947Y99826D01*
X372555Y99433D01*
X372947Y99039D01*
X372947Y98251D01*
X372163Y97464D01*
X370987Y99433D02*
X372555Y99433D01*
X423067Y117464D02*
X423067Y121401D01*
X424635Y121401D01*
X425419Y120614D01*
X425419Y120220D01*
X424635Y119433D01*
X423067Y119433D01*
X423459Y119433D02*
X425419Y117464D01*
X426595Y118251D02*
X427379Y117464D01*
X428163Y117464D01*
X428947Y118251D01*
X428947Y119826D01*
X428947Y120614D01*
X428163Y121401D01*
X427379Y121401D01*
X426595Y120614D01*
X426595Y119826D01*
X427379Y119039D01*
X428163Y119039D01*
X428947Y119826D01*
G54D19*
X74216Y240362D02*
X71864Y240362D01*
X71864Y238787D01*
X73432Y238787D01*
X74216Y238000D01*
X74216Y237213D01*
X73432Y236425D01*
X71864Y236425D01*
X75392Y240362D02*
X76568Y236425D01*
X77744Y240362D01*
X370493Y241575D02*
X371276Y242362D01*
X371276Y238425D01*
X370101Y238425D02*
X372452Y238425D01*
X373628Y241575D02*
X374412Y242362D01*
X375196Y242362D01*
X375980Y241575D01*
X375980Y241181D01*
X373628Y238425D01*
X375980Y238425D01*
X375980Y238819D01*
X377156Y242362D02*
X378332Y238425D01*
X379507Y242362D01*
X411864Y240575D02*
X412648Y241362D01*
X413432Y241362D01*
X414216Y240575D01*
X414216Y238213D01*
X413432Y237425D01*
X412648Y237425D01*
X411864Y238213D01*
X411864Y240575D01*
X414216Y240575D02*
X411864Y238213D01*
X415392Y241362D02*
X416568Y237425D01*
X417744Y241362D01*
X418101Y176425D02*
X418101Y178787D01*
X418885Y180362D01*
X419668Y180362D01*
X420452Y178787D01*
X420452Y176425D01*
X418101Y177606D02*
X420452Y177606D01*
X421628Y176425D02*
X421628Y180362D01*
X423980Y176425D01*
X423980Y180362D01*
X425548Y179575D02*
X426332Y180362D01*
X426332Y176425D01*
X425156Y176425D02*
X427507Y176425D01*
X150216Y240362D02*
X147864Y240362D01*
X147864Y238787D01*
X149432Y238787D01*
X150216Y238000D01*
X150216Y237213D01*
X149432Y236425D01*
X147864Y236425D01*
X151392Y240362D02*
X152568Y236425D01*
X153744Y240362D01*
X105573Y236425D02*
X105573Y238787D01*
X106357Y240362D01*
X107141Y240362D01*
X107925Y238787D01*
X107925Y236425D01*
X105573Y237606D02*
X107925Y237606D01*
X109101Y236425D02*
X109101Y240362D01*
X111452Y236425D01*
X111452Y240362D01*
X113412Y236425D02*
X114196Y236425D01*
X113412Y240362D02*
X114196Y240362D01*
X113804Y236425D02*
X113804Y240362D01*
X116156Y236425D02*
X116156Y240362D01*
X118507Y236425D01*
X118507Y240362D01*
X120075Y239575D02*
X120859Y240362D01*
X120859Y236425D01*
X119683Y236425D02*
X122035Y236425D01*
X179573Y236425D02*
X179573Y240362D01*
X180749Y238394D01*
X181925Y240362D01*
X181925Y236425D01*
X183101Y236425D02*
X183101Y238787D01*
X183885Y240362D01*
X184668Y240362D01*
X185452Y238787D01*
X185452Y236425D01*
X183101Y237606D02*
X185452Y237606D01*
X186628Y236425D02*
X186628Y240362D01*
X188196Y240362D01*
X188980Y239575D01*
X188980Y239181D01*
X188196Y238394D01*
X186628Y238394D01*
X190940Y236425D02*
X191724Y236425D01*
X190940Y240362D02*
X191724Y240362D01*
X191332Y236425D02*
X191332Y240362D01*
X193683Y236425D02*
X193683Y240362D01*
X196035Y236425D01*
X196035Y240362D01*
X288593Y236425D02*
X289377Y236425D01*
X288593Y240362D02*
X289377Y240362D01*
X288985Y236425D02*
X288985Y240362D01*
X292905Y238394D02*
X293689Y238394D01*
X293689Y237213D01*
X292905Y236425D01*
X292121Y236425D01*
X291337Y237213D01*
X291337Y239575D01*
X292121Y240362D01*
X293689Y240362D01*
X294864Y236425D02*
X294864Y240362D01*
X297216Y236425D01*
X297216Y240362D01*
X298392Y237213D02*
X299176Y236425D01*
X299960Y236425D01*
X300744Y237213D01*
X300744Y239575D01*
X299960Y240362D01*
X299176Y240362D01*
X298392Y239575D01*
X298392Y237213D01*
X301920Y240362D02*
X301920Y237213D01*
X302703Y236425D01*
X303487Y236425D01*
X304271Y237213D01*
X304271Y240362D01*
X306623Y236425D02*
X306623Y240362D01*
X305447Y240362D02*
X307799Y240362D01*
X328357Y236425D02*
X329141Y236425D01*
X328357Y240362D02*
X329141Y240362D01*
X328749Y236425D02*
X328749Y240362D01*
X332668Y238394D02*
X333452Y238394D01*
X333452Y237213D01*
X332668Y236425D01*
X331885Y236425D01*
X331101Y237213D01*
X331101Y239575D01*
X331885Y240362D01*
X333452Y240362D01*
X334628Y236425D02*
X334628Y240362D01*
X336980Y236425D01*
X336980Y240362D01*
X338940Y236425D02*
X339724Y236425D01*
X338940Y240362D02*
X339724Y240362D01*
X339332Y236425D02*
X339332Y240362D01*
X341683Y236425D02*
X341683Y240362D01*
X344035Y236425D01*
X344035Y240362D01*
X131573Y118425D02*
X131573Y122362D01*
X133141Y122362D01*
X133925Y121575D01*
X133925Y121181D01*
X133141Y120394D01*
X131573Y120394D01*
X135885Y118425D02*
X136668Y118425D01*
X135885Y122362D02*
X136668Y122362D01*
X136276Y118425D02*
X136276Y122362D01*
X138628Y118425D02*
X138628Y122362D01*
X140980Y118425D01*
X140980Y122362D01*
X146075Y121575D02*
X146859Y122362D01*
X146859Y118425D01*
X145683Y118425D02*
X148035Y118425D01*
X116573Y107425D02*
X116573Y111362D01*
X118141Y111362D01*
X118925Y110575D01*
X118925Y110181D01*
X118141Y109394D01*
X116573Y109394D01*
X120885Y107425D02*
X121668Y107425D01*
X120885Y111362D02*
X121668Y111362D01*
X121276Y107425D02*
X121276Y111362D01*
X123628Y107425D02*
X123628Y111362D01*
X125980Y107425D01*
X125980Y111362D01*
X131075Y110969D02*
X131467Y111362D01*
X132251Y111362D01*
X133035Y110575D01*
X133035Y109787D01*
X132643Y109394D01*
X133035Y109000D01*
X133035Y108213D01*
X132251Y107425D01*
X131467Y107425D01*
X131075Y107819D01*
X131467Y109394D02*
X132643Y109394D01*
X215392Y235669D02*
X215392Y239606D01*
X216960Y239606D01*
X217744Y238819D01*
X217744Y238425D01*
X216960Y237638D01*
X215392Y237638D01*
X218920Y239606D02*
X219311Y235669D01*
X220095Y237244D01*
X220879Y235669D01*
X221271Y239606D01*
X222447Y235669D02*
X222447Y239606D01*
X223623Y237638D01*
X224799Y239606D01*
X224799Y235669D01*
X225975Y236457D02*
X226759Y235669D01*
X227542Y235669D01*
X228326Y236457D01*
X228326Y238819D01*
X227542Y239606D01*
X226759Y239606D01*
X225975Y238819D01*
X225975Y236457D01*
X229502Y239606D02*
X229502Y236457D01*
X230286Y235669D01*
X231070Y235669D01*
X231854Y236457D01*
X231854Y239606D01*
X234206Y235669D02*
X234206Y239606D01*
X233030Y239606D02*
X235381Y239606D01*
X236949Y238819D02*
X237733Y239606D01*
X237733Y235669D01*
X236557Y235669D02*
X238909Y235669D01*
X252392Y236669D02*
X252392Y240606D01*
X253960Y240606D01*
X254744Y239819D01*
X254744Y239425D01*
X253960Y238638D01*
X252392Y238638D01*
X255920Y240606D02*
X256311Y236669D01*
X257095Y238244D01*
X257879Y236669D01*
X258271Y240606D01*
X259447Y236669D02*
X259447Y240606D01*
X260623Y238638D01*
X261799Y240606D01*
X261799Y236669D01*
X262975Y237457D02*
X263759Y236669D01*
X264542Y236669D01*
X265326Y237457D01*
X265326Y239819D01*
X264542Y240606D01*
X263759Y240606D01*
X262975Y239819D01*
X262975Y237457D01*
X266502Y240606D02*
X266502Y237457D01*
X267286Y236669D01*
X268070Y236669D01*
X268854Y237457D01*
X268854Y240606D01*
X271206Y236669D02*
X271206Y240606D01*
X270030Y240606D02*
X272381Y240606D01*
X273557Y239819D02*
X274341Y240606D01*
X275125Y240606D01*
X275909Y239819D01*
X275909Y239425D01*
X273557Y236669D01*
X275909Y236669D01*
X275909Y237063D01*
X120392Y128669D02*
X120392Y132606D01*
X121960Y132606D01*
X122744Y131819D01*
X122744Y131425D01*
X121960Y130638D01*
X120392Y130638D01*
X124703Y128669D02*
X125487Y128669D01*
X124703Y132606D02*
X125487Y132606D01*
X125095Y128669D02*
X125095Y132606D01*
X127447Y128669D02*
X127447Y132606D01*
X129799Y128669D01*
X129799Y132606D01*
X134502Y131819D02*
X135286Y132606D01*
X136070Y132606D01*
X136854Y131819D01*
X136854Y131425D01*
X134502Y128669D01*
X136854Y128669D01*
X136854Y129063D01*
X145085Y129457D02*
X145869Y128669D01*
X146653Y128669D01*
X147437Y129457D01*
X147437Y131819D01*
X146653Y132606D01*
X145869Y132606D01*
X145085Y131819D01*
X145085Y129457D01*
X148612Y132606D02*
X148612Y129457D01*
X149396Y128669D01*
X150180Y128669D01*
X150964Y129457D01*
X150964Y132606D01*
X153316Y128669D02*
X153316Y132606D01*
X152140Y132606D02*
X154492Y132606D01*
G54D20*
X256142Y224000D02*
X244724Y224000D01*
X276614Y224000D02*
X288031Y224000D01*
X256929Y228724D02*
X275827Y228724D01*
X275827Y219276D01*
X256929Y219276D01*
X256929Y228724D01*
G54D21*
G36*
X259685Y219328D02*
X259685Y228772D01*
X262835Y228772D01*
X262835Y219328D01*
X259685Y219328D01*
G37*
G54D22*
X159988Y111251D02*
X160393Y110848D01*
X160393Y110445D01*
X159988Y110042D01*
X158774Y110042D01*
X158369Y110445D01*
X158369Y110848D01*
X158774Y111251D01*
X158774Y111855D02*
X158369Y112258D01*
X158369Y112661D01*
X158774Y113064D01*
X158976Y113064D01*
X160393Y111855D01*
X160393Y113064D01*
X160190Y113064D01*
X196037Y158179D02*
X195634Y157774D01*
X195231Y157774D01*
X194828Y158179D01*
X194828Y159393D01*
X195231Y159798D01*
X195634Y159798D01*
X196037Y159393D01*
X196842Y159595D02*
X197044Y159798D01*
X197447Y159798D01*
X197850Y159393D01*
X197850Y158988D01*
X197648Y158786D01*
X197850Y158583D01*
X197850Y158179D01*
X197447Y157774D01*
X197044Y157774D01*
X196842Y157976D01*
X197044Y158786D02*
X197648Y158786D01*
X170943Y133179D02*
X170540Y132774D01*
X170137Y132774D01*
X169734Y133179D01*
X169734Y134393D01*
X170137Y134798D01*
X170540Y134798D01*
X170943Y134393D01*
X172756Y133583D02*
X171548Y133583D01*
X172555Y134798D01*
X172555Y132774D01*
X172353Y132774D02*
X172756Y132774D01*
X210014Y161249D02*
X209611Y160844D01*
X209208Y160844D01*
X208805Y161249D01*
X208805Y162463D01*
X209208Y162868D01*
X209611Y162868D01*
X210014Y162463D01*
X211827Y162868D02*
X210618Y162868D01*
X210618Y162059D01*
X211424Y162059D01*
X211827Y161654D01*
X211827Y161249D01*
X211424Y160844D01*
X210618Y160844D01*
X279179Y149057D02*
X278774Y149460D01*
X278774Y149863D01*
X279179Y150266D01*
X280393Y150266D01*
X280798Y149863D01*
X280798Y149460D01*
X280393Y149057D01*
X280798Y147445D02*
X280798Y148050D01*
X280393Y148452D01*
X279583Y148452D01*
X279179Y148452D01*
X278774Y148050D01*
X278774Y147647D01*
X279179Y147244D01*
X279583Y147244D01*
X279988Y147647D01*
X279988Y148050D01*
X279583Y148452D01*
G54D23*
X294407Y121791D02*
X294402Y118218D01*
X297597Y121902D02*
X297591Y118088D01*
X305791Y119593D02*
X302218Y119598D01*
X305902Y116403D02*
X302088Y116409D01*
X370209Y178407D02*
X373782Y178402D01*
X370098Y181597D02*
X373912Y181591D01*
X390209Y200407D02*
X393782Y200402D01*
X390098Y203597D02*
X393912Y203591D01*
X270407Y133791D02*
X270402Y130218D01*
X273597Y133902D02*
X273591Y130088D01*
X374209Y134407D02*
X377782Y134402D01*
X374098Y137597D02*
X377912Y137591D01*
X424209Y108407D02*
X427782Y108402D01*
X424098Y111597D02*
X427912Y111591D01*
X370209Y102407D02*
X373782Y102402D01*
X370098Y105597D02*
X373912Y105591D01*
X426209Y122407D02*
X429782Y122402D01*
X426098Y125597D02*
X429912Y125591D01*

M02*
