G04 Generated by Ultiboard 13.0 *
%FSLAX25Y25*%
%MOIN*%

%ADD10C,0.00001*%
%ADD11C,0.05337*%
%ADD12C,0.05000*%
%ADD13R,0.07874X0.07874*%
%ADD14C,0.07874*%
%ADD15R,0.06900X0.06900*%
%ADD16C,0.06900*%
%ADD17C,0.05906*%
%ADD18C,0.06334*%
%ADD19C,0.07834*%
%ADD20C,0.03937*%
%ADD21C,0.07699*%


G04 ColorRGB 9900CC for the following layer *
%LNSolder Mask Bottom*%
%LPD*%
G54D10*
G54D11*
X163000Y169039D03*
X173000Y169039D03*
X183000Y169039D03*
X193000Y169039D03*
X203000Y169039D03*
X213000Y169039D03*
X223000Y169039D03*
X233000Y169039D03*
X243000Y169039D03*
X253000Y169039D03*
X263000Y169039D03*
X273000Y169039D03*
X283000Y169039D03*
X293000Y169039D03*
X163000Y198961D03*
X173000Y198961D03*
X183000Y198961D03*
X193000Y198961D03*
X203000Y198961D03*
X213000Y198961D03*
X223000Y198961D03*
X233000Y198961D03*
X243000Y198961D03*
X253000Y198961D03*
X263000Y198961D03*
X273000Y198961D03*
X283000Y198961D03*
X293000Y198961D03*
X385039Y135000D03*
X414961Y125000D03*
X385039Y125000D03*
X385039Y115000D03*
X385039Y105000D03*
X414961Y135000D03*
X414961Y115000D03*
X414961Y105000D03*
X383039Y189000D03*
X412961Y169000D03*
X383039Y179000D03*
X383039Y169000D03*
X383039Y159000D03*
X412961Y189000D03*
X412961Y179000D03*
X412961Y159000D03*
X436000Y188000D03*
X436000Y178000D03*
X436000Y168000D03*
G54D12*
X252000Y150000D03*
X232833Y150000D03*
G54D13*
X322000Y164000D03*
G54D14*
X322000Y204000D03*
G54D15*
X252000Y216000D03*
G54D16*
X304756Y216000D03*
G54D17*
X338000Y210992D03*
X338000Y148000D03*
G54D18*
X350000Y122000D03*
X350000Y132000D03*
G54D19*
X122000Y120000D03*
X112000Y110000D03*
X112000Y130000D03*
G54D20*
X144685Y177165D03*
X283465Y183071D03*
X209646Y183071D03*
X277559Y177165D03*
X428150Y183071D03*
X218504Y147638D03*
X372047Y126969D03*
X126969Y188976D03*
X330709Y156496D03*
X301181Y197835D03*
X162402Y206693D03*
X150591Y200787D03*
X312992Y186024D03*
X271654Y186024D03*
X416339Y144685D03*
X422244Y103346D03*
X312992Y115157D03*
X280512Y126969D03*
X375000Y97441D03*
X150591Y215551D03*
X126969Y206693D03*
X97441Y203740D03*
X168307Y233268D03*
X180118Y188976D03*
X162402Y227362D03*
X147638Y224409D03*
X230315Y265748D03*
X345472Y265748D03*
G54D21*
X81339Y278000D03*
X118819Y278000D03*
X156299Y278000D03*
X193780Y278000D03*
X231260Y278000D03*
X268740Y278000D03*
X306220Y278000D03*
X343701Y278000D03*
X381181Y278000D03*
X418661Y278000D03*

M02*
