G04 Generated by Ultiboard 13.0 *
%FSLAX25Y25*%
%MOIN*%

%ADD10C,0.00001*%
%ADD11C,0.01000*%
%ADD12C,0.05337*%
%ADD13R,0.04668X0.02251*%
%ADD14C,0.01666*%
%ADD15C,0.05000*%
%ADD16R,0.07874X0.07874*%
%ADD17C,0.07874*%
%ADD18R,0.06900X0.06900*%
%ADD19C,0.06900*%
%ADD20C,0.05906*%
%ADD21R,0.05906X0.05906*%
%ADD22C,0.06334*%
%ADD23C,0.07834*%
%ADD24R,0.04251X0.07334*%
%ADD25R,0.01181X0.03150*%
%ADD26R,0.03150X0.01181*%
%ADD27R,0.02251X0.04668*%
%ADD28C,0.03937*%
%ADD29C,0.07699*%


G04 ColorRGB 00FF00 for the following layer *
%LNCopper Top*%
%LPD*%
G54D10*
G54D11*
X383039Y169000D02*
X381598Y169000D01*
X380906Y168307D01*
X345472Y132874D02*
X346346Y132000D01*
X350000Y132000D01*
X380906Y168307D02*
X345472Y168307D01*
X345472Y132874D01*
X177165Y159449D02*
X168307Y159449D01*
X163000Y165354D01*
X163000Y165953D01*
X163000Y169039D01*
X428150Y183071D02*
X428150Y186024D01*
X413386Y186024D01*
X412961Y186449D01*
X412961Y189000D01*
X383039Y169000D02*
X383039Y166173D01*
X383858Y165354D01*
X383858Y162402D01*
X383039Y161583D01*
X383039Y159000D01*
X144685Y177165D02*
X144685Y174213D01*
X113681Y174213D01*
X112205Y175689D01*
X112205Y177545D01*
X108000Y181750D01*
X200787Y153543D02*
X200787Y141732D01*
X197835Y138780D01*
X166831Y138780D01*
X165354Y140256D01*
X165354Y147638D01*
X169383Y151667D01*
X172000Y151667D01*
X253000Y169039D02*
X251717Y169039D01*
X250984Y168307D01*
X250984Y153543D01*
X252000Y152528D01*
X252000Y150000D01*
X394557Y202001D02*
X394557Y200787D01*
X392717Y200787D01*
X392717Y194882D01*
X389764Y191929D01*
X383858Y191929D01*
X383039Y191110D01*
X383039Y189000D01*
X385039Y125000D02*
X385039Y122244D01*
X383858Y121063D01*
X369094Y121063D01*
X366142Y124016D01*
X366142Y129921D01*
X369094Y132874D01*
X377953Y132874D01*
X378557Y133478D01*
X378557Y136001D01*
X428557Y110001D02*
X428557Y112205D01*
X434055Y129921D02*
X431102Y132874D01*
X425197Y132874D01*
X422244Y135827D01*
X422244Y147638D01*
X412961Y156921D01*
X412961Y159000D01*
X428557Y112205D02*
X432579Y112205D01*
X434055Y113681D01*
X434055Y129921D01*
X252000Y216000D02*
X248598Y212598D01*
X159449Y212598D01*
X156496Y209646D01*
X156496Y169783D01*
X155020Y168307D01*
X113681Y168307D01*
X112205Y166831D01*
X112205Y141732D01*
X106299Y135827D01*
X106299Y124016D01*
X109252Y121063D01*
X109252Y112205D01*
X109795Y112205D01*
X112000Y110000D01*
X345472Y168307D02*
X345472Y203740D01*
X342520Y206693D01*
X338000Y206693D01*
X338000Y210992D01*
X163000Y169039D02*
X163000Y165953D01*
X162402Y165354D01*
X118110Y165354D01*
X115157Y162402D01*
X115157Y132874D01*
X114874Y132874D01*
X112000Y130000D01*
X374557Y180001D02*
X374557Y177608D01*
X375000Y177165D01*
X363189Y212598D02*
X360236Y215551D01*
X318898Y215551D01*
X315945Y212598D01*
X315945Y209646D01*
X312992Y206693D01*
X277559Y206693D01*
X274606Y209646D01*
X162402Y209646D01*
X162402Y206693D01*
X150591Y200787D02*
X153543Y200787D01*
X153543Y174213D01*
X150591Y171260D01*
X106299Y171260D01*
X100394Y177165D01*
X100394Y179356D01*
X98000Y181750D01*
X375000Y177165D02*
X375000Y172736D01*
X373524Y171260D01*
X364665Y171260D01*
X363189Y172736D01*
X363189Y212598D01*
X436000Y178000D02*
X434890Y178000D01*
X434055Y177165D01*
X425197Y177165D01*
X422244Y174213D01*
X422244Y165354D01*
X419291Y162402D01*
X413386Y162402D01*
X412961Y161976D01*
X412961Y159000D01*
X279035Y165354D02*
X277559Y166831D01*
X277559Y177165D01*
X233000Y169039D02*
X233000Y165622D01*
X233268Y165354D01*
X233268Y162402D01*
X212123Y153543D02*
X210000Y155667D01*
X233268Y162402D02*
X227362Y156496D01*
X227362Y153543D01*
X212123Y153543D01*
X301443Y117999D02*
X301181Y117999D01*
X274606Y135827D02*
X273336Y134557D01*
X271999Y134557D01*
X301181Y117999D02*
X301181Y135827D01*
X274606Y135827D01*
X350000Y122000D02*
X346409Y122000D01*
X345472Y121063D01*
X307087Y121063D01*
X306557Y120533D01*
X306557Y118001D01*
X425443Y123999D02*
X425197Y123999D01*
X425197Y126969D01*
X422244Y126969D01*
X419291Y129921D01*
X419291Y140256D01*
X417815Y141732D01*
X416339Y141732D01*
X416339Y144685D01*
X373443Y135999D02*
X373443Y135827D01*
X351378Y135827D01*
X350000Y134449D01*
X350000Y132000D01*
X150591Y215551D02*
X150591Y218504D01*
X129921Y218504D01*
X126969Y215551D01*
X126969Y206693D01*
X97441Y203740D02*
X97441Y214250D01*
X98000Y214250D01*
X210000Y155667D02*
X207877Y153543D01*
X197835Y153543D01*
X195958Y151667D01*
X194000Y151667D01*
X296001Y117443D02*
X298228Y117443D01*
X298228Y113681D01*
X299705Y112205D01*
X312992Y112205D01*
X312992Y115157D01*
X274606Y129443D02*
X272001Y129443D01*
X280512Y126969D02*
X274606Y126969D01*
X274606Y129443D01*
X272000Y151667D02*
X269777Y151667D01*
X268701Y150591D01*
X253937Y150591D01*
X253346Y150000D01*
X252000Y150000D01*
X243000Y169039D02*
X243000Y166228D01*
X242126Y165354D01*
X242126Y162402D01*
X232833Y153109D01*
X232833Y150000D01*
X330709Y156496D02*
X327756Y156496D01*
X327756Y169783D01*
X326280Y171260D01*
X324803Y171260D01*
X321850Y174213D01*
X321850Y193406D01*
X320374Y194882D01*
X301181Y194882D01*
X301181Y197835D01*
X322000Y204000D02*
X319157Y204000D01*
X318898Y203740D01*
X239173Y203740D01*
X236220Y200787D01*
X234827Y200787D01*
X233000Y198961D01*
X369443Y103999D02*
X369443Y103346D01*
X94488Y103346D01*
X91535Y106299D01*
X91535Y187500D01*
X93012Y188976D01*
X100394Y188976D01*
X106299Y194882D01*
X106299Y214250D01*
X108000Y214250D01*
X272000Y144333D02*
X272000Y144685D01*
X228839Y144685D01*
X227362Y146161D01*
X227362Y153543D01*
X322000Y164000D02*
X318898Y164000D01*
X318898Y188976D01*
X315945Y191929D01*
X245079Y191929D01*
X243000Y194882D01*
X243000Y195756D01*
X243000Y198961D01*
X374557Y180001D02*
X374557Y182628D01*
X377953Y186024D01*
X377953Y193406D01*
X379429Y194882D01*
X380906Y194882D01*
X383858Y197835D01*
X386811Y197835D01*
X389443Y200787D01*
X389443Y201108D01*
X389443Y201999D01*
X233000Y198961D02*
X233000Y195150D01*
X233268Y194882D01*
X233268Y171260D01*
X233000Y170992D01*
X233000Y169039D01*
X292323Y119587D02*
X293799Y121063D01*
X295276Y121063D01*
X295276Y122557D01*
X295999Y122557D01*
X357283Y135827D02*
X357283Y109252D01*
X292323Y109252D01*
X292323Y119587D01*
X194000Y144333D02*
X191929Y146404D01*
X191929Y147638D01*
X190453Y147638D01*
X188976Y149114D01*
X188976Y156496D01*
X186024Y159449D01*
X177165Y149114D02*
X175689Y147638D01*
X174213Y147638D01*
X174213Y146546D01*
X172000Y144333D01*
X186024Y159449D02*
X177165Y159449D01*
X177165Y149114D01*
X423443Y109999D02*
X423443Y109252D01*
X422244Y109252D01*
X422244Y103346D01*
X233000Y198961D02*
X231441Y198961D01*
X230315Y197835D01*
X224126Y197835D01*
X223000Y198961D01*
X274606Y126969D02*
X168307Y126969D01*
X165354Y124016D01*
X165354Y118110D01*
X375000Y97441D02*
X375000Y103346D01*
X374557Y103346D01*
X374557Y104001D01*
X338000Y210992D02*
X338000Y208079D01*
X336614Y206693D01*
X324693Y206693D01*
X322000Y204000D01*
X292323Y109252D02*
X176415Y109252D01*
X173667Y112000D01*
X166333Y112000D02*
X166333Y114178D01*
X126969Y118110D02*
X125079Y120000D01*
X122000Y120000D01*
X166333Y114178D02*
X165354Y115157D01*
X165354Y118110D01*
X126969Y118110D01*
X218504Y147638D02*
X210000Y147638D01*
X210000Y148333D01*
X430557Y124001D02*
X430557Y121608D01*
X431102Y121063D01*
X431102Y118110D01*
X428150Y115157D01*
X420768Y115157D01*
X419291Y113681D01*
X419291Y110728D01*
X417815Y109252D01*
X411909Y109252D01*
X410433Y109252D01*
X410433Y110728D01*
X407480Y112205D01*
X392717Y112205D01*
X389764Y115157D01*
X389764Y128445D01*
X388287Y129921D01*
X372047Y129921D01*
X372047Y126969D01*
X126969Y188976D02*
X124016Y188976D01*
X121063Y191929D01*
X121063Y211187D01*
X118000Y214250D01*
X312992Y186024D02*
X312992Y188976D01*
X271654Y188976D01*
X271654Y186024D01*
X289370Y152067D02*
X290846Y153543D01*
X292323Y153543D01*
X295276Y156496D01*
X295276Y163878D01*
X298228Y166831D01*
X298228Y183071D01*
X295276Y186024D01*
X283465Y186024D01*
X283465Y183071D01*
X209646Y183071D02*
X197835Y183071D01*
X194882Y180118D01*
X194882Y170921D01*
X193000Y169039D01*
X385039Y105000D02*
X383858Y106181D01*
X383858Y106299D01*
X380906Y109252D01*
X357283Y109252D01*
X322000Y164000D02*
X318898Y164000D01*
X318898Y159449D01*
X307087Y159449D01*
X304134Y156496D01*
X304134Y138780D01*
X301181Y135827D01*
X383039Y179000D02*
X381205Y177165D01*
X375000Y177165D01*
X374557Y177608D01*
X374557Y180001D01*
X168307Y233268D02*
X333661Y233268D01*
X336614Y236220D01*
X336614Y273130D01*
X338091Y274606D01*
X342520Y274606D01*
X343701Y275787D01*
X343701Y278000D01*
X183000Y169039D02*
X180780Y171260D01*
X180118Y171260D01*
X180118Y188976D01*
X162402Y227362D02*
X159449Y227362D01*
X159449Y239173D01*
X162402Y242126D01*
X168307Y242126D01*
X174213Y236220D01*
X301181Y236220D01*
X304134Y239173D01*
X304134Y275913D01*
X306220Y278000D01*
X147638Y224409D02*
X150591Y224409D01*
X153543Y227362D01*
X153543Y246555D01*
X155020Y248031D01*
X186024Y248031D01*
X188976Y250984D01*
X188976Y277559D01*
X189417Y278000D01*
X193780Y278000D01*
X230315Y265748D02*
X230315Y274606D01*
X231260Y275551D01*
X231260Y278000D01*
X268740Y278000D02*
X265748Y275008D01*
X265748Y242126D01*
X262795Y239173D01*
X191929Y239173D01*
X186024Y245079D01*
X157972Y245079D01*
X156496Y243602D01*
X156496Y214075D01*
X152067Y209646D01*
X135827Y209646D01*
X132874Y206693D01*
X132874Y186024D01*
X129921Y184547D01*
X128445Y183071D01*
X126969Y183071D01*
X124016Y180118D01*
X118000Y180118D01*
X118000Y181750D01*
X369443Y179999D02*
X369443Y182722D01*
X366142Y186024D01*
X366142Y214075D01*
X366142Y215551D01*
X364665Y215551D01*
X363189Y218504D01*
X345472Y218504D01*
X342520Y221457D01*
X342520Y265748D01*
X345472Y265748D01*
X304756Y216000D02*
X307087Y218331D01*
X307087Y227362D01*
X310039Y230315D01*
X338091Y230315D01*
X339567Y231791D01*
X339567Y268701D01*
X342520Y271654D01*
X375000Y271654D01*
X377953Y274606D01*
X377953Y274772D01*
X381181Y278000D01*
G54D12*
X163000Y169039D03*
X173000Y169039D03*
X183000Y169039D03*
X193000Y169039D03*
X203000Y169039D03*
X213000Y169039D03*
X223000Y169039D03*
X233000Y169039D03*
X243000Y169039D03*
X253000Y169039D03*
X263000Y169039D03*
X273000Y169039D03*
X283000Y169039D03*
X293000Y169039D03*
X163000Y198961D03*
X173000Y198961D03*
X183000Y198961D03*
X193000Y198961D03*
X203000Y198961D03*
X213000Y198961D03*
X223000Y198961D03*
X233000Y198961D03*
X243000Y198961D03*
X253000Y198961D03*
X263000Y198961D03*
X273000Y198961D03*
X283000Y198961D03*
X293000Y198961D03*
X385039Y135000D03*
X414961Y125000D03*
X385039Y125000D03*
X385039Y115000D03*
X385039Y105000D03*
X414961Y135000D03*
X414961Y115000D03*
X414961Y105000D03*
X383039Y189000D03*
X412961Y169000D03*
X383039Y179000D03*
X383039Y169000D03*
X383039Y159000D03*
X412961Y189000D03*
X412961Y179000D03*
X412961Y159000D03*
X436000Y188000D03*
X436000Y178000D03*
X436000Y168000D03*
G54D13*
X272000Y151667D03*
X272000Y144333D03*
X194000Y151667D03*
X194000Y144333D03*
X172000Y151667D03*
X172000Y144333D03*
X210000Y148333D03*
X210000Y155667D03*
G54D14*
X269666Y150542D02*
X274334Y150542D01*
X274334Y152792D01*
X269666Y152792D01*
X269666Y150542D01*D02*
X269666Y143208D02*
X274334Y143208D01*
X274334Y145458D01*
X269666Y145458D01*
X269666Y143208D01*D02*
X191666Y150542D02*
X196334Y150542D01*
X196334Y152792D01*
X191666Y152792D01*
X191666Y150542D01*D02*
X191666Y143208D02*
X196334Y143208D01*
X196334Y145458D01*
X191666Y145458D01*
X191666Y143208D01*D02*
X169666Y150542D02*
X174334Y150542D01*
X174334Y152792D01*
X169666Y152792D01*
X169666Y150542D01*D02*
X169666Y143208D02*
X174334Y143208D01*
X174334Y145458D01*
X169666Y145458D01*
X169666Y143208D01*D02*
X207666Y147208D02*
X212334Y147208D01*
X212334Y149458D01*
X207666Y149458D01*
X207666Y147208D01*D02*
X207666Y154542D02*
X212334Y154542D01*
X212334Y156792D01*
X207666Y156792D01*
X207666Y154542D01*D02*
X95875Y178083D02*
X100125Y178083D01*
X100125Y185417D01*
X95875Y185417D01*
X95875Y178083D01*D02*
X95875Y210583D02*
X100125Y210583D01*
X100125Y217917D01*
X95875Y217917D01*
X95875Y210583D01*D02*
X105875Y210583D02*
X110125Y210583D01*
X110125Y217917D01*
X105875Y217917D01*
X105875Y210583D01*D02*
X115875Y210583D02*
X120125Y210583D01*
X120125Y217917D01*
X115875Y217917D01*
X115875Y210583D01*D02*
X115875Y178083D02*
X120125Y178083D01*
X120125Y185417D01*
X115875Y185417D01*
X115875Y178083D01*D02*
X105875Y178083D02*
X110125Y178083D01*
X110125Y185417D01*
X105875Y185417D01*
X105875Y178083D01*D02*
X172542Y109666D02*
X174792Y109666D01*
X174792Y114334D01*
X172542Y114334D01*
X172542Y109666D01*D02*
X165208Y109666D02*
X167458Y109666D01*
X167458Y114334D01*
X165208Y114334D01*
X165208Y109666D01*D02*
G54D15*
X252000Y150000D03*
X232833Y150000D03*
G54D16*
X322000Y164000D03*
G54D17*
X322000Y204000D03*
G54D18*
X252000Y216000D03*
G54D19*
X304756Y216000D03*
G54D20*
X338000Y210992D03*
G54D21*
X338000Y148000D03*
G54D22*
X350000Y122000D03*
X350000Y132000D03*
G54D23*
X122000Y120000D03*
X112000Y110000D03*
X112000Y130000D03*
G54D24*
X98000Y181750D03*
X98000Y214250D03*
X108000Y214250D03*
X118000Y214250D03*
X118000Y181750D03*
X108000Y181750D03*
G54D25*
X369443Y179999D03*
X374557Y180001D03*
X373443Y135999D03*
X378557Y136001D03*
X425443Y123999D03*
X430557Y124001D03*
X306557Y118001D03*
X301443Y117999D03*
X423443Y109999D03*
X428557Y110001D03*
X369443Y103999D03*
X374557Y104001D03*
X389443Y201999D03*
X394557Y202001D03*
G54D26*
X295999Y122557D03*
X296001Y117443D03*
X271999Y134557D03*
X272001Y129443D03*
G54D27*
X173667Y112000D03*
X166333Y112000D03*
G54D28*
X144685Y177165D03*
X283465Y183071D03*
X209646Y183071D03*
X277559Y177165D03*
X428150Y183071D03*
X218504Y147638D03*
X372047Y126969D03*
X126969Y188976D03*
X330709Y156496D03*
X301181Y197835D03*
X162402Y206693D03*
X150591Y200787D03*
X312992Y186024D03*
X271654Y186024D03*
X416339Y144685D03*
X422244Y103346D03*
X312992Y115157D03*
X280512Y126969D03*
X375000Y97441D03*
X150591Y215551D03*
X126969Y206693D03*
X97441Y203740D03*
X168307Y233268D03*
X180118Y188976D03*
X162402Y227362D03*
X147638Y224409D03*
X230315Y265748D03*
X345472Y265748D03*
G54D29*
X81339Y278000D03*
X118819Y278000D03*
X156299Y278000D03*
X193780Y278000D03*
X231260Y278000D03*
X268740Y278000D03*
X306220Y278000D03*
X343701Y278000D03*
X381181Y278000D03*
X418661Y278000D03*

M02*
